<?xml version="1.0" standalone="no"?>
<!DOCTYPE svg PUBLIC "-//W3C//DTD SVG 1.1//EN" "http://www.w3.org/Graphics/SVG/1.1/DTD/svg11.dtd" >
<svg>
<metadata>
Created by FontForge 20090914 at Wed Mar 26 07:50:58 2014
 By www-data
Copyright (c) 1991 Digital Typeface Corp.
</metadata>
<defs>
<font id="Copperplate-Bold" horiz-adv-x="500" >
  <font-face 
    font-family="Copperplate"
    font-weight="700"
    font-stretch="normal"
    units-per-em="1000"
    panose-1="0 0 0 0 0 0 0 0 0 0"
    ascent="800"
    descent="-200"
    x-height="545.999"
    cap-height="667"
    bbox="-113 -305.996 1196 893.002"
    underline-thickness="50"
    underline-position="-75"
    unicode-range="U+0020-U+2122"
  />
<missing-glyph horiz-adv-x="754" 
d="M47 0v754h660v-754h-660zM660 47v660h-566v-660h566z" />
    <glyph glyph-name=".notdef" horiz-adv-x="754" 
d="M47 0v754h660v-754h-660zM660 47v660h-566v-660h566z" />
    <glyph glyph-name="space" unicode=" " horiz-adv-x="278" 
 />
    <glyph glyph-name="exclam" unicode="!" horiz-adv-x="271" 
d="M139 -8c-21.333 0 -39.833 7.49902 -55.5 22.499s-23.5 33.5 -23.5 55.5s7.66699 40.667 23 56s34 23 56 23c21.333 0 39.666 -7.66699 54.999 -23s23 -34 23 -56c0 -21.333 -7.66699 -39.666 -23 -54.999s-33.666 -23 -54.999 -23zM71 233.999l0.00195312 15.9971
c10.667 3.33301 18.5 7.5 23.5 12.5s7.5 12.833 7.5 23.5l-1 22l-36 300c-1.33301 14.667 -3.83301 24.834 -7.5 30.501s-11.834 9.83398 -24.501 12.501v16h205v-16c-12.667 -2 -20.667 -5.83301 -24 -11.5s-6 -16.167 -8 -31.5l-36 -300l-1 -22
c0 -11.333 2.16699 -19.166 6.5 -23.499s12.166 -8.5 23.499 -12.5v-16h-128z" />
    <glyph glyph-name="quotedbl" unicode="&#x22;" horiz-adv-x="441" 
d="M81 399l-41 268h144l-42 -268h-61zM297 399l-41 268h144l-42 -268h-61z" />
    <glyph glyph-name="numbersign" unicode="#" horiz-adv-x="580" 
d="M329 0h-63l58 227h-116l-58 -227h-61l57 227h-112l10 57h118l27 113h-112l10 56h117l54 214h62l-54 -214h116l54 214h62l-54 -214h104l-10 -56h-109l-27 -113h104l-10 -57h-109zM366 397h-116l-26 -113h116z" />
    <glyph glyph-name="dollar" unicode="$" horiz-adv-x="720" 
d="M679 207c0 -68 -28.3311 -121.165 -84.998 -159.498s-120 -57.5 -190 -57.5v-32c0 -18 10.667 -29.667 32 -35v-16h-136v16c10 2.66699 17.667 6.66699 23 12s8 13 8 23v32c-12.667 0 -26.5 1.16699 -41.5 3.5s-32.333 5.66602 -52 9.99902s-43.834 12.5 -72.501 24.5
l-88 37c-6.66699 0 -14.334 -3.66699 -23.001 -11l-14 7l72 164l15 -7c0 -33.333 24.333 -60.666 73 -81.999s92.334 -32 131.001 -32v167h-4c-73.333 0 -135.333 15.167 -186 45.5s-76 80.5 -76 150.5c0 65.333 27.167 116.833 81.5 154.5s115.833 56.5 184.5 56.5
c0 23.333 -2 38.166 -6 44.499s-12.333 11.166 -25 14.499v16h136v-16c-21.333 -5.33301 -32 -17 -32 -35v-26c35.333 0 65.833 -4.5 91.5 -13.5s52 -19.167 79 -30.5s49.167 -20 66.5 -26c3.33301 0 7.16602 0.833008 11.499 2.5s8.83301 4.5 13.5 8.5l14 -7l-79 -156
l-14 7c0 26 -22.5 49.333 -67.5 70s-83.5 31 -115.5 31v-153c107.333 -12 180 -34.833 218 -68.5s57 -78.167 57 -133.5zM331.002 564.002c-31.333 0 -60.332 -6.16797 -86.999 -18.501s-41.334 -32.166 -44.001 -59.499c0 -33.333 16.5 -52.5 49.5 -57.5
s60.167 -8.83301 81.5 -11.5v147zM404.003 104.001c32 0 62.333 8 91 24s43 38.667 43 68c0 32 -19.5 51 -58.5 57s-64.167 9.33301 -75.5 10v-159z" />
    <glyph glyph-name="percent" unicode="%" horiz-adv-x="817" 
d="M204 327c-49.333 0 -90 16.333 -122 49s-48 74 -48 124s15.833 91.167 47.5 123.5s72.5 48.5 122.5 48.5c50.667 0 91.834 -16.167 123.501 -48.5s47.5 -73.5 47.5 -123.5c0 -50.667 -15.833 -92.167 -47.5 -124.5s-72.834 -48.5 -123.501 -48.5zM204 602
c-26.667 0 -47.667 -10.167 -63 -30.5s-23 -44.166 -23 -71.499s7.66699 -51.333 23 -72s36.333 -31 63 -31s47.667 10.167 63 30.5s23 44.5 23 72.5c0 27.333 -7.66699 51.166 -23 71.499s-36.333 30.5 -63 30.5zM614 -6c-50.667 0 -91.834 16.167 -123.501 48.5
s-47.5 73.833 -47.5 124.5c0 50 15.833 91.167 47.5 123.5s72.834 48.5 123.501 48.5c50 0 90.833 -16.167 122.5 -48.5s47.5 -73.5 47.5 -123.5c0 -50.667 -15.833 -92.167 -47.5 -124.5s-72.5 -48.5 -122.5 -48.5zM614 269c-26.667 0 -47.667 -10.167 -63 -30.5
s-23 -44.166 -23 -71.499s7.66699 -51.333 23 -72s36.333 -31 63 -31s47.667 10.167 63 30.5s23 44.5 23 72.5c0 27.333 -7.66699 51.166 -23 71.499s-36.333 30.5 -63 30.5zM724 651c-13.333 -2 -25 -6.83203 -35 -14.499s-26 -25.834 -48 -54.501l-392 -508
c-5.33301 -6.66699 -9.66602 -12.667 -12.999 -18s-5 -10.333 -5 -15c0 -8 2.66699 -13.833 8 -17.5s12.666 -6.16699 21.999 -7.5v-16h-175v16c19.333 2.66699 33.833 8.5 43.5 17.5s24.5 26.5 44.5 52.5l385 496c6 7.33301 11 14.333 15 21s6 13 6 19
c0 7.33301 -2.83301 13.5 -8.5 18.5s-12.5 8.5 -20.5 10.5v16h173v-16z" />
    <glyph glyph-name="ampersand" unicode="&#x26;" horiz-adv-x="784" 
d="M751 273l-16.0039 0.00195312c-2 16 -6.33301 24.333 -13 25c-21.333 0 -43.166 -13 -65.499 -39s-37.5 -51.333 -45.5 -76c20 -21.333 37.5 -36.166 52.5 -44.499s29.5 -12.5 43.5 -12.5c14.667 0 24 8 28 24h16v-154c-53.333 3.33301 -93.166 7.66602 -119.499 12.999
s-62.166 30.666 -107.499 75.999c-65.333 -64.667 -146 -97 -242 -97c-64.667 0 -122.334 17.833 -173.001 53.5s-76 84.5 -76 146.5c0 45.333 13.333 84.5 40 117.5s62.667 60.5 108 82.5c-19.333 17.333 -35.166 36.333 -47.499 57s-18.5 42.334 -18.5 65.001
c0 53.333 22.833 94.666 68.5 123.999s96.834 44 153.501 44c57.333 0 108.333 -14.5 153 -43.5s67 -70.5 67 -124.5c0 -30.667 -7.5 -56.334 -22.5 -77.001s-37.167 -41 -66.5 -61c34.667 -23.333 61 -54.333 79 -93c29.333 50 58.5 89 87.5 117s67.833 49 116.5 63v-186z
M336.996 579.002c-27.333 0 -51 -7.5 -71 -22.5s-30 -35.5 -30 -61.5s10 -46.5 30 -61.5s43.667 -22.5 71 -22.5s51 7.5 71 22.5s30 35.5 30 61.5s-10 46.5 -30 61.5s-43.667 22.5 -71 22.5zM304.996 328.002c-34 0 -65.333 -10.168 -94 -30.501s-43 -47.166 -43 -80.499
c0 -34 13.5 -61.667 40.5 -83s58.167 -32 93.5 -32c38 0 73.333 9 106 27s49 44.667 49 80c0 33.333 -16.333 61.5 -49 84.5s-67 34.5 -103 34.5z" />
    <glyph glyph-name="quotesingle" unicode="'" horiz-adv-x="245" 
d="M89 399l-41 268h149l-42 -268h-66z" />
    <glyph glyph-name="parenleft" unicode="(" horiz-adv-x="332" 
d="M282 702c-46 -52 -78.999 -108.001 -98.999 -168.001s-30 -127 -30 -201c0 -75.333 9.66699 -142 29 -200s52.666 -114.333 99.999 -169l-54 -44c-64 46 -114.333 106.167 -151 180.5s-55 151.833 -55 232.5s18.167 158.334 54.5 233.001s86.833 135 151.5 181z" />
    <glyph glyph-name="parenright" unicode=")" horiz-adv-x="332" 
d="M48 -36c47.333 54.667 80.666 110.666 99.999 167.999s29 124.333 29 201c0 75.333 -9.66699 142 -29 200s-52.666 114.333 -99.999 169l54 45c64.667 -46 115.167 -106.167 151.5 -180.5s54.5 -152.166 54.5 -233.499c0 -80 -18.167 -157.333 -54.5 -232
s-86.833 -135 -151.5 -181z" />
    <glyph glyph-name="asterisk" unicode="*" horiz-adv-x="478" 
d="M313 734l-0.00195312 -19.0029c-19.333 -5.33301 -30.666 -17.333 -33.999 -36s-5.33301 -34.334 -6 -47.001s-1 -28 -1 -46c50 18.667 80.833 32.167 92.5 40.5s17.5 21.5 17.5 39.5l17 6l46 -141l-18 -6c-4 6 -9.33301 11.167 -16 15.5s-14.334 6.5 -23.001 6.5
c-16 0 -33.167 -2.66699 -51.5 -8s-33.166 -10 -44.499 -14c20.667 -26.667 37.834 -47.5 51.501 -62.5s27.167 -22.5 40.5 -22.5c4 0 7.5 0.666992 10.5 2s5.16699 2.33301 6.5 3l11 -15l-120 -87l-10 15c7.33301 10 11 19 11 27c0 18.667 -6.66699 37.334 -20 56.001
l-33 46c-19.333 -28 -32.666 -48.333 -39.999 -61s-12 -24.667 -14 -36c0 -11.333 4 -22 12 -32l-11 -15l-120 87l11 15c6.66699 -3.33301 13 -5 19 -5c12 0 27.167 10 45.5 30s33.166 38.333 44.499 55c-28 8.66699 -47.667 14.5 -59 17.5s-23.666 4.5 -36.999 4.5
c-17.333 0 -30.333 -7.33301 -39 -22l-18 5l46 141l17 -5c0 -25.333 10.167 -42.166 30.5 -50.499s46.833 -18.166 79.5 -29.499v12c0 22.667 -0.5 39.334 -1.5 50.001s-3.83301 23.5 -8.5 38.5s-15.334 24.5 -32.001 28.5v19h148z" />
    <glyph glyph-name="plus" unicode="+" 
d="M211 397v200h77v-200h203v-75h-203v-200h-77v200h-202v75h202z" />
    <glyph glyph-name="comma" unicode="," horiz-adv-x="249" 
d="M155 2l-17.501 -3.50293c-5 -1 -9.5 -1.5 -13.5 -1.5c-24 0 -43.5 7.16699 -58.5 21.5s-22.5 33.5 -22.5 57.5s7.83301 42.833 23.5 56.5s35.5 20.5 59.5 20.5c28.667 0 50.834 -12.333 66.501 -37s23.5 -52 23.5 -82c0 -36.667 -11 -69.667 -33 -99
s-51 -55.666 -87 -78.999l-24 31c24.667 16.667 43.5 33.334 56.5 50.001s21.833 38.334 26.5 65.001z" />
    <glyph glyph-name="hyphen" unicode="-" horiz-adv-x="665" 
d="M480 203h-16c-2.66699 10 -6.66699 17.667 -12 23s-13 8 -23 8h-194c-8.66699 0 -15.667 -1.66699 -21 -5s-10 -12 -14 -26h-16v166h16c2.66699 -10 6.66699 -17.667 12 -23s13 -8 23 -8h194c8.66699 0 15.667 1.66699 21 5s10 12 14 26h16v-166z" />
    <glyph glyph-name="period" unicode="." horiz-adv-x="223" 
d="M111 -8c-21.333 0 -39.667 7.66699 -55 23s-23 33.666 -23 54.999s7.5 39.833 22.5 55.5s33.5 23.5 55.5 23.5s40.667 -7.66699 56 -23s23 -34 23 -56c0 -21.333 -7.66699 -39.666 -23 -54.999s-34 -23 -56 -23z" />
    <glyph glyph-name="slash" unicode="/" horiz-adv-x="759" 
d="M726 651c-18 -2.66699 -31.335 -8.33203 -40.002 -16.999s-23 -26 -43 -52l-393 -508c-5.33301 -6.66699 -9.66602 -12.667 -12.999 -18s-5 -10.333 -5 -15c0 -7.33301 2.83301 -13 8.5 -17s12.834 -6.66699 21.501 -8v-16h-229v16
c18.667 2.66699 32.834 8.66699 42.501 18s24.5 26.666 44.5 51.999l385 496c8 10 13.667 17.5 17 22.5s5 10.5 5 16.5c0 8 -2.83301 14.5 -8.5 19.5s-12.834 8.5 -21.501 10.5v16h229v-16z" />
    <glyph glyph-name="zero" unicode="0" horiz-adv-x="762" 
d="M381 -12c-100.667 0 -182.667 32.3291 -246 96.9961s-95 147.334 -95 248.001s31.667 183.334 95 248.001s145.333 97 246 97c101.333 0 183.5 -32.167 246.5 -96.5s94.5 -147.166 94.5 -248.499s-31.5 -184.166 -94.5 -248.499s-145.167 -96.5 -246.5 -96.5z
M381 563.996c-60.667 0 -107.834 -22.167 -141.501 -66.5s-50.5 -97.833 -50.5 -160.5s16.833 -116.167 50.5 -160.5s80.834 -66.5 141.501 -66.5s107.834 22.167 141.501 66.5s50.5 97.833 50.5 160.5s-16.833 116.167 -50.5 160.5s-80.834 66.5 -141.501 66.5z" />
    <glyph glyph-name="one" unicode="1" horiz-adv-x="762" 
d="M247 603l16.002 0.000976562c3.33301 -10 6.33301 -17.333 9 -22s7.66699 -7 15 -7c9.33301 0 18.666 1.33301 27.999 4s18.666 5.66699 27.999 9v29c0 10 -2.5 17.667 -7.5 23s-12.833 9.33301 -23.5 12v16h204v-16c-20.667 -5.33301 -31 -17 -31 -35v-565
c0 -18 10.333 -29.667 31 -35v-16h-204v16c10 2.66699 17.667 6.66699 23 12s8 13 8 23v422l-48 -12c-17.333 -6.66699 -28 -18.334 -32 -35.001h-16v177z" />
    <glyph glyph-name="two" unicode="2" horiz-adv-x="762" 
d="M649 116c18.667 0 30.6689 10.668 36.002 32.001h16v-183h-16c-2.66699 9.33301 -6.83398 16.833 -12.501 22.5s-13.5 8.5 -23.5 8.5h-519c-14.667 0 -25.334 -1.66699 -32.001 -5s-11.667 -12 -15 -26h-15l-1 16c0 85.333 20.5 151.166 61.5 197.499
s93.333 84.333 157 114l156.5 72.5c47.333 28 71 61.333 71 100c0 30 -10 53.5 -30 70.5s-45.667 25.5 -77 25.5c-38.667 0 -81.334 -8.66699 -128.001 -26s-71.667 -42 -75 -74c0 -5.33301 0.333008 -9.5 1 -12.5s3 -10.167 7 -21.5l-11 -11l-130 140l12 11l12.5 -6
c4.33301 -2 8.83301 -3 13.5 -3c6.66699 0 14.667 3.33301 24 10c40.667 34.667 84 61.167 130 79.5s95 27.5 147 27.5c72 0 132.167 -17.667 180.5 -53s72.5 -88 72.5 -158c0 -45.333 -12.5 -83.666 -37.5 -114.999s-54.167 -56.333 -87.5 -75
s-71.166 -37.334 -113.499 -56.001l-111 -49c-31.667 -14 -55.167 -31.667 -70.5 -53h407z" />
    <glyph glyph-name="three" unicode="3" horiz-adv-x="762" 
d="M708 202c0 -73.333 -30.998 -127.334 -92.998 -162.001s-132.667 -52 -212 -52c-56.667 0 -109.334 7.33301 -158.001 22l-137 52c-7.33301 0 -13.5 -1.33301 -18.5 -4s-11.167 -7.33398 -18.5 -14.001l-14 7l78 180l14 -6l-2 -13c0 -34 29.667 -60.833 89 -80.5
s110.333 -29.5 153 -29.5c45.333 0 84.833 6.33301 118.5 19s52.167 37.334 55.5 74.001c0 42 -16 69.333 -48 82s-73.333 19 -124 19c-18.667 0 -34.334 -2.16699 -47.001 -6.5s-20.667 -13.5 -24 -27.5h-16v164h16c4.66699 -14.667 12.5 -24.167 23.5 -28.5
s26.167 -6.5 45.5 -6.5c42.667 0 80 5.66699 112 17s48 34.333 48 69c0 32.667 -14.333 55.334 -43 68.001s-62 19 -100 19c-37.333 0 -82 -7.5 -134 -22.5s-78 -36.167 -78 -63.5c0 -5.33301 2 -13.333 6 -24l-12 -10l-112 138l12 10
c0.666992 -0.666992 4.16699 -2.16699 10.5 -4.5s12.5 -3.5 18.5 -3.5c40.667 26 85.334 48.167 134.001 66.5s100.667 27.5 156 27.5c70 0 133.333 -15.167 190 -45.5s85 -77.5 85 -141.5c0 -32 -6.83301 -59.5 -20.5 -82.5s-34.834 -42.833 -63.501 -59.5
c35.333 -14 62.5 -33 81.5 -57s28.5 -54 28.5 -90z" />
    <glyph glyph-name="four" unicode="4" horiz-adv-x="762" 
d="M126 112c-16.667 0 -28.334 -1.49902 -35.001 -4.49902s-11.667 -11.833 -15 -26.5h-15v141l331 372c4 5.33301 8.33301 10.666 13 15.999s7.33398 11 8.00098 17c0 12.667 -8 20.667 -24 24v16h261v-16c-20.667 -5.33301 -31 -17 -31 -35v-394h37
c10 0 17.667 2.5 23 7.5s9.33301 12.833 12 23.5h16v-172h-16c-2.66699 10 -6.66699 17.667 -12 23s-13 8 -23 8h-37v-61c0 -18 10.333 -29.667 31 -35v-16h-204v16c10 2.66699 17.667 6.66699 23 12s8 13 8 23v61h-351zM477 515.001l-257 -293h257v293z" />
    <glyph glyph-name="five" unicode="5" horiz-adv-x="762" 
d="M167 235l13.001 -9.00195c-2.66699 -9.33301 -4 -16.666 -4 -21.999c0 -27.333 26.5 -51.166 79.5 -71.499s97.833 -30.5 134.5 -30.5c45.333 0 84.666 9.16699 117.999 27.5s50 47.833 50 88.5s-16 71.667 -48 93s-70 32 -114 32c-22.667 0 -53.667 -4.66699 -93 -14
s-59 -22.666 -59 -39.999c0 -4 2.33301 -10.667 7 -20l-12 -11l-172 173l10 12l7 -1c8 0 13.833 2.83301 17.5 8.5s5.5 12.834 5.5 21.501v142c0 19.333 -10.333 31.666 -31 36.999v15h528c17.333 0 29.333 10.667 36 32h15v-177h-15
c-3.33301 10.667 -7.66602 18.667 -12.999 24s-13 8 -23 8h-380v-144c28 13.333 58.667 23.166 92 29.499s67.333 9.5 102 9.5c79.333 0 146.666 -19 201.999 -57s83 -95 83 -171c0 -78 -30.167 -136.167 -90.5 -174.5s-131.5 -57.5 -213.5 -57.5
c-62.667 0 -118 9.33301 -166 28l-136 64c-11.333 0 -23.333 -3.66699 -36 -11l-12 10z" />
    <glyph glyph-name="six" unicode="6" horiz-adv-x="762" 
d="M614 468l-14.001 6.99902c2 7.33301 3 14 3 20c0 22.667 -21.5 40.834 -64.5 54.501s-81.167 20.5 -114.5 20.5c-66 0 -118.333 -19 -157 -57s-58 -89.667 -58 -155c29.333 26 60.833 46.167 94.5 60.5s69.5 21.5 107.5 21.5c78.667 0 146.167 -18.333 202.5 -55
s84.5 -92.334 84.5 -167.001s-30.5 -131.667 -91.5 -171s-130.5 -59 -208.5 -59c-102 0 -182.167 29.5 -240.5 88.5s-87.5 139.5 -87.5 241.5c0 104.667 31.5 190.834 94.5 258.501s146.833 101.5 251.5 101.5c42 0 84.333 -5.66699 127 -17l117 -39
c2.66699 0 7.33398 2 14.001 6s11 6.66699 13 8l13 -8zM399.999 328.999c-41.333 0 -78.5 -9.66699 -111.5 -29s-49.5 -48.333 -49.5 -87c0 -38 16.667 -66.667 50 -86s70.333 -29 111 -29s77.667 9.66699 111 29s50 48 50 86s-16.667 66.833 -50 86.5
s-70.333 29.5 -111 29.5z" />
    <glyph glyph-name="seven" unicode="7" horiz-adv-x="762" 
d="M121 554c-8.66699 0 -15.668 -1.66797 -21.001 -5.00098s-10 -12 -14 -26h-16v172h16c2.66699 -10 6.66699 -17.667 12 -23s13 -8 23 -8h528c8.66699 0 15.667 1.66699 21 5s10 12 14 26h16v-127l-300 -494c-5.33301 -7.33301 -9.66602 -14 -12.999 -20
s-5 -11.667 -5 -17s1.66699 -9.66602 5 -12.999s11 -7 23 -11v-16h-239v16c14.667 4 27 11 37 21s20.333 23.333 31 40l298 480h-416z" />
    <glyph glyph-name="eight" unicode="8" horiz-adv-x="762" 
d="M702 200c0 -76 -32.3301 -130.333 -96.9971 -163s-139 -49 -223 -49c-82.667 0 -155.167 14.833 -217.5 44.5s-96.5 81.167 -102.5 154.5c0 46 13 82.667 39 110s62.667 47 110 59c-36 14.667 -65 33 -87 55s-33 50.333 -33 85c0 66.667 29.667 113.667 89 141
s126.666 41 201.999 41s142.666 -13.667 201.999 -41s89 -74.333 89 -141c0 -34 -10.833 -62.167 -32.5 -84.5s-50.834 -40.833 -87.501 -55.5c44 -10.667 79.833 -29 107.5 -55s41.5 -59.667 41.5 -101zM382.003 574c-37.333 0 -71.668 -5.83301 -103.001 -17.5
s-47 -32.834 -47 -63.501s15.833 -51.667 47.5 -63s65.834 -17 102.501 -17s71 5.83301 103 17.5s48 32.5 48 62.5c0 30.667 -15.667 51.834 -47 63.501s-66 17.5 -104 17.5zM382.001 302c-58 0 -101.002 -9.33301 -129.002 -28s-42 -42.667 -42 -72
c0 -36.667 17.833 -62.5 53.5 -77.5s74.834 -22.5 117.501 -22.5c58 0 101 9.5 129 28.5s42 42.833 42 71.5c0 36.667 -17.667 62.5 -53 77.5s-74.666 22.5 -117.999 22.5z" />
    <glyph glyph-name="nine" unicode="9" horiz-adv-x="762" 
d="M151 198l13.999 -6.99902c-1.33301 -6 -2.33301 -11.667 -3 -17c0 -26 21.5 -45.5 64.5 -58.5s81.167 -19.5 114.5 -19.5c66.667 0 119.167 19.167 157.5 57.5s57.5 90.166 57.5 155.499c-29.333 -26 -61.166 -46.333 -95.499 -61s-69.833 -22 -106.5 -22
c-78 0 -145.333 18.5 -202 55.5s-85 92.5 -85 166.5c0 74.667 30.5 131.667 91.5 171s130.5 59 208.5 59c102 0 182.167 -29.167 240.5 -87.5s87.5 -139.166 87.5 -242.499c0 -104.667 -31.5 -190.834 -94.5 -258.501s-146.833 -101.5 -251.5 -101.5
c-40.667 0 -82.667 5.66699 -126 17l-118 39c-5.33301 0 -10 -1.16699 -14 -3.5s-8.33301 -5.83301 -13 -10.5l-13 8zM364.999 568.001c-40.667 0 -77.667 -9.66699 -111 -29s-50 -48 -50 -86s16.667 -66.833 50 -86.5s70.333 -29.5 111 -29.5
c41.333 0 78.5 9.66699 111.5 29s49.5 48.333 49.5 87c0 38 -16.667 66.667 -50 86s-70.333 29 -111 29z" />
    <glyph glyph-name="colon" unicode=":" horiz-adv-x="223" 
d="M111 400c-21.333 0 -39.667 7.66699 -55 23s-23 33.666 -23 54.999s7.5 39.833 22.5 55.5s33.5 23.5 55.5 23.5s40.667 -7.66699 56 -23s23 -34 23 -56c0 -21.333 -7.66699 -39.666 -23 -54.999s-34 -23 -56 -23zM110.999 -8c-21.333 0 -39.667 7.66699 -55 23
s-23 33.666 -23 54.999s7.5 39.833 22.5 55.5s33.5 23.5 55.5 23.5s40.667 -7.66699 56 -23s23 -34 23 -56c0 -21.333 -7.66699 -39.666 -23 -54.999s-34 -23 -56 -23z" />
    <glyph glyph-name="semicolon" unicode=";" horiz-adv-x="249" 
d="M124 400c-22 0 -40.5 7.50098 -55.5 22.501s-22.5 33.833 -22.5 56.5c0 22 7.5 40.5 22.5 55.5s33.5 22.5 55.5 22.5s40.667 -7.33301 56 -22s23 -33.334 23 -56.001s-7.5 -41.5 -22.5 -56.5s-33.833 -22.5 -56.5 -22.5zM155 2.00098l-17.501 -3.50293
c-5 -1 -9.5 -1.5 -13.5 -1.5c-24 0 -43.5 7.16699 -58.5 21.5s-22.5 33.5 -22.5 57.5s7.83301 42.833 23.5 56.5s35.5 20.5 59.5 20.5c28.667 0 50.834 -12.333 66.501 -37s23.5 -52 23.5 -82c0 -36.667 -11 -69.667 -33 -99s-51 -55.666 -87 -78.999l-24 31
c24.667 16.667 43.5 33.334 56.5 50.001s21.833 38.334 26.5 65.001z" />
    <glyph glyph-name="less" unicode="&#x3c;" 
d="M461 570l-252 -159l252 -171v-167l-422 288v9l422 263v-63z" />
    <glyph glyph-name="equal" unicode="=" 
d="M491 471v-72h-483v72h483zM491 320v-72h-483v72h483z" />
    <glyph glyph-name="greater" unicode="&#x3e;" 
d="M39 136l252 159l-252 171v167l422 -288v-8l-422 -264v63z" />
    <glyph glyph-name="question" unicode="?" horiz-adv-x="475" 
d="M256 -8c-21.333 0 -39.667 7.66699 -55 23s-23 33.666 -23 54.999s7.5 39.833 22.5 55.5s33.5 23.5 55.5 23.5s40.667 -7.66699 56 -23s23 -34 23 -56c0 -21.333 -7.66699 -39.666 -23 -54.999s-34 -23 -56 -23zM33.999 602l13.001 7.99805
c9.33301 -4.66699 16.666 -7 21.999 -7c36 20 70.167 37.5 102.5 52.5s63.833 22.5 94.5 22.5c47.333 0 88.5 -12.167 123.5 -36.5s52.5 -58.833 52.5 -103.5c0 -45.333 -23.333 -92.666 -70 -141.999s-70 -89.666 -70 -120.999c0 -8.66699 2.33301 -15.167 7 -19.5
s11.667 -7.83301 21 -10.5v-15h-160v15c14 4.66699 23 11 27 19s7.66699 22.833 11 44.5s21 55 53 100s48 77.167 48 96.5c0 20.667 -7.5 37.5 -22.5 50.5s-32.833 19.5 -53.5 19.5c-23.333 0 -46.833 -6.33301 -70.5 -19s-35.5 -29.667 -35.5 -51c0 -4 1.33301 -10 4 -18
l-13 -8z" />
    <glyph glyph-name="at" unicode="@" horiz-adv-x="783" 
d="M682 148c-39.333 -50.667 -82.999 -89.8311 -130.999 -117.498s-101.667 -41.5 -161 -41.5c-88 0 -164.833 33.167 -230.5 99.5s-98.5 143.5 -98.5 231.5c0 100.667 34.667 185.667 104 255s154 104 254 104c82.667 0 154 -25.833 214 -77.5s90 -118.5 90 -200.5
c0 -62 -20.5 -120.833 -61.5 -176.5s-91.833 -83.5 -152.5 -83.5c-19.333 0 -35.333 5.5 -48 16.5s-21 26.167 -25 45.5c-15.333 -19.333 -33.5 -35.166 -54.5 -47.499s-42.5 -18.5 -64.5 -18.5c-34 0 -60.833 13.667 -80.5 41s-29.5 58.666 -29.5 93.999
c0 56 19.667 112.333 59 169s85.666 85 138.999 85c41.333 0 73.333 -16.333 96 -49l10 34l78 5l-74 -250c-2.66699 -8 -5.16699 -16.833 -7.5 -26.5s-3.5 -17.834 -3.5 -24.501c0 -8.66699 2.16699 -16.167 6.5 -22.5s10.5 -9.5 18.5 -9.5c36.667 0 70.5 23.833 101.5 71.5
s46.5 93.167 46.5 136.5c0 71.333 -25 129.666 -75 174.999s-111.333 68 -184 68c-83.333 0 -155.333 -30.333 -216 -91s-91 -132.667 -91 -216c0 -78 28 -146 84 -204s123.333 -87 202 -87c47.333 0 88.5 9.5 123.5 28.5s72.167 48.167 111.5 87.5zM476.001 412.003
c2 5.33301 3 10.668 3 16.001c0 16 -4.16699 30 -12.5 42s-20.5 18 -36.5 18c-40.667 0 -75.167 -29.667 -103.5 -89s-42.5 -113 -42.5 -161c0 -16.667 4 -31.334 12 -44.001s20 -19 36 -19c25.333 0 47 13 65 39s32.333 55.333 43 88z" />
    <glyph glyph-name="A" unicode="A" horiz-adv-x="893" 
d="M282 170l-44.999 -93.998c-3.33301 -8 -5.66602 -13.833 -6.99902 -17.5s-2 -7.83398 -2 -12.501c0 -8 2.83301 -14.333 8.5 -19s13.5 -8.33398 23.5 -11.001v-16h-220v16c14 2.66699 24.333 7.66699 31 15s14 19.333 22 36l245 513
c3.33301 6 6.16602 12.167 8.49902 18.5s3.5 12.5 3.5 18.5c0 16.667 -9.33301 28 -28 34v16h236v-16c-6.66699 -2 -13.167 -5 -19.5 -9s-9.5 -10.667 -9.5 -20c0 -4 0.666992 -8.33301 2 -13s3.66602 -11 6.99902 -19l255 -514c9.33301 -19.333 17.833 -33.5 25.5 -42.5
s19.167 -14.833 34.5 -17.5v-16h-245v16c10 1.33301 17.833 4 23.5 8s8.5 10.333 8.5 19c0 12 -3 23 -9 33l-46 94h-303zM435.001 499.002l-110 -238h218z" />
    <glyph glyph-name="B" unicode="B" horiz-adv-x="786" 
d="M746 193c0 -67.333 -24 -116.333 -72 -147s-107.667 -46 -179 -46h-455v16c10 2.66699 17.667 6.66699 23 12s8 13 8 23v565c0 10 -2.5 17.667 -7.5 23s-12.833 9.33301 -23.5 12v16h451c69.333 0 125.5 -12.833 168.5 -38.5s64.5 -71.834 64.5 -138.501
c0 -65.333 -30.333 -112.333 -91 -141c36 -13.333 63.833 -33.166 83.5 -59.499s29.5 -58.5 29.5 -96.5zM472 402c33.333 0 59.5 5.16602 78.5 15.499s28.5 30.833 28.5 61.5s-9.5 51.334 -28.5 62.001s-45.167 16 -78.5 16h-256v-155h256zM464 109.999
c52.667 0 88.167 8 106.5 24s27.5 38.333 27.5 67c0 35.333 -12.5 59.333 -37.5 72s-57.167 19 -96.5 19h-248v-182h248z" />
    <glyph glyph-name="C" unicode="C" horiz-adv-x="834" 
d="M794 90l-11.999 -8.99805l-10.5 8.5c-3.66699 3 -7.83398 4.5 -12.501 4.5c-3.33301 0 -7 -0.833008 -11 -2.5s-20.5 -11 -49.5 -28s-67.333 -33.833 -115 -50.5s-97.167 -25 -148.5 -25c-111.333 0 -205 30.333 -281 91s-114 145.334 -114 254.001
c0 109.333 37.833 194.166 113.5 254.499s169.5 90.5 281.5 90.5c45.333 0 89.333 -6.16699 132 -18.5s76.834 -26 102.501 -41l56 -32c11.667 -6.33301 21.167 -10.833 28.5 -13.5c6 0 11.5 1.5 16.5 4.5s8.83301 5.5 11.5 7.5l12 -8l-92 -139l-13 9c0 12 -1 20.667 -3 26
s-11.833 15.333 -29.5 30s-45.834 28.5 -84.501 41.5s-79 19.5 -121 19.5c-74 0 -136.167 -20.333 -186.5 -61s-75.5 -97.334 -75.5 -170.001c0 -72 25.333 -128.5 76 -169.5s112.667 -61.5 186 -61.5c52.667 0 105.5 11.667 158.5 35s79.5 46.666 79.5 69.999v13l13 8z" />
    <glyph glyph-name="D" unicode="D" horiz-adv-x="813" 
d="M411 667c54.667 0 102.831 -4.66797 144.498 -14.001s79.834 -29 114.501 -59s60.5 -67.667 77.5 -113s25.5 -94.666 25.5 -147.999c0 -52 -8.5 -101 -25.5 -147s-42.833 -83.5 -77.5 -112.5s-73.167 -48.5 -115.5 -58.5s-90.166 -15 -143.499 -15h-371v16
c10 2.66699 17.667 6.66699 23 12s8 13 8 23v565c0 10 -2.5 17.667 -7.5 23s-12.833 9.33301 -23.5 12v16h371zM398.997 109.999c76 0 132.499 18.167 169.499 54.5s55.5 92.5 55.5 168.5c0 76.667 -18.167 133.167 -54.5 169.5s-93.166 54.5 -170.499 54.5h-183v-447h183z
" />
    <glyph glyph-name="E" unicode="E" horiz-adv-x="736" 
d="M216 110h429.001c18.667 0 30.667 10.667 36 32h15v-173h-15c-2.66699 9.33301 -6.83398 16.833 -12.501 22.5s-13.5 8.5 -23.5 8.5h-605v16c10 2.66699 17.667 6.66699 23 12s8 13 8 23v565c0 8.66699 -1.66699 15.667 -5 21s-12 10 -26 14v16h594
c10 0 17.667 2.5 23 7.5s9.33301 12.833 12 23.5h16v-172h-16c-2.66699 10 -6.66699 17.667 -12 23s-13 8 -23 8h-418v-158h271c8.66699 0 15.667 1.66699 21 5s10 12 14 26h16v-168h-16c-2.66699 10 -6.66699 17.667 -12 23s-13 8 -23 8h-271v-183z" />
    <glyph glyph-name="F" unicode="F" horiz-adv-x="721" 
d="M216 51c0 -18 10.667 -29.667 32 -35v-16h-208v16c10 2.66699 17.667 6.66699 23 12s8 13 8 23v565c0 10 -2.5 17.667 -7.5 23s-12.833 9.33301 -23.5 12v16h590c10 0 17.667 2.5 23 7.5s9.33301 12.833 12 23.5h16v-172h-16c-2.66699 10 -6.66699 17.667 -12 23
s-13 8 -23 8h-414v-159h271c8.66699 0 15.667 1.66699 21 5s10 12 14 26h16v-169h-16c-5.33301 21.333 -17 32 -35 32h-271v-241z" />
    <glyph glyph-name="G" unicode="G" horiz-adv-x="840" 
d="M484 240c-18 0 -29.668 -10.667 -35.001 -32h-16v156h16c5.33301 -21.333 17 -32 35 -32h316v-15c-9.33301 -2.66699 -16.833 -6.83398 -22.5 -12.501s-8.5 -13.5 -8.5 -23.5v-137c0 -10 2.5 -17.667 7.5 -23s12.833 -9.33301 23.5 -12v-13
c-59.333 -34 -119.5 -60.5 -180.5 -79.5s-122.5 -28.5 -184.5 -28.5c-112.667 0 -206.667 30 -282 90s-113 145 -113 255c0 108 37.5 192.5 112.5 253.5s168.167 91.5 279.5 91.5c40 0 77.167 -3.16699 111.5 -9.5s63 -14 86 -23l52 -20
c11.667 -4.33301 22.167 -6.5 31.5 -6.5c4 0 7.5 0.5 10.5 1.5s7.16699 4.16699 12.5 9.5l14 -7l-78 -160l-14 7c0 32 -26 55.667 -78 71s-100.667 23 -146 23c-68.667 0 -126.667 -21.5 -174 -64.5s-71 -98.5 -71 -166.5c0 -71.333 24.333 -127.666 73 -168.999
s109.334 -62 182.001 -62c38.667 0 75 3.5 109 10.5s66 19.167 96 36.5v91h-165z" />
    <glyph glyph-name="H" unicode="H" horiz-adv-x="818" 
d="M216 291v-240c0 -18 10.667 -29.667 32 -35v-16h-208v16c10 2.66699 17.667 6.66699 23 12s8 13 8 23v565c0 10 -2.5 17.667 -7.5 23s-12.833 9.33301 -23.5 12v16h208v-16c-21.333 -5.33301 -32 -17 -32 -35v-215h386v215c0 18 -10.667 29.667 -32 35v16h208v-16
c-10 -2.66699 -17.667 -6.66699 -23 -12s-8 -13 -8 -23v-565c0 -10 2.5 -17.667 7.5 -23s12.833 -9.33301 23.5 -12v-16h-208v16c21.333 5.33301 32 17 32 35v240h-386z" />
    <glyph glyph-name="I" unicode="I" horiz-adv-x="288" 
d="M248 0h-208v16c10 2.66699 17.667 6.66699 23 12s8 13 8 23v565c0 10 -2.5 17.667 -7.5 23s-12.833 9.33301 -23.5 12v16h208v-16c-21.333 -5.33301 -32 -17 -32 -35v-565c0 -18 10.667 -29.667 32 -35v-16z" />
    <glyph glyph-name="J" unicode="J" horiz-adv-x="634" 
d="M102 194l15 -5.00098v-10c0 -24 21.167 -42.833 63.5 -56.5s78.833 -20.5 109.5 -20.5c48 0 81.333 9.66699 100 29s28 52.333 28 99v385c0 10 -2.5 17.833 -7.5 23.5s-12.833 9.83398 -23.5 12.501v16h207v-16c-9.33301 -2.66699 -16.833 -6.83398 -22.5 -12.501
s-8.5 -13.5 -8.5 -23.5v-393c0 -43.333 -4.16699 -79.166 -12.5 -107.499s-25.333 -52.5 -51 -72.5s-54.334 -34 -86.001 -42s-65.5 -12 -101.5 -12c-34 0 -76.167 7.5 -126.5 22.5s-83.5 22.5 -99.5 22.5c-11.333 0 -21.666 -4.66699 -30.999 -14l-15 6z" />
    <glyph glyph-name="K" unicode="K" horiz-adv-x="812" 
d="M216 230v-179c0 -18 10.667 -29.667 32 -35v-16h-208v16c10 2.66699 17.667 6.66699 23 12s8 13 8 23v565c0 10 -2.5 17.667 -7.5 23s-12.833 9.33301 -23.5 12v16h208v-16c-21.333 -5.33301 -32 -17 -32 -35v-233l275 224c5.33301 3.33301 9.66602 7 12.999 11
s5.33301 8 6 12c0 6.66699 -2.66699 11.5 -8 14.5s-12 5.16699 -20 6.5v16h273v-16c-15.333 -2.66699 -33.666 -12.334 -54.999 -29.001l-50 -43l-227 -183l257 -309c20.667 -24 36.667 -41.167 48 -51.5s26 -16.833 44 -19.5v-16h-261v16
c6.66699 1.33301 12.667 3.33301 18 6s8 6.33398 8 11.001c0 6 -2.66699 12.667 -8 20c-7.33301 8 -12.333 13.667 -15 17l-197 241z" />
    <glyph glyph-name="L" unicode="L" horiz-adv-x="718" 
d="M627 110c18 0 29.667 10.667 35 32h16v-173h-16c-2.66699 10 -6.66699 17.667 -12 23s-13 8 -23 8h-587v16c10 2.66699 17.667 6.66699 23 12s8 13 8 23v565c0 8.66699 -1.66699 15.667 -5 21s-12 10 -26 14v16h208v-16c-21.333 -5.33301 -32 -17 -32 -35v-506h411z" />
    <glyph glyph-name="M" unicode="M" horiz-adv-x="926" 
d="M205 461l-0.000976562 -410.001c0 -10 2.5 -17.667 7.5 -23s12.833 -9.33301 23.5 -12v-16h-196v16c10 2.66699 17.667 6.66699 23 12s8 13 8 23v565c0 10 -2.5 17.667 -7.5 23s-12.833 9.33301 -23.5 12v16h257v-16c-6.66699 -2 -11.834 -4.66699 -15.501 -8
s-6.16699 -8.33301 -7.5 -15c0 -10 2.33301 -18.667 7 -26l182 -336l183 330c0.666992 1.33301 2.83398 5.33301 6.50098 12s5.83398 12.334 6.50098 17.001c0 17.333 -8.33301 26 -25 26v16h252v-16c-10 -2.66699 -17.667 -6.66699 -23 -12s-8 -13 -8 -23v-565
c0 -10 2.5 -17.667 7.5 -23s12.833 -9.33301 23.5 -12v-16h-208v16c21.333 5.33301 32 17 32 35v410l-260 -452z" />
    <glyph glyph-name="N" unicode="N" horiz-adv-x="831" 
d="M205 51c0 -10 2.50195 -17.666 7.50195 -22.999s12.833 -9.33301 23.5 -12v-16h-196v16c10 2.66699 17.667 6.66699 23 12s8 13 8 23v565c0 10 -2.5 17.667 -7.5 23s-12.833 9.33301 -23.5 12v16h227v-16c-6.66699 -2 -11.834 -4.5 -15.501 -7.5
s-5.5 -7.83301 -5.5 -14.5c0 -4.66699 1.33301 -9.16699 4 -13.5s5.66699 -8.5 9 -12.5l368 -383v396c0 18 -10.667 29.667 -32 35v16h196v-16c-10 -2.66699 -17.667 -6.66699 -23 -12s-8 -13 -8 -23v-565c0 -10 2.5 -17.667 7.5 -23s12.833 -9.33301 23.5 -12v-16h-209v16
c8 2 13.167 4.16699 15.5 6.5s3.83301 6.16602 4.5 11.499c0 6 -1.83301 11.5 -5.5 16.5s-9.83398 11.833 -18.501 20.5l-373 386v-406z" />
    <glyph glyph-name="O" unicode="O" horiz-adv-x="846" 
d="M423 -12c-37.333 0 -72.999 3.16797 -106.999 9.50098s-72.167 20.666 -114.5 42.999s-79.833 60.833 -112.5 115.5s-49 113.667 -49 177c0 106 36.833 190 110.5 252s164.5 93 272.5 93c37.333 0 73.166 -3.33301 107.499 -10s72.5 -21 114.5 -43
s79.333 -60.333 112 -115s49 -113.667 49 -177c0 -106 -36.833 -190 -110.5 -252s-164.5 -93 -272.5 -93zM423.001 564.001c-67.333 0 -123.167 -21.499 -167.5 -64.499s-66.5 -98.5 -66.5 -166.5c0 -66.667 22.167 -121.834 66.5 -165.501s100.166 -65.5 167.499 -65.5
c66.667 0 122.334 21.667 167.001 65s67 98.666 67 165.999c0 68.667 -22 124.334 -66 167.001s-100 64 -168 64z" />
    <glyph glyph-name="P" unicode="P" horiz-adv-x="758" 
d="M216 51c0 -18 10.666 -29.666 31.999 -34.999v-16h-208v16c10 2.66699 17.667 6.66699 23 12s8 13 8 23v565c0 10 -2.5 17.667 -7.5 23s-12.833 9.33301 -23.5 12v16h416c43.333 0 79.833 -2.66699 109.5 -8s56.334 -17 80.001 -35s41.667 -40.833 54 -68.5
s18.5 -56.5 18.5 -86.5c0 -30.667 -6 -59.834 -18 -87.501s-30 -50.167 -54 -67.5s-51.5 -28.833 -82.5 -34.5s-66.833 -8.5 -107.5 -8.5h-240v-220zM438.999 380.001c38 0 69.167 6.33301 93.5 19s36.5 36 36.5 70s-10.5 57.167 -31.5 69.5s-50.167 18.5 -87.5 18.5h-11
h-223v-177h223z" />
    <glyph glyph-name="Q" unicode="Q" horiz-adv-x="865" 
d="M754 33c8 -10 14.335 -17 19.002 -21s11 -6 19 -6c5.33301 0 12.666 2 21.999 6l11 -12l-143 -129l-11 12c6.66699 10 10 17.333 10 22c0 10 -11 27.667 -33 53l-52 60c-26 -10.667 -53.167 -18.167 -81.5 -22.5s-58.833 -6.5 -91.5 -6.5c-37.333 0 -73 3.16699 -107 9.5
s-72.167 20.666 -114.5 42.999s-79.833 60.833 -112.5 115.5s-49 113.667 -49 177c0 106 36.833 190 110.5 252s164.5 93 272.5 93c37.333 0 73.166 -3.16699 107.499 -9.5s72.5 -20.666 114.5 -42.999s79.333 -60.833 112 -115.5s49 -113.667 49 -177
c0 -46 -9.16699 -91 -27.5 -135s-43.833 -81.667 -76.5 -113zM657.002 334c0 67.333 -22.002 122.666 -66.002 165.999s-100 65 -168 65c-67.333 0 -123.166 -21.5 -167.499 -64.5s-66.5 -98.5 -66.5 -166.5s22 -123.667 66 -167s100 -65 168 -65c32.667 0 63 5.33301 91 16
c-17.333 22.667 -37.166 42.334 -59.499 59.001s-46.5 28.334 -72.5 35.001v14c23.333 18 48 27 74 27c22.667 0 39.667 -2.5 51 -7.5s44.333 -25.833 99 -62.5c34 43.333 51 93.666 51 150.999z" />
    <glyph glyph-name="R" unicode="R" horiz-adv-x="809" 
d="M216 51c0 -18 10.667 -29.6689 32 -35.002v-16h-208v16c10 2.66699 17.667 6.66699 23 12s8 13 8 23v565c0 10 -2.5 17.667 -7.5 23s-12.833 9.33301 -23.5 12v16h417c86 0 153.167 -13.667 201.5 -41s72.5 -81.333 72.5 -162c0 -54.667 -16.167 -97.167 -48.5 -127.5
s-76.5 -49.833 -132.5 -58.5l130 -185c19.333 -28.667 34.333 -48.667 45 -60s25.334 -17 44.001 -17v-16h-241v16c5.33301 0.666992 10.666 2 15.999 4s8 6.33301 8 13s-3.33301 14.834 -10 24.501s-11 15.834 -13 18.501l-134 196h-179v-221zM442 381.998
c44 0 79.001 5.16797 105.001 15.501s39 34.166 39 71.499c0 38 -12.833 62.167 -38.5 72.5s-60.834 15.5 -105.501 15.5h-226v-175h226z" />
    <glyph glyph-name="S" unicode="S" horiz-adv-x="720" 
d="M601 453l-14.0039 8c0 10 -2.16699 18 -6.5 24s-23.166 20.667 -56.499 44s-85 35 -155 35c-44.667 0 -83.167 -4.66699 -115.5 -14s-50.166 -30.666 -53.499 -63.999c0 -22.667 8.33301 -38.5 25 -47.5s64 -17.5 142 -25.5s149.5 -23.333 214.5 -46
s97.5 -77.334 97.5 -164.001c0 -74.667 -31.167 -129.167 -93.5 -163.5s-134.166 -51.5 -215.499 -51.5c-44 0 -86.667 4.5 -128 13.5s-74 19.667 -98 32l-47 24.5c-7.33301 4 -14 6 -20 6c-7.33301 0 -15 -3.33301 -23 -10l-14 7l72 163l15 -6c0 -37.333 28 -66 84 -86
s107.333 -30 154 -30c44 0 83.833 6.66699 119.5 20s53.5 37.666 53.5 72.999s-51.833 59 -155.5 71s-182.5 27.667 -236.5 47s-81 70.333 -81 153c0 74.667 29.333 128.667 88 162s128.334 50 209.001 50c37.333 0 75 -4.66699 113 -14s68.667 -19.166 92 -29.499l48 -21
c8.66699 -3.66699 17.334 -6.16699 26.001 -7.5c3.33301 0 7.16602 0.833008 11.499 2.5s8.83301 4.5 13.5 8.5l14 -7z" />
    <glyph glyph-name="T" unicode="T" horiz-adv-x="741" 
d="M443 51c0 -8.66699 1.66699 -15.667 5 -21s12 -10 26 -14v-16h-207v16c10 2.66699 17.667 6.66699 23 12s8 13 8 23v506h-207c-8.66699 0 -15.667 -1.66699 -21 -5s-10 -12 -14 -26h-16v172h16c2.66699 -10 6.66699 -17.667 12 -23s13 -8 23 -8h559
c8.66699 0 15.667 1.66699 21 5s10 12 14 26h16v-172h-16c-2.66699 10 -6.66699 17.667 -12 23s-13 8 -23 8h-207v-506z" />
    <glyph glyph-name="U" unicode="U" horiz-adv-x="802" 
d="M763 651c-21.333 -5.33301 -32.002 -17.334 -32.002 -36.001v-373c0 -98.667 -28.167 -165.667 -84.5 -201s-138.166 -53 -245.499 -53c-106 0 -187.5 17.5 -244.5 52.5s-85.5 102.167 -85.5 201.5v373c0 10 -2.5 17.833 -7.5 23.5s-12.833 9.83398 -23.5 12.501v16h208
v-16c-9.33301 -2.66699 -16.833 -6.83398 -22.5 -12.501s-8.5 -13.5 -8.5 -23.5v-332v-21c0 -26.667 1.83301 -48.5 5.5 -65.5s13.334 -33.5 29.001 -49.5s37 -27.5 64 -34.5s57.5 -10.5 91.5 -10.5c66.667 0 115 11.833 145 35.5s45 67.167 45 130.5v15v332
c0 10 -2.5 17.833 -7.5 23.5s-12.833 9.83398 -23.5 12.501v16h197v-16z" />
    <glyph glyph-name="V" unicode="V" horiz-adv-x="856" 
d="M816 651c-15.333 -2.66699 -25.666 -7.99902 -30.999 -15.999s-14.333 -24.667 -27 -50l-231 -498l-10.5 -24.5c-3 -7 -4.5 -13.167 -4.5 -18.5c0 -7.33301 3.16699 -13.5 9.5 -18.5s13.5 -8.16699 21.5 -9.5v-16h-229v16c8 1.33301 15 4.33301 21 9s9 11 9 19
c0 7.33301 -1.83301 15.166 -5.5 23.499l-8.5 19.5l-231 498l-21 42c-8.66699 12.667 -21.334 20.667 -38.001 24v16h237v-16c-10.667 -2 -18.667 -4.83301 -24 -8.5s-8 -9.83398 -8 -18.501c0 -7.33301 1.5 -14.666 4.5 -21.999s5.16699 -13 6.5 -17l177 -391l176 391
c2.66699 5.33301 5.16699 11 7.5 17s3.5 13.333 3.5 22c0 8 -3 14 -9 18s-13.667 7 -23 9v16h228v-16z" />
    <glyph glyph-name="W" unicode="W" horiz-adv-x="1228" 
d="M462 84l-8.49707 -18.9961c-3 -6.66699 -4.5 -12.667 -4.5 -18c0 -8.66699 3.5 -15.334 10.5 -20.001s15.5 -8.33398 25.5 -11.001v-16h-214v16c9.33301 2 16.666 5 21.999 9s8.66602 10.333 9.99902 19c0 8 -1.66699 16.667 -5 26l-8 22l-191 492
c-8.66699 22.667 -16.5 38.667 -23.5 48s-18.833 15.666 -35.5 18.999v16h231v-16c-8.66699 -2 -16 -5 -22 -9s-9 -10.333 -9 -19c0 -6 0.5 -10.5 1.5 -13.5l6.5 -19.5l132 -353l143 355l6 14.5c2 5 3 10.167 3 15.5c0 8 -3 14.333 -9 19s-13.667 8 -23 10v16h242v-16
c-10 -2.66699 -17.833 -5.83398 -23.5 -9.50098s-8.83398 -9.5 -9.50098 -17.5c0 -5.33301 0.333008 -9.5 1 -12.5s3 -10.167 7 -21.5l135 -354l132 348c4 10 6.66699 17.333 8 22s2 10.667 2 18c0 8 -3.5 14 -10.5 18s-15.5 7 -25.5 9v16h230v-16
c-14 -3.33301 -24.5 -8.33301 -31.5 -15s-15.833 -24 -26.5 -52l-191 -492l-10 -25.5c-2.66699 -7 -4 -13.5 -4 -19.5c0 -9.33301 3.5 -16.5 10.5 -21.5s15.167 -8.16699 24.5 -9.5v-16h-217v16c8.66699 1.33301 16.5 4.5 23.5 9.5s10.5 12.167 10.5 21.5
c0 6.66699 -2 14.667 -6 24l-9 21l-147 378z" />
    <glyph glyph-name="X" unicode="X" horiz-adv-x="826" 
d="M699 86c18.667 -24.667 33.001 -41.8311 43.001 -51.498s24.667 -15.834 44 -18.501v-16h-264v16c5.33301 0.666992 11.5 2.66699 18.5 6s10.5 9.66602 10.5 18.999c0 5.33301 -1.5 10.5 -4.5 15.5s-7.5 10.833 -13.5 17.5l-128 165l-122 -159
c-6.66699 -8.66699 -11.667 -15.5 -15 -20.5s-5 -10.167 -5 -15.5c0 -8.66699 3.16699 -15.5 9.5 -20.5s14.166 -7.5 23.499 -7.5v-16h-256v16c13.333 1.33301 24.333 5.33301 33 12s26 26 52 58l201 254l-185 242c-18 24 -32 41 -42 51s-24.667 16 -44 18l-1 16h268v-16
c-7.33301 -1.33301 -14.166 -4.83301 -20.499 -10.5s-9.5 -12.167 -9.5 -19.5c0 -5.33301 1.16699 -10.166 3.5 -14.499s8.5 -12.5 18.5 -24.5l104 -134l106 134c4.66699 6 9.66699 13 15 21s8 14.667 8 20c0 8 -3.33301 14.333 -10 19s-14.334 7.66699 -23.001 9v16h260
v-16c-17.333 -2 -31.5 -8.33301 -42.5 -19s-25.167 -27.334 -42.5 -50.001l-192 -235z" />
    <glyph glyph-name="Y" unicode="Y" horiz-adv-x="820" 
d="M482 51c0 -9.33301 2.83105 -16.832 8.49805 -22.499s13.834 -9.83398 24.501 -12.501v-16h-210v16c21.333 5.33301 32 17 32 35v228l-215 303c-18 24.667 -31.667 41.834 -41 51.501s-23 15.5 -41 17.5v16h264v-16c-8.66699 -1.33301 -16 -4 -22 -8
s-9.66699 -10 -11 -18c0 -7.33301 2 -14.666 6 -21.999c6.66699 -9.33301 11.334 -16.333 14.001 -21l120 -179l123 179c8.66699 11.333 14.167 19.166 16.5 23.499s3.5 9.5 3.5 15.5c0 8 -3 14.667 -9 20s-13.667 8.66602 -23 9.99902v16h258v-16
c-17.333 -2 -31.5 -8.5 -42.5 -19.5s-24.167 -27.5 -39.5 -49.5l-216 -303v-228z" />
    <glyph glyph-name="Z" unicode="Z" horiz-adv-x="714" 
d="M623 110c18 0 29.667 10.667 35 32h16v-173h-16c-2.66699 10 -6.66699 17.667 -12 23s-13 8 -23 8h-583v35l387 522h-333c-8.66699 0 -15.667 -1.66699 -21 -5s-10 -12 -14 -26h-16v172h16c2.66699 -10 6.66699 -17.667 12 -23s13 -8 23 -8h574v-28l-392 -529h347z" />
    <glyph glyph-name="bracketleft" unicode="[" horiz-adv-x="315" 
d="M212 627c18 0 30.332 10.334 36.999 31.001h13v-131h-13c-3.33301 10.667 -7.66602 18.667 -12.999 24s-13.333 8 -24 8h-53v-571h47c13.333 0 23 2.16699 29 6.5s10.667 12.833 14 25.5h13v-131h-13c-6.66699 20.667 -19 31 -37 31h-191v12
c10 2.66699 17.667 6.66699 23 12s8 12.666 8 21.999v614c0 18 -10.333 29.333 -31 34v13h191z" />
    <glyph glyph-name="backslash" unicode="\" horiz-adv-x="759" 
d="M261 667l-0.000976562 -16c-7.33301 -2 -13.666 -4.83301 -18.999 -8.5s-8.66602 -9.16699 -9.99902 -16.5c0 -8 2.16699 -15.667 6.5 -23s9.16602 -14.333 14.499 -21l385 -496c20 -25.333 34.833 -42.666 44.5 -51.999s24.167 -15.333 43.5 -18v-16h-229v16
c5.33301 0.666992 11.5 2.66699 18.5 6s10.5 9.66602 10.5 18.999c0 5.33301 -1.5 10.5 -4.5 15.5s-7.5 10.833 -13.5 17.5l-392 508c-19.333 25.333 -33.5 42.5 -42.5 51.5s-22.5 14.833 -40.5 17.5v16h228z" />
    <glyph glyph-name="bracketright" unicode="]" horiz-adv-x="315" 
d="M103 -80c-18 0 -30.3311 -10.334 -36.998 -31.001h-13v131h13c3.33301 -10.667 7.66602 -18.667 12.999 -24s13.333 -8 24 -8h53v571h-47c-13.333 0 -23 -2.16699 -29 -6.5s-10.667 -12.833 -14 -25.5h-13v131h13c5.33301 -20.667 17.666 -31 36.999 -31h191v-12
c-10 -2.66699 -17.667 -6.66699 -23 -12s-8 -12.666 -8 -21.999v-614c0 -18 10.333 -29.333 31 -34v-13h-191z" />
    <glyph glyph-name="asciicircum" unicode="^" 
d="M467 278l-159 252l-171 -252h-167l288 422h9l263 -422h-63z" />
    <glyph glyph-name="underscore" unicode="_" 
d="M500 -92v-74h-501v74h501z" />
    <glyph glyph-name="grave" unicode="`" 
d="M303 747v-13c-8.66699 -1.33301 -13 -5 -13 -11c0 -6.66699 3.16699 -18.834 9.5 -36.501l16.5 -46.5c4.66699 -13.333 12.667 -20 24 -20v-13h-98v13c8 0 12 2.66699 12 8c-1.33301 4.66699 -2.33301 7.33398 -3 8.00098l-66 84c-6 7.33301 -14.333 12 -25 14v13h143z
" />
    <glyph glyph-name="a" unicode="a" horiz-adv-x="763" 
d="M244 137l-25.501 -50.0029c-9 -18 -13.5 -33 -13.5 -45c0 -7.33301 3.16699 -13.5 9.5 -18.5s13.5 -8.5 21.5 -10.5v-13h-201v13c12.667 2 22.167 6.5 28.5 13.5s13.166 17.5 20.499 31.5l200 404c2.66699 5.33301 5.16699 11 7.5 17s3.5 13.333 3.5 22
c0 8 -2.5 14.5 -7.5 19.5s-11.833 9.16699 -20.5 12.5v13h213v-13c-7.33301 -2.66699 -13.666 -6.66699 -18.999 -12s-8 -11.333 -8 -18c0 -8 0.833008 -15 2.5 -21s4.83398 -13.333 9.50098 -22l207 -392c6.66699 -12.667 13.5 -24.167 20.5 -34.5
s19.167 -17.166 36.5 -20.499v-13h-223v13c7.33301 1.33301 14.333 3.83301 21 7.5s10 10.834 10 21.501c0 14.667 -4.83301 30.334 -14.5 47.001l-27.5 48h-251zM365.999 388.997l-85 -176h174z" />
    <glyph glyph-name="b" unicode="b" horiz-adv-x="667" 
d="M632 160c0 -54 -20.334 -94.1641 -61.001 -120.497s-89.667 -39.5 -147 -39.5h-389v13c20.667 5.33301 31 17.666 31 36.999v447c0 18.667 -10.333 30.667 -31 36v13h383c55.333 0 102 -10.333 140 -31s57 -56.667 57 -108c0 -26.667 -6.66699 -48.834 -20 -66.501
s-32.666 -33.167 -57.999 -46.5c33.333 -15.333 57.5 -32.833 72.5 -52.5s22.5 -46.834 22.5 -81.501zM395.999 342.003c26.667 0 48 3.16699 64 9.5s24 20.5 24 42.5c0 17.333 -6 30.5 -18 39.5s-35.333 13.5 -70 13.5h-199v-105h199zM400.999 99.0029
c28.667 0 52.167 5.33203 70.5 15.999s27.5 29.334 27.5 56.001s-9 45.167 -27 55.5s-41.667 15.5 -71 15.5h-204v-143h204z" />
    <glyph glyph-name="c" unicode="c" horiz-adv-x="699" 
d="M664 75l-11.001 -8c-6.66699 5.33301 -13 8 -19 8c-42 -22.667 -85.833 -42.834 -131.5 -60.501s-91.167 -26.5 -136.5 -26.5c-93.333 0 -171.833 24.5 -235.5 73.5s-95.5 119.5 -95.5 211.5c0 90.667 31.833 160.834 95.5 210.501s142.167 74.5 235.5 74.5
c49.333 0 96 -9 140 -27l126 -60c7.33301 0 14.333 2.66699 21 8l11 -8l-82 -120l-11 8l2 13c0 22 -24.667 41.333 -74 58s-92 25 -128 25c-53.333 0 -100.166 -17.167 -140.499 -51.5s-60.5 -77.833 -60.5 -130.5s20 -96.167 60 -130.5s87 -51.5 141 -51.5
c52.667 0 94.667 8 126 24s51.833 27.333 61.5 34s14.5 14.667 14.5 24l-2 14l11 8z" />
    <glyph glyph-name="d" unicode="d" horiz-adv-x="689" 
d="M355 546c46.667 0 87.334 -3.99902 122.001 -11.999s66.167 -24.667 94.5 -50s49.166 -56.166 62.499 -92.499s20 -75.833 20 -118.5c0 -92.667 -26.167 -161.334 -78.5 -206.001s-125.833 -67 -220.5 -67h-321v13c20.667 5.33301 31 17.666 31 36.999v447
c0 18.667 -10.333 30.667 -31 36v13h321zM336 99.001c60 0 105.501 14.168 136.501 42.501s46.5 72.166 46.5 131.499c0 58 -15.833 101.5 -47.5 130.5s-76.834 43.5 -135.501 43.5h-140v-348h140z" />
    <glyph glyph-name="e" unicode="e" horiz-adv-x="628" 
d="M197 100h347c18 0 30.333 10.333 37 31h13v-162h-13c-5.33301 20.667 -17.666 31 -36.999 31h-509v14c20.667 5.33301 31 17.333 31 36v447c0 18.667 -10.333 30.667 -31 36v14h494c18 0 30.333 10.333 37 31h13v-162h-13c-6.66699 20.667 -19 31 -37 31h-332v-119h206
c10.667 0 18.667 2.5 24 7.5s9.66602 12.833 12.999 23.5h13v-158h-14c-5.33301 21.333 -17.333 32 -36 32h-206v-133z" />
    <glyph glyph-name="f" unicode="f" horiz-adv-x="609" 
d="M196 50c0 -10 2.50098 -17.832 7.50098 -23.499s12.833 -10.167 23.5 -13.5v-13h-193v13c20.667 5.33301 31 17.666 31 36.999v447c0 18.667 -10.333 30.667 -31 36v13h490c18 0 30.333 10.667 37 32h13v-162h-13c-3.33301 10.667 -7.83301 18.5 -13.5 23.5
s-13.5 7.5 -23.5 7.5h-328v-119h206c18 0 30.333 10.333 37 31h13v-158h-14c-2.66699 9.33301 -6.83398 16.833 -12.501 22.5s-13.5 8.5 -23.5 8.5h-206v-182z" />
    <glyph glyph-name="g" unicode="g" horiz-adv-x="711" 
d="M416 211c-18 0 -30.3311 -10.6719 -36.998 -32.0049h-13v145h13c5.33301 -20.667 17.666 -31 36.999 -31h260v-14c-20.667 -6 -31 -19.333 -31 -40v-116c0 -9.33301 2.66699 -17 8 -23s13 -10.333 23 -13v-12c-50 -27.333 -100.5 -48.666 -151.5 -63.999
s-102.5 -23 -154.5 -23c-45.333 0 -87 4.66699 -125 14s-73.167 26.333 -105.5 51s-57.833 56.834 -76.5 96.501s-28 80.834 -28 123.501c0 86.667 32.833 155.834 98.5 207.501s142.834 77.5 231.501 77.5c36 0 73.833 -5.33301 113.5 -16l120.5 -33
c6.66699 0.666992 12.667 3.33398 18 8.00098l12 -6l-65 -138l-12 6c0 22 -22.5 40.167 -67.5 54.5s-84.5 21.5 -118.5 21.5c-54 0 -100.167 -16.833 -138.5 -50.5s-57.5 -77.167 -57.5 -130.5c0 -58 18.667 -103 56 -135s85.666 -48 144.999 -48
c33.333 0 63.666 2.5 90.999 7.5s53.333 14.5 78 28.5v84h-124z" />
    <glyph glyph-name="h" unicode="h" horiz-adv-x="699" 
d="M197 238v-187.997c0 -10 2.5 -17.833 7.5 -23.5s12.833 -10.167 23.5 -13.5v-13h-193v13c20.667 5.33301 31 17.666 31 36.999v447c0 18.667 -10.333 30.667 -31 36v13h193v-13c-20.667 -6 -31 -18 -31 -36v-160h305v160c0 18.667 -10.333 30.667 -31 36v13h193v-13
c-9.33301 -2.66699 -16.833 -6.83398 -22.5 -12.501s-8.5 -13.5 -8.5 -23.5v-447c0 -10 2.5 -17.833 7.5 -23.5s12.833 -10.167 23.5 -13.5v-13h-193v13c20.667 5.33301 31 17.666 31 36.999v188h-305z" />
    <glyph glyph-name="i" unicode="i" horiz-adv-x="263" 
d="M228 546v-12.999c-20.667 -6 -31 -18 -31 -36v-447c0 -10 2.5 -17.833 7.5 -23.5s12.833 -10.167 23.5 -13.5v-13h-193v13c20.667 5.33301 31 17.666 31 36.999v447c0 18.667 -10.333 30.667 -31 36v13h193z" />
    <glyph glyph-name="j" unicode="j" horiz-adv-x="535" 
d="M83 163l13 -4.00098c0 -23.333 15.833 -40.5 47.5 -51.5s61.834 -16.5 90.501 -16.5c34 0 59.833 7.5 77.5 22.5s26.5 39.5 26.5 73.5v309c0 10 -2.5 17.833 -7.5 23.5s-12.833 10.167 -23.5 13.5v13h193v-13c-20.667 -5.33301 -31 -17.666 -31 -36.999v-311
c0 -72.667 -18.333 -123.667 -55 -153s-93.334 -44 -170.001 -44c-24 0 -51 3.66699 -81 11s-61 15.333 -93 24c-4 0 -7.83301 -1.16699 -11.5 -3.5s-7.16699 -5.5 -10.5 -9.5l-13 4z" />
    <glyph glyph-name="k" unicode="k" horiz-adv-x="698" 
d="M197 186l0.00195312 -135.998c0 -10 2.5 -17.833 7.5 -23.5s12.833 -10.167 23.5 -13.5v-13h-193v13c20.667 5.33301 31 17.666 31 36.999v447c0 18.667 -10.333 30.667 -31 36v13h193v-13c-20.667 -6 -31 -18 -31 -36v-179l206 164c7.33301 6 13 11.167 17 15.5
s6 9.5 6 15.5c0 4.66699 -2.16699 8.66699 -6.5 12s-11.833 6 -22.5 8v13h246v-13c-18 -2.66699 -38.333 -13.667 -61 -33l-31 -29l-185 -147l203 -233c19.333 -24.667 36.666 -42.834 51.999 -54.501s29.666 -19.5 42.999 -23.5v-13h-239v13
c8.66699 2.66699 15.334 5.16699 20.001 7.5s7 6.5 7 12.5c-2 7.33301 -6.33301 14.333 -13 21s-11.334 11.667 -14.001 15l-150 181z" />
    <glyph glyph-name="l" unicode="l" horiz-adv-x="587" 
d="M503 100c18 0 30.332 10.334 36.999 31.001h13v-162h-13c-5.33301 20.667 -17.666 31 -36.999 31h-468v14c20.667 5.33301 31 17.333 31 36v447c0 18.667 -10.333 30.667 -31 36v14h193v-14c-9.33301 -2.66699 -16.833 -6.83398 -22.5 -12.501s-8.5 -13.5 -8.5 -23.5
v-397h306z" />
    <glyph glyph-name="m" unicode="m" horiz-adv-x="792" 
d="M184 359v-308.998c0 -18 10.667 -30.333 32 -37v-13h-182v13c20.667 5.33301 31 17.666 31 36.999v447c0 18.667 -10.333 30.667 -31 36v13h231v-13c-7.33301 -2.66699 -13 -6 -17 -10s-6 -9.66699 -6 -17c0 -8 1.66699 -16.333 5 -25s7.33301 -16.667 12 -24l136 -230
l137 226l16 27.5c4 7 6.33301 14.5 7 22.5c0 16 -7.66699 26 -23 30v13h225v-13c-21.333 -5.33301 -32 -17.333 -32 -36v-447c0 -18 10.667 -30.333 32 -37v-13h-194v13c10.667 3.33301 18.667 7.66602 24 12.999s8 13.333 8 24v309l-211 -342z" />
    <glyph glyph-name="n" unicode="n" horiz-adv-x="717" 
d="M185 50c0 -18 10.667 -30.333 32 -37v-13h-182v13c20.667 5.33301 31 17.666 31 36.999v447c0 18.667 -10.333 30.667 -31 36v13h210v-13c-7.33301 -1.33301 -12.833 -3.33301 -16.5 -6s-5.5 -7 -5.5 -13c0 -5.33301 1 -9.5 3 -12.5s6.33301 -8.16699 13 -15.5l293 -290
v301c0 18.667 -10.333 30.667 -31 36v13h182v-13c-21.333 -5.33301 -32 -17.333 -32 -36v-447c0 -18 10.667 -30.333 32 -37v-13h-196v13c4.66699 0.666992 9.33398 2.16699 14.001 4.5s7 6.5 7 12.5c0 9.33301 -4.83301 18.333 -14.5 27s-15.834 14.334 -18.501 17.001
l-290 286v-310z" />
    <glyph glyph-name="o" unicode="o" horiz-adv-x="711" 
d="M356 -12c-90.667 0 -166.834 25.332 -228.501 75.999s-92.5 120.334 -92.5 209.001s30.833 158.334 92.5 209.001s137.834 76 228.501 76c90 0 165.833 -25.333 227.5 -76s92.5 -120.334 92.5 -209.001c0 -88 -31 -157.5 -93 -208.5s-137.667 -76.5 -227 -76.5z
M356 454.999c-53.333 0 -97.668 -17 -133.001 -51s-53 -77.667 -53 -131s17.667 -97 53 -131s79.666 -51 132.999 -51c52.667 0 96.834 17.167 132.501 51.5s53.5 77.833 53.5 130.5c0 53.333 -17.667 97 -53 131s-79.666 51 -132.999 51z" />
    <glyph glyph-name="p" unicode="p" horiz-adv-x="652" 
d="M197 50c0 -10 2.5 -17.832 7.5 -23.499s12.833 -10.167 23.5 -13.5v-13h-193v13c20.667 5.33301 31 17.666 31 36.999v447c0 18.667 -10.333 30.667 -31 36v13h356c67.333 0 122 -11.333 164 -34s63 -65 63 -127c0 -59.333 -21.667 -101 -65 -125s-97.333 -36 -162 -36
h-194v-174zM384 324.001c30.667 0 54.833 3.5 72.5 10.5s26.5 23.833 26.5 50.5s-9 43.667 -27 51s-42 11 -72 11h-187v-123h187z" />
    <glyph glyph-name="q" unicode="q" horiz-adv-x="736" 
d="M674 0c4 0 9.99902 2.66602 17.999 7.99902l9 -9l-118 -109l-9 10c6 7.33301 9 13.666 9 18.999c0 6.66699 -9 20 -27 40l-51 57c-21.333 -9.33301 -45.333 -16.333 -72 -21s-52.334 -7 -77.001 -7c-90.667 0 -166.834 25.333 -228.501 76s-92.5 120.334 -92.5 209.001
s30.833 158.334 92.5 209.001s137.834 76 228.501 76c90 0 165.833 -25.333 227.5 -76s92.5 -120.334 92.5 -209.001c0 -38 -7.16699 -74.667 -21.5 -110s-35.166 -65.666 -62.499 -90.999l44 -46.5c16.667 -17 29.334 -25.5 38.001 -25.5zM541.999 272.999
c0 53.333 -17.6689 97.002 -53.002 131.002s-79.666 51 -132.999 51s-97.666 -17 -132.999 -51s-53 -77.667 -53 -131c0 -52.667 17.667 -96 53 -130s79.666 -51 132.999 -51c23.333 0 48 4.33301 74 13c-14.667 19.333 -31 36.166 -49 50.499s-37.333 24.166 -58 29.499v9
c10 6.66699 20.167 12 30.5 16s21.5 6 33.5 6c25.333 0 45.333 -4.5 60 -13.5s34.334 -22.833 59.001 -41.5c24 32 36 69.333 36 112z" />
    <glyph glyph-name="r" unicode="r" horiz-adv-x="692" 
d="M197 50c0 -10 2.50098 -17.8311 7.50098 -23.498s12.833 -10.167 23.5 -13.5v-13h-193v13c20.667 5.33301 31 17.666 31 36.999v447c0 18.667 -10.333 30.667 -31 36v13h358c71.333 0 127.666 -10.5 168.999 -31.5s62 -63.833 62 -128.5c0 -45.333 -13.5 -80 -40.5 -104
s-64.833 -41.333 -113.5 -52l104 -144c16.667 -22.667 30.5 -39.834 41.5 -51.501s24.833 -18.834 41.5 -21.501v-13h-229v13c10 2.66699 16.667 5.5 20 8.5s5 6.83301 5 11.5c0 6.66699 -1 12.334 -3 17.001s-6 10.667 -12 18l-110 156h-131v-174zM394.001 324.002
c30 0 54.167 3.83301 72.5 11.5s27.5 24.167 27.5 49.5c0 26.667 -9 43.667 -27 51s-42.333 11 -73 11h-197v-123h197z" />
    <glyph glyph-name="s" unicode="s" horiz-adv-x="622" 
d="M511 370l-11.9971 6.00098c0 24.667 -23.667 44.667 -71 60s-88.333 23 -123 23c-32.667 0 -64.167 -4.5 -94.5 -13.5s-47.166 -25.833 -50.499 -50.5c0 -28 45.667 -47 137 -57s162.5 -23.667 213.5 -41s76.5 -61.333 76.5 -132
c0 -60.667 -27.333 -105.334 -82 -134.001s-115.334 -43 -182.001 -43c-41.333 0 -81.5 3.66699 -120.5 11s-76.5 19.333 -112.5 36c-8 2.66699 -15.667 5.66699 -23 9c-6.66699 0 -13.334 -4 -20.001 -12l-12 5l56 134l13 -5c0 -27.333 25.5 -47.333 76.5 -60
s96.5 -19 136.5 -19c34 0 66.333 4.66699 97 14s46 27 46 53c0 30 -45.5 49 -136.5 57s-160.167 19.833 -207.5 35.5s-71 60.167 -71 133.5c0 60.667 25.667 105.5 77 134.5s110 43.5 176 43.5c39.333 0 80.666 -6.66699 123.999 -20l122 -45c4 0 7.66699 1 11 3
s6.66602 4.33301 9.99902 7l12 -6z" />
    <glyph glyph-name="t" unicode="t" horiz-adv-x="622" 
d="M377 50c0 -18 10.334 -30.333 31.001 -37v-13h-193v13c20.667 6 31 18.333 31 37v397h-161c-18 0 -30.333 -10.333 -37 -31h-13v162h13c3.33301 -10.667 7.66602 -18.667 12.999 -24s13.333 -8 24 -8h453c18.667 0 30.667 10.667 36 32h14v-162h-14
c-5.33301 20.667 -17.333 31 -36 31h-161v-397z" />
    <glyph glyph-name="u" unicode="u" horiz-adv-x="685" 
d="M650 533c-10.667 -3.33301 -18.666 -7.66797 -23.999 -13.001s-8 -13.333 -8 -24v-289c0 -84 -23.333 -141.5 -70 -172.5s-115.334 -46.5 -206.001 -46.5c-90 0 -158.667 15.333 -206 46s-71 88.334 -71 173.001v289c0 18 -10.333 30.333 -31 37v13h194v-13
c-20.667 -6.66699 -31 -19 -31 -37v-263c0 -52.667 11.5 -89.5 34.5 -110.5s61.833 -31.5 116.5 -31.5c54 0 92.667 10.667 116 32s35 58 35 110v263c0 10 -2.5 17.833 -7.5 23.5s-12.833 10.167 -23.5 13.5l-1 13h183v-13z" />
    <glyph glyph-name="v" unicode="v" horiz-adv-x="725" 
d="M690 533c-12.667 -4 -22.4971 -10.0039 -29.4971 -18.0039s-14.167 -20 -21.5 -36l-191 -402l-6.5 -16.5c-1.66699 -4.33301 -2.83398 -8.83301 -3.50098 -13.5c0 -19.333 10.667 -30.666 32 -33.999v-13h-215v13c9.33301 2 17.166 5.5 23.499 10.5s9.5 11.833 9.5 20.5
c0 7.33301 -3.66699 18.333 -11 33l-191 402c-8 16.667 -15 28.834 -21 36.501s-16 13.5 -30 17.5v13h219v-13c-8.66699 -2.66699 -15.834 -6 -21.501 -10s-8.83398 -10.333 -9.50098 -19c0 -8 0.833008 -15 2.5 -21s4.83398 -13 9.50098 -21l132 -289l132 289
c3.33301 6.66699 6 13 8 19s3 12 3 18c0 8.66699 -2.83301 15.834 -8.5 21.501s-13.167 9.83398 -22.5 12.501v13h211v-13z" />
    <glyph glyph-name="w" unicode="w" horiz-adv-x="1045" 
d="M402 83c-2 -4.66699 -4.00098 -10.6719 -6.00098 -18.0049s-3 -13.666 -3 -18.999c0 -8.66699 3 -16 9 -22s13.667 -9.66699 23 -11v-13h-204v13c8 2 14.833 5.33301 20.5 10s8.83398 11 9.50098 19c0 8.66699 -0.5 15.167 -1.5 19.5s-3.5 11.5 -7.5 21.5l-145 372
c-8.66699 24 -16.834 41.833 -24.501 53.5s-20.167 19.834 -37.5 24.501v13h208v-13c-9.33301 -3.33301 -16.666 -7.16602 -21.999 -11.499s-8 -10.5 -8 -18.5c0 -6 0.666992 -11.5 2 -16.5s4 -11.5 8 -19.5l102 -258l102 256c2 4.66699 4 10.5 6 17.5s3 12.833 3 17.5
c0 8.66699 -3.16699 15.834 -9.5 21.501s-13.833 9.5 -22.5 11.5v13h243v-13c-8.66699 -3.33301 -16 -7.16602 -22 -11.499s-9.33301 -10.5 -10 -18.5c0 -11.333 2.66699 -23.333 8 -36l100 -258l99 261c4.66699 10.667 7 20.334 7 29.001
c0 9.33301 -2.83301 16.666 -8.5 21.999s-13.5 9.33301 -23.5 12v13h213v-13c-17.333 -6.66699 -29.833 -15.5 -37.5 -26.5s-15.834 -28.167 -24.501 -51.5l-147 -372c-1.33301 -4 -3 -9.83301 -5 -17.5s-3 -13.5 -3 -17.5c0 -10 2.83301 -17.833 8.5 -23.5
s13.834 -9.5 24.501 -11.5v-13h-212v13c12 3.33301 20.333 8.5 25 15.5s7 14.167 7 21.5l-2 10l-9 23l-114 297z" />
    <glyph glyph-name="x" unicode="x" horiz-adv-x="699" 
d="M584 69c12.667 -17.333 25.002 -30.5 37.002 -39.5s26.667 -14.5 44 -16.5v-13h-252v13c8 2 15 4.66699 21 8s9.33301 8.33301 10 15c0 6 -1.5 11.667 -4.5 17s-7.16699 11 -12.5 17l-88 117l-90 -117c-4 -5.33301 -7.16699 -10.333 -9.5 -15s-3.5 -9.66699 -3.5 -15
c0 -6 3.33301 -11.333 10 -16s14 -8.33398 22 -11.001v-13h-233v13c16.667 4 29.167 9.5 37.5 16.5s20.166 20.167 35.499 39.5l162 208l-142 189c-15.333 20 -28.5 35.167 -39.5 45.5s-24.5 17.5 -40.5 21.5v13h250v-13c-8.66699 -2.66699 -16.167 -6.16699 -22.5 -10.5
s-9.5 -10.166 -9.5 -17.499c0 -6 1.16699 -11.333 3.5 -16s6.16602 -10.667 11.499 -18l74 -99l69 93c8.66699 11.333 14.167 19.166 16.5 23.499s3.5 9.83301 3.5 16.5c0 7.33301 -3.33301 13.333 -10 18s-14 8 -22 10l-1 13h239v-13
c-18 -3.33301 -32.167 -9.66602 -42.5 -18.999s-23.833 -25.333 -40.5 -48l-144 -183z" />
    <glyph glyph-name="y" unicode="y" horiz-adv-x="689" 
d="M409 50c0 -18 10.6641 -30.3311 31.9971 -36.998v-13h-194v13c10.667 3.33301 18.667 7.66602 24 12.999s8 13.333 8 24v190l-162 223c-15.333 20.667 -28.666 36.667 -39.999 48s-25.666 18.666 -42.999 21.999v13h246v-13
c-10.667 -2.66699 -18.5 -5.83398 -23.5 -9.50098s-7.5 -9.5 -7.5 -17.5c0 -8.66699 1.5 -15.5 4.5 -20.5s9.16699 -13.5 18.5 -25.5l79 -110l77 110c6 8 11.333 15.667 16 23s7 14 7 20c0 8 -3 14.333 -9 19s-13.333 8.33398 -22 11.001v13h234v-13
c-17.333 -3.33301 -31.666 -10.5 -42.999 -21.5s-24.333 -27.167 -39 -48.5l-163 -223v-190z" />
    <glyph glyph-name="z" unicode="z" horiz-adv-x="609" 
d="M525 100c18.667 0 30.667 10.333 36 31h13v-162h-13c-5.33301 20.667 -17.333 31 -36 31h-490v30l319 417h-265c-18 0 -30.333 -10.333 -37 -31h-13v162h13c3.33301 -10.667 7.83301 -18.5 13.5 -23.5s13.5 -7.5 23.5 -7.5h481v-24l-322 -423h277z" />
    <glyph glyph-name="braceleft" unicode="{" 
d="M104 293c29.333 0 49.668 6.00488 61.001 18.0049s17 33.333 17 64l-2 112c0 76 9.33301 128 28 156s62 42 130 42l63 1v-26c-40.667 0 -68.834 -8.16699 -84.501 -24.5s-23.5 -48.833 -23.5 -97.5v-134c0 -37.333 -7.5 -65.333 -22.5 -84s-41.833 -31.334 -80.5 -38.001
c36 -6.66699 62 -20.334 78 -41.001s24 -49.334 24 -86.001v-171c0 -40.667 8 -69.334 24 -86.001s44.333 -25 85 -25v-26h-16c-72 0 -124.5 7.33301 -157.5 22s-49.5 53.667 -49.5 117l3 207c0 27.333 -6.33301 46.666 -19 57.999s-32 17 -58 17v25z" />
    <glyph glyph-name="bar" unicode="|" 
d="M300 666v-833h-99v833h99z" />
    <glyph glyph-name="braceright" unicode="}" 
d="M396 268c-51.333 0 -77.001 -24.666 -77.001 -73.999l3 -208c0 -52.667 -12.667 -88.834 -38 -108.501s-65 -29.5 -119 -29.5l-66 -1v26c40.667 0 69 8.33301 85 25s24 45.334 24 86.001l1 181c0 66 33.667 104 101 114c-32 7.33301 -57 18.666 -75 33.999
s-27 37.666 -27 66.999l-1 170c0 40.667 -8.16699 69.167 -24.5 85.5s-44.166 24.5 -83.499 24.5v26l19 -1c82.667 0 137 -10.167 163 -30.5s39 -72.5 39 -156.5l-2 -118c0 -31.333 5.5 -53.666 16.5 -66.999s31.5 -20 61.5 -20v-25z" />
    <glyph glyph-name="asciitilde" unicode="~" horiz-adv-x="667" 
d="M530 720c-15.333 -31.333 -33.998 -57.668 -55.998 -79.001s-47.667 -32 -77 -32c-18 0 -46 6.66699 -84 20s-64 20 -78 20c-12.667 0 -23.334 -2.33301 -32.001 -7s-23.667 -17.667 -45 -39l-22 14c18.667 34.667 37.667 61.834 57 81.501s43 29.5 71 29.5
c17.333 0 44.833 -6.5 82.5 -19.5s64.167 -19.5 79.5 -19.5c16 0 30.667 4 44 12s25.666 18.667 36.999 32z" />
    <glyph glyph-name="asciitilde" unicode="&#x2dc;" horiz-adv-x="667" 
d="M530 720c-15.333 -31.333 -33.998 -57.668 -55.998 -79.001s-47.667 -32 -77 -32c-18 0 -46 6.66699 -84 20s-64 20 -78 20c-12.667 0 -23.334 -2.33301 -32.001 -7s-23.667 -17.667 -45 -39l-22 14c18.667 34.667 37.667 61.834 57 81.501s43 29.5 71 29.5
c17.333 0 44.833 -6.5 82.5 -19.5s64.167 -19.5 79.5 -19.5c16 0 30.667 4 44 12s25.666 18.667 36.999 32z" />
    <glyph glyph-name="nonbreakingspace" unicode="&#xa0;" horiz-adv-x="250" 
 />
    <glyph glyph-name="exclamdown" unicode="&#xa1;" horiz-adv-x="271" 
d="M132 675c22 0 40.666 -7.66699 55.999 -23s23 -34 23 -56c0 -21.333 -7.66699 -39.666 -23 -54.999s-34 -23 -56 -23c-21.333 0 -39.666 7.66699 -54.999 23s-23 33.666 -23 54.999s7.5 39.833 22.5 55.5s33.5 23.5 55.5 23.5zM198.999 432v-15l-6 -2
c-16 -4.66699 -24 -16 -24 -34l1 -22l36 -300c2 -16 4.33301 -26.5 7 -31.5s11 -8.83301 25 -11.5v-16h-205v16c12.667 2 20.667 5.83301 24 11.5s6 16.167 8 31.5l36 300l1 22c0 10.667 -2.5 18.5 -7.5 23.5s-12.833 9.16699 -23.5 12.5v15h128z" />
    <glyph glyph-name="cent" unicode="&#xa2;" horiz-adv-x="712" 
d="M41 273c0 82 27.8369 149.831 83.5039 203.498s123.5 80.5 203.5 80.5v26c0 10 -2.5 17.833 -7.5 23.5s-12.833 9.83398 -23.5 12.501v14h133v-14c-20.667 -5.33301 -31 -17.333 -31 -36v-26c41.333 0 81.666 -8.33301 120.999 -25l118 -61
c7.33301 0 14.333 2.66699 21 8l11 -8l-82 -120l-11 8l2 13c0 20 -22.833 38.833 -68.5 56.5s-82.834 26.5 -111.501 26.5v-363c14.667 0 29.667 1.66699 45 5s33 8.83301 53 16.5s38.667 16.334 56 26.001s26 21.167 26 34.5l-2 14l11 8l82 -120l-11 -9
c-6.66699 5.33301 -12.334 8 -17.001 8c-42 -22 -85.333 -41.833 -130 -59.5s-82.334 -26.5 -113.001 -26.5v-28c0 -18 10.333 -30.333 31 -37v-13h-133v13c10.667 3.33301 18.5 7.83301 23.5 13.5s7.5 13.5 7.5 23.5v29c-80.667 0 -148.667 26.667 -204 80s-83 121 -83 203
zM328.004 448.998c-44 -10.667 -80.333 -31.499 -109 -62.499s-43 -68.833 -43 -113.5s14 -82.334 42 -113.001s64.667 -51.667 110 -63v352z" />
    <glyph glyph-name="sterling" unicode="&#xa3;" horiz-adv-x="748" 
d="M114 475c0 68 26.001 118.994 78.001 152.994s114 51 186 51c58 0 107 -9.66699 147 -29l120 -72c5.33301 0 10.666 1.66699 15.999 5l10 -12l-143 -103l-9 13c6 4 9 9.33301 9 16s-3 13.167 -9 19.5s-15 13.833 -27 22.5s-28 15.167 -48 19.5s-41.333 6.5 -64 6.5
c-34 0 -62.833 -8.33301 -86.5 -25s-35.5 -41.334 -35.5 -74.001c0 -10.667 0.833008 -24.667 2.5 -42s2.5 -27.666 2.5 -30.999h111c18 0 29.667 10.667 35 32h16v-158h-16c-2.66699 10 -6.66699 17.667 -12 23s-13 8 -23 8h-101l1 -5l2 -72c0 -16.667 -3 -31.667 -9 -45
s-20.667 -32.666 -44 -57.999c12.667 4 27 7.5 43 10.5s30.333 4.5 43 4.5c19.333 0 49.333 -4.5 90 -13.5s68 -13.5 82 -13.5c20.667 0 40.167 3.66699 58.5 11s27.5 19 27.5 35c0 8.66699 -3.33301 15.334 -10 20.001l11 12l140 -108l-9 -12c-8 4 -14 6 -18 6
c-36 -21.333 -69.5 -40.166 -100.5 -56.499s-63.167 -24.5 -96.5 -24.5c-22.667 0 -60.167 5.33301 -112.5 16s-88.5 16 -108.5 16c-31.333 0 -61.833 -3.16699 -91.5 -9.5s-57.834 -16.166 -84.501 -29.499l-47 106c32.667 16.667 56.834 36.334 72.501 59.001
s23.5 51.334 23.5 86.001l-2 65h-40c-10 0 -17.667 -2.5 -23 -7.5s-9.33301 -12.833 -12 -23.5h-16v158h16c5.33301 -21.333 17 -32 35 -32h28c-0.666992 6 -2.16699 18.5 -4.5 37.5s-3.5 33.833 -3.5 44.5z" />
    <glyph glyph-name="currency" unicode="&#xa4;" horiz-adv-x="667" 
d="M130 189c-15.333 27.333 -26.832 52.666 -34.499 75.999s-11.5 49.666 -11.5 78.999c0 20 2.66699 40.833 8 62.5s17.666 50.834 36.999 87.501l-97 98l50 49l98 -98c21.333 14.667 45.333 26 72 34s53.667 12 81 12c26 0 51 -4 75 -12s49 -19.667 75 -35l101 101l50 -50
l-102 -103c14 -24.667 24.833 -49.667 32.5 -75s11.5 -51.666 11.5 -78.999c0 -24 -4 -47.667 -12 -71s-19 -47 -33 -71l101 -102l-50 -50l-98 99c-26 -15.333 -51.167 -27 -75.5 -35s-49.833 -12 -76.5 -12s-52 3.83301 -76 11.5s-49 19.167 -75 34.5l-98 -98l-50 50z
M333.001 479c-38 0 -70.667 -13.3311 -98 -39.998s-41 -59.334 -41 -98.001c0 -38 13.667 -70.333 41 -97s60 -40 98 -40c37.333 0 69.5 13.5 96.5 40.5s40.5 59.167 40.5 96.5s-13.333 69.666 -40 96.999s-59 41 -97 41z" />
    <glyph glyph-name="yen" unicode="&#xa5;" horiz-adv-x="820" 
d="M689 249l-0.00195312 -41h-207v-112v-28c0 -16.667 1.83301 -28.5 5.5 -35.5s12.834 -12.5 27.501 -16.5v-16h-210v16c14 4 22.833 9.33301 26.5 16s5.5 17.667 5.5 33v31v112h-204v41h204v30l-51 71h-175v40h147l-140 197c-14 20 -25.167 34.5 -33.5 43.5
s-23.166 15.833 -44.499 20.5v16h264v-15c-22 -8 -33 -17.333 -33 -28c0 -8 5.66699 -20.667 17 -38l123 -182l126 181c10.667 17.333 16 30.333 16 39c0 13.333 -10.333 22.333 -31 27v16h258v-16c-17.333 -2 -31 -7.66699 -41 -17s-23.333 -26.333 -40 -51l-138 -193h106
v-40h-135l-50 -71v-30h207z" />
    <glyph glyph-name="brokenbar" unicode="&#xa6;" 
d="M300 666v-353h-99v353h99zM300 153v-320h-99v320h99z" />
    <glyph glyph-name="section" unicode="&#xa7;" horiz-adv-x="647" 
d="M613 106c0 -68 -26.3311 -115.999 -78.998 -143.999s-116.334 -42 -191.001 -42c-53.333 0 -96.5 5.33301 -129.5 16s-80.5 31.667 -142.5 63c-4.66699 0 -8.33398 -0.5 -11.001 -1.5s-7.66699 -4.16699 -15 -9.5l-10 6l85 130l11 -7
c-0.666992 -2.66699 -1.66699 -5.66699 -3 -9s-2 -6 -2 -8c0 -8.66699 3.16699 -16 9.5 -22s15.5 -12.333 27.5 -19c24 -15.333 50.5 -26.333 79.5 -33s60.167 -10 93.5 -10c41.333 0 80.166 6 116.499 18s54.5 34 54.5 66c0 29.333 -48.833 50 -146.5 62
s-170.5 25.667 -218.5 41s-72 55.333 -72 120c0 28 7.16699 52.667 21.5 74s34.166 39.333 59.499 54c-27.333 13.333 -47.666 29.333 -60.999 48s-20 41.667 -20 69c0 66 25.167 112.333 75.5 139s111.833 40 184.5 40c29.333 0 58.166 -3 86.499 -9s52.333 -12.5 72 -19.5
l40 -14c7 -2.33301 13.167 -3.83301 18.5 -4.5c4.66699 0 12 4.33301 22 13l11 -5l-67 -136l-11 5l3 17c0 14 -21.5 27 -64.5 39s-78.833 18 -107.5 18c-56 0 -97 -5.66699 -123 -17s-39 -28.666 -39 -51.999c0 -24.667 46.167 -42.334 138.5 -53.001s166 -25.5 221 -44.5
s82.5 -62.5 82.5 -130.5c0 -28.667 -5.66699 -54.5 -17 -77.5s-28.666 -40.833 -51.999 -53.5c24.667 -18 42.334 -35.333 53.001 -52s16 -38.334 16 -65.001zM506.002 340.001c0 26 -9.33301 42.668 -28 50.001s-47.667 13.666 -87 18.999l-128 14
c-26 -9.33301 -47.833 -20.833 -65.5 -34.5s-26.5 -31.5 -26.5 -53.5c0 -22.667 19 -38 57 -46c24.667 -4 41 -6.33301 49 -7l141 -21c30.667 12 53 23 67 33s21 25.333 21 46z" />
    <glyph glyph-name="dieresis" unicode="&#xa8;" 
d="M76 653c0 19.333 6.83301 35.833 20.5 49.5s30.167 20.5 49.5 20.5s35.833 -6.83301 49.5 -20.5s20.5 -30.167 20.5 -49.5s-6.83301 -35.833 -20.5 -49.5s-30.167 -20.5 -49.5 -20.5s-35.833 6.83301 -49.5 20.5s-20.5 30.167 -20.5 49.5zM283 653
c0 19.333 6.83301 35.833 20.5 49.5s30.167 20.5 49.5 20.5s35.833 -6.83301 49.5 -20.5s20.5 -30.167 20.5 -49.5s-6.83301 -35.833 -20.5 -49.5s-30.167 -20.5 -49.5 -20.5s-35.833 6.83301 -49.5 20.5s-20.5 30.167 -20.5 49.5z" />
    <glyph glyph-name="copyright" unicode="&#xa9;" horiz-adv-x="804" 
d="M548 402l-18 0.000976562c-8 25.333 -21.167 46.5 -39.5 63.5s-39.5 25.5 -63.5 25.5c-35.333 0 -61 -16.333 -77 -49s-24 -68.667 -24 -108c0 -42.667 7.16699 -79.167 21.5 -109.5s39.833 -45.5 76.5 -45.5c25.333 0 48.666 8.16699 69.999 24.5
s40.333 37.166 57 62.499v-46c-18.667 -22.667 -40.667 -40.667 -66 -54s-52 -20 -80 -20c-54 0 -99 16.667 -135 50s-54 77 -54 131c0 56 17.667 102.333 53 139s81 55 137 55c14.667 0 30.5 -2.5 47.5 -7.5l53.5 -15.5c4.66699 0 8.33398 1 11.001 3
s6.66699 8.66699 12 20l18 2v-121zM55 334.001c0 94.667 34 176 102 244s149.667 102 245 102s176.833 -33.833 244.5 -101.5s101.5 -149.167 101.5 -244.5s-33.667 -177 -101 -245s-149 -102 -245 -102c-95.333 0 -177 34 -245 102s-102 149.667 -102 245zM707 334.001
c0 83.333 -30 155 -90 215s-131.667 90 -215 90s-155 -30 -215 -90s-90 -131.667 -90 -215c0 -84 29.833 -155.833 89.5 -215.5s131.5 -89.5 215.5 -89.5c83.333 0 155 29.667 215 89s90 131.333 90 216z" />
    <glyph glyph-name="ordfeminine" unicode="&#xaa;" horiz-adv-x="337" 
d="M312 436c-6.66699 -12.667 -15.832 -22.832 -27.499 -30.499s-24.167 -11.5 -37.5 -11.5c-27.333 0 -45.333 14.333 -54 43c-17.333 -14 -33 -24.667 -47 -32s-29.667 -11 -47 -11c-16.667 0 -31.167 5.5 -43.5 16.5s-18.5 24.833 -18.5 41.5
c0 29.333 15.667 52.5 47 69.5s67.666 30.5 108.999 40.5v44c0 28 -13.333 42 -40 42c-8 0 -17 -2 -27 -6s-15 -9.33301 -15 -16c0 -3.33301 2.33301 -8.33301 7 -15s7 -12.334 7 -17.001c0 -10 -4.16699 -18.333 -12.5 -25s-17.5 -10 -27.5 -10
c-11.333 0 -21 3.66699 -29 11s-12 17 -12 29c0 23.333 13.5 41.333 40.5 54s53.5 19 79.5 19c33.333 0 59.333 -5.5 78 -16.5s28 -32.167 28 -63.5v-134v-12c0 -12.667 3 -19 9 -19c4.66699 0 9 2.33301 13 7s6.66699 8 8 10zM116.002 468.002c0 -19.333 8 -30 24 -32
c10.667 0 19.167 1.66699 25.5 5s15.5 10.333 27.5 21v76c-19.333 -5.33301 -37 -14 -53 -26s-24 -26.667 -24 -44zM319.002 292.002h-292v42h292v-42z" />
    <glyph glyph-name="guillemotleft" unicode="&#xab;" horiz-adv-x="319" 
d="M234 87l-95 197l95 196h84l-96 -196l96 -197h-84zM94 87l-95 197l95 196h84l-96 -196l96 -197h-84z" />
    <glyph glyph-name="logicalnot" unicode="&#xac;" 
d="M310 198h-280v69h440v-267h-160v198z" />
    <glyph glyph-name="registered" unicode="&#xae;" horiz-adv-x="804" 
d="M403 325l-38.998 0.000976562v-116c0 -13.333 2.16699 -23 6.5 -29s13.166 -9 26.499 -9h17v-19h-196v19c18.667 0 31.334 2.16699 38.001 6.5s10 14.833 10 31.5v249c0 14.667 -1.83301 24.667 -5.5 30s-12.834 8 -27.501 8h-17v20h201
c41.333 0 76.166 -7.16699 104.499 -21.5s42.5 -40.5 42.5 -78.5c0 -23.333 -5.66699 -41.833 -17 -55.5s-28.666 -25.834 -51.999 -36.501l76 -129c9.33301 -16 23.666 -24 42.999 -24v-19h-112zM466.002 416.001c0 31.333 -8.33203 51.167 -24.999 59.5
s-42.334 12.5 -77.001 12.5v-145c36 0 62 4.16699 78 12.5s24 28.5 24 60.5zM55.0029 334.002c0 94.667 34 176 102 244s149.667 102 245 102s176.833 -33.833 244.5 -101.5s101.5 -149.167 101.5 -244.5s-33.667 -177 -101 -245s-149 -102 -245 -102
c-95.333 0 -177 34 -245 102s-102 149.667 -102 245zM707.003 334.002c0 83.333 -30 155 -90 215s-131.667 90 -215 90s-155 -30 -215 -90s-90 -131.667 -90 -215c0 -84 29.833 -155.833 89.5 -215.5s131.5 -89.5 215.5 -89.5c83.333 0 155 29.667 215 89s90 131.333 90 216
z" />
    <glyph glyph-name="degree" unicode="&#xb0;" horiz-adv-x="446" 
d="M335 537c0 -28.667 -9.99902 -53.332 -29.999 -73.999s-44.667 -31 -74 -31c-30 0 -55.667 10.667 -77 32s-32 47 -32 77s11.667 54.667 35 74s50.666 29 81.999 29c28 -2.66699 51 -14.334 69 -35.001s27 -44.667 27 -72zM231.001 486.002
c14 0 25.833 5.16699 35.5 15.5s14.5 22.166 14.5 35.499c0 14 -4.66699 26.667 -14 38s-21.333 17 -36 17c-16.667 0 -30 -6 -40 -18s-15 -26.333 -15 -43c1.33301 -13.333 7.33301 -24.166 18 -32.499s23 -12.5 37 -12.5z" />
    <glyph glyph-name="plusminus" unicode="&#xb1;" 
d="M211 401v200h77v-200h203v-74h-203v-193h-77v193h-202v74h202zM492 93v-74h-483v74h483z" />
    <glyph glyph-name="twosuperior" unicode="&#xb2;" horiz-adv-x="459" 
d="M395 344c9.33301 0 15.666 6.00098 18.999 18.001h16v-114h-16c-3.33301 12 -9.66602 18 -18.999 18h-322c-10 0 -16.333 -0.833008 -19 -2.5s-5 -6.83398 -7 -15.501h-17c0 68 16 114.667 48 140s78 51.333 138 78s90 53.667 90 81c0 17.333 -5.66699 30.5 -17 39.5
s-26.333 13.5 -45 13.5c-23.333 0 -49 -4.66699 -77 -14s-43 -23.333 -45 -42c0 -2 0.5 -4.83301 1.5 -8.5l3.5 -12.5l-11 -11l-86 88l12 11c6.66699 -4 12.667 -6 18 -6c3.33301 0 17.833 11.333 43.5 34s73.167 34 142.5 34c45.333 0 83.5 -10.333 114.5 -31
s46.5 -52.667 46.5 -96c0 -56 -41 -101.5 -123 -136.5s-127 -56.833 -135 -65.5h246z" />
    <glyph glyph-name="threesuperior" unicode="&#xb3;" horiz-adv-x="471" 
d="M442 389c0 -44 -19.8359 -76.499 -59.5029 -97.499s-84.167 -31.5 -133.5 -31.5c-36 0 -68 4 -96 12l-88 32c-4.66699 0 -9 -1.5 -13 -4.5s-7 -5.5 -9 -7.5l-14 7l51 112l16 -6l-2 -6c0 -20.667 17.5 -36.667 52.5 -48s66.167 -17 93.5 -17c26.667 0 50.667 3.5 72 10.5
s32 20.833 32 41.5c0 24 -9.83301 39.333 -29.5 46s-44.5 10 -74.5 10c-11.333 0 -20.333 -1.16699 -27 -3.5s-11 -7.83301 -13 -16.5h-17v103h17c4 -9.33301 8.33301 -15.166 13 -17.499s12.334 -3.5 23.001 -3.5c36.667 0 62.334 3.83301 77.001 11.5s22 19.834 22 36.501
c0 14 -6.83301 25.5 -20.5 34.5s-35.167 13.5 -64.5 13.5c-21.333 0 -47.833 -4 -79.5 -12s-47.5 -20 -47.5 -36c0 -4.66699 1.66699 -9.33398 5 -14.001l-13 -10l-75 87l13 9c6.66699 -3.33301 12 -5 16 -5c28.667 14 60 26.667 94 38s63.333 17 88 17
c44.667 0 84.834 -8.83301 120.501 -26.5s53.5 -46.834 53.5 -87.501c0 -36.667 -16 -64.334 -48 -83.001c19.333 -6.66699 35 -18 47 -34s18 -34 18 -54z" />
    <glyph glyph-name="acute" unicode="&#xb4;" 
d="M340 734c-6 -1.33301 -10.8311 -2.83203 -14.498 -4.49902s-7.16699 -4.83398 -10.5 -9.50098l-66 -84c-0.666992 -0.666992 -1.33398 -1.66699 -2.00098 -3s-1 -2.33301 -1 -3c0 -6.66699 4 -10 12 -10v-13h-98v13c11.333 0 20.166 10 26.499 30l23.5 73
c0 6 -4.66699 9.66699 -14 11v13h144v-13z" />
    <glyph glyph-name="mu" unicode="&#xb5;" horiz-adv-x="556" 
d="M486 132v-16c0 -20 2.5 -36.167 7.5 -48.5s15.5 -18.5 31.5 -18.5c3.33301 0 8.16602 0.666992 14.499 2s11.5 2.33301 15.5 3v-20l-128 -45l-7 -1c-15.333 0 -26.666 6.16699 -33.999 18.5s-14.666 29.5 -21.999 51.5c-22 -23.333 -41.667 -41.333 -59 -54
s-38 -19 -62 -19c-30.667 0 -54.167 6.5 -70.5 19.5s-30.5 34.5 -42.5 64.5c0 -34.667 6.33301 -72.5 19 -113.5s20 -69.833 22 -86.5c0 -18.667 -5.5 -34.167 -16.5 -46.5s-25.833 -18.5 -44.5 -18.5c-20.667 0 -36.667 5.33301 -48 16s-17 25.667 -17 45
c0 8 0.833008 17.833 2.5 29.5s8.16699 45.667 19.5 102s17 138.5 17 246.5v214h132v-287c0 -33.333 3.33301 -62.333 10 -87s21.667 -37 45 -37c16.667 0 31.667 5 45 15s26.666 23.333 39.999 40v356h130v-325z" />
    <glyph glyph-name="paragraph" unicode="&#xb6;" horiz-adv-x="627" 
d="M566 634l-14.002 0.000976562c-26 0 -42 -3.33301 -48 -10s-9 -22 -9 -46v-15v-566l1 -20c0 -12.667 2 -20.667 6 -24s11 -5 21 -5h33v-32h-134v716h-72v-716h-156v32h42c13.333 0 23.333 2 30 6s10 12.333 10 25l1 23v341h-42c-17.333 0 -31.166 0.333008 -41.499 1
s-27.166 4.66699 -50.499 12s-44.833 25.166 -64.5 53.499s-29.5 60.833 -29.5 97.5c0 27.333 6.83301 53.5 20.5 78.5s29.167 42.5 46.5 52.5s35.5 17.167 54.5 21.5s44.167 6.5 75.5 6.5h48h272v-32zM163.998 499.001c0 -30.667 6.83301 -58.334 20.5 -83.001
s34.5 -37 62.5 -37h29v255c-44 0 -73.667 -8.66699 -89 -26s-23 -53.666 -23 -108.999z" />
    <glyph glyph-name="periodcentered" unicode="&#xb7;" horiz-adv-x="223" 
d="M111 200c-21.333 0 -39.667 7.66699 -55 23s-23 33.666 -23 54.999s7.5 39.833 22.5 55.5s33.5 23.5 55.5 23.5s40.667 -7.66699 56 -23s23 -34 23 -56c0 -21.333 -7.66699 -39.666 -23 -54.999s-34 -23 -56 -23z" />
    <glyph glyph-name="periodcentered" unicode="&#x2219;" horiz-adv-x="223" 
d="M111 200c-21.333 0 -39.667 7.66699 -55 23s-23 33.666 -23 54.999s7.5 39.833 22.5 55.5s33.5 23.5 55.5 23.5s40.667 -7.66699 56 -23s23 -34 23 -56c0 -21.333 -7.66699 -39.666 -23 -54.999s-34 -23 -56 -23z" />
    <glyph glyph-name="cedilla" unicode="&#xb8;" 
d="M106 -169h22.001c27.333 0 51.333 3.16699 72 9.5s31 19.833 31 40.5c0 13.333 -5.83301 23.333 -17.5 30s-24.834 10 -39.501 10l-14 -1c14.667 12 27.834 24.167 39.501 36.5s24.5 26.833 38.5 43.5h42l-34 -43c23.333 -3.33301 42.833 -10.5 58.5 -21.5
s23.5 -27.167 23.5 -48.5c0 -31.333 -13.833 -53 -41.5 -65s-59.834 -18 -96.501 -18l-84 1v26z" />
    <glyph glyph-name="onesuperior" unicode="&#xb9;" horiz-adv-x="234" 
d="M30 630l16.9971 -0.000976562c0.666992 -3.33301 1.83398 -7 3.50098 -11s4.16699 -6 7.5 -6c4.66699 0 9.83398 0.666992 15.501 2l16.5 4c0 11.333 -1 19 -3 23s-7.66699 7.33301 -17 10v15h135v-15c-7.33301 -2 -12.5 -4 -15.5 -6s-4.5 -6 -4.5 -12v-334
c0 -5.33301 1.83301 -9.16602 5.5 -11.499s8.5 -4.5 14.5 -6.5v-15h-135v15c13.333 2.66699 20 8.66699 20 18v245l-24 -5c-9.33301 -2.66699 -15.666 -10 -18.999 -22h-17v112z" />
    <glyph glyph-name="ordmasculine" unicode="&#xba;" horiz-adv-x="337" 
d="M304 533c0 -41.333 -12.3311 -75.333 -36.998 -102s-57.334 -40 -98.001 -40s-73.5 13.167 -98.5 39.5s-37.5 60.5 -37.5 102.5c0 40 12.5 73.167 37.5 99.5s57.833 39.5 98.5 39.5c39.333 0 71.666 -13 96.999 -39s38 -59.333 38 -100zM115.002 544l0.00195312 -16
c0 -32 3.16699 -59.167 9.5 -81.5s21.166 -33.5 44.499 -33.5c18.667 0 31.167 6.66699 37.5 20s10.5 26.833 12.5 40.5s3 33.167 3 58.5v16c0 30 -3.16699 54.5 -9.5 73.5s-20.833 28.5 -43.5 28.5s-37.334 -10.167 -44.001 -30.5s-10 -45.5 -10 -75.5zM315.004 292h-292
v42h292v-42z" />
    <glyph glyph-name="guillemotright" unicode="&#xbb;" horiz-adv-x="320" 
d="M85 480l95 -196l-95 -197h-84l96 197l-96 196h84zM225 480l95 -196l-95 -197h-84l96 197l-96 196h84z" />
    <glyph glyph-name="onequarter" unicode="&#xbc;" horiz-adv-x="908" 
d="M30 630l16.9971 -0.000976562c0.666992 -3.33301 1.83398 -7 3.50098 -11s4.16699 -6 7.5 -6c4.66699 0 9.83398 0.666992 15.501 2l16.5 4c0 11.333 -1 19 -3 23s-7.66699 7.33301 -17 10v15h135v-15c-7.33301 -2 -12.5 -4 -15.5 -6s-4.5 -6 -4.5 -12v-334
c0 -5.33301 1.83301 -9.16602 5.5 -11.499s8.5 -4.5 14.5 -6.5v-15h-135v15c13.333 2.66699 20 8.66699 20 18v245l-24 -5c-9.33301 -2.66699 -15.666 -10 -18.999 -22h-17v112zM155.997 -26.001h-35l400 693h33zM514.997 66.999c-10.667 0 -17.668 -1.66699 -21.001 -5
s-5.66602 -8 -6.99902 -14h-16v88l206 221l8 9.5c2 2.33301 3.33301 4.83301 4 7.5c0 5.33301 -5 9 -15 11v15h170v-15c-13.333 -2.66699 -20 -8.66699 -20 -18v-229h19c6 0 10.167 1.5 12.5 4.5s4.5 7.83301 6.5 14.5h17v-109h-17c-4 12.667 -10.333 19 -19 19h-19v-33
c0 -9.33301 6.66699 -15.666 20 -18.999v-15h-135v15c13.333 3.33301 20 9.66602 20 18.999v33h-214zM728.996 297.999l-147 -160h147v160z" />
    <glyph glyph-name="onehalf" unicode="&#xbd;" horiz-adv-x="900" 
d="M30 630l16.9971 -0.000976562c0.666992 -3.33301 1.83398 -7 3.50098 -11s4.16699 -6 7.5 -6c4.66699 0 9.83398 0.666992 15.501 2l16.5 4c0 11.333 -1 19 -3 23s-7.66699 7.33301 -17 10v15h135v-15c-7.33301 -2 -12.5 -4 -15.5 -6s-4.5 -6 -4.5 -12v-334
c0 -5.33301 1.83301 -9.16602 5.5 -11.499s8.5 -4.5 14.5 -6.5v-15h-135v15c13.333 2.66699 20 8.66699 20 18v245l-24 -5c-9.33301 -2.66699 -15.666 -10 -18.999 -22h-17v112zM155.997 -26.001h-35l400 693h33zM835.997 77.999c8.66699 0 14.667 6.00098 18 18.001h17
v-114h-17c-3.33301 12 -9.33301 18 -18 18h-322c-10 0 -16.333 -0.833008 -19 -2.5s-5 -6.83398 -7 -15.501h-17c0 28.667 1.66699 51.834 5 69.501s11.833 35.5 25.5 53.5s58 45.833 133 83.5s112.5 68.5 112.5 92.5c0 16.667 -6 29.667 -18 39s-27 14 -45 14
c-22.667 0 -48.5 -4.83301 -77.5 -14.5s-43.5 -23.834 -43.5 -42.501c0 -6 0.5 -10.167 1.5 -12.5s2.16699 -4.83301 3.5 -7.5l-11 -11l-86 88l12 11c6.66699 -4 12.667 -6 18 -6c3.33301 0 17.833 11.333 43.5 34s73.167 34 142.5 34c44.667 0 82.5 -10.5 113.5 -31.5
s46.5 -52.833 46.5 -95.5c0 -55.333 -41 -100.833 -123 -136.5s-126.667 -57.5 -134 -65.5h246z" />
    <glyph glyph-name="threequarters" unicode="&#xbe;" horiz-adv-x="1145" 
d="M442 389c0 -44 -19.835 -76.501 -59.502 -97.501s-84.167 -31.5 -133.5 -31.5c-36 0 -68 4 -96 12l-88 32c-4.66699 0 -9 -1.5 -13 -4.5s-7 -5.5 -9 -7.5l-14 7l51 112l16 -6l-2 -6c0 -20.667 17.5 -36.667 52.5 -48s66.167 -17 93.5 -17c26.667 0 50.667 3.5 72 10.5
s32 20.833 32 41.5c0 24 -9.83301 39.333 -29.5 46s-44.5 10 -74.5 10c-11.333 0 -20.333 -1.16699 -27 -3.5s-11 -7.83301 -13 -16.5h-17v103h17c4 -9.33301 8.33301 -15.166 13 -17.499s12.334 -3.5 23.001 -3.5c36.667 0 62.334 3.83301 77.001 11.5s22 19.834 22 36.501
c0 14 -6.83301 25.5 -20.5 34.5s-35.167 13.5 -64.5 13.5c-21.333 0 -47.833 -4 -79.5 -12s-47.5 -20 -47.5 -36c0 -4.66699 1.66699 -9.33398 5 -14.001l-13 -10l-75 87l13 9c6.66699 -3.33301 12 -5 16 -5c28.667 14 60 26.667 94 38s63.333 17 88 17
c44 0 84 -8.83301 120 -26.5s54 -46.5 54 -86.5c0 -37.333 -16 -65.333 -48 -84c19.333 -6.66699 35 -18 47 -34s18 -34 18 -54zM392.998 -26.001h-35l400 693h33zM751.998 66.999c-10.667 0 -17.668 -1.66699 -21.001 -5s-5.66602 -8 -6.99902 -14h-16v88l206 221l8 9.5
c2 2.33301 3.33301 4.83301 4 7.5c0 5.33301 -5 9 -15 11v15h170v-15c-13.333 -2.66699 -20 -8.66699 -20 -18v-229h19c6 0 10.167 1.5 12.5 4.5s4.5 7.83301 6.5 14.5h17v-109h-17c-4 12.667 -10.333 19 -19 19h-19v-33c0 -9.33301 6.66699 -15.666 20 -18.999v-15h-135v15
c13.333 3.33301 20 9.66602 20 18.999v33h-214zM965.997 297.999l-148 -160h148v160z" />
    <glyph glyph-name="questiondown" unicode="&#xbf;" horiz-adv-x="475" 
d="M223 674c21.333 0 39.833 -7.49902 55.5 -22.499s23.5 -33.5 23.5 -55.5s-7.66699 -40.667 -23 -56s-34 -23 -56 -23c-21.333 0 -39.666 7.66699 -54.999 23s-23 34 -23 56c0 21.333 7.66699 39.666 23 54.999s33.666 23 54.999 23zM445 65.001l-12.002 -9
c-7.33301 4.66699 -13.666 7 -18.999 7l-108.5 -52.5c-32.333 -15 -62.833 -22.5 -91.5 -22.5c-47.333 0 -88.666 12 -123.999 36s-53 58.667 -53 104s23.5 92.833 70.5 142.5s70.5 90.167 70.5 121.5c0 8.66699 -2.33301 15.167 -7 19.5s-12 7.5 -22 9.5v16h161v-16
c-14 -4.66699 -23 -11 -27 -19s-7.83301 -22.833 -11.5 -44.5s-21.5 -55.167 -53.5 -100.5s-48 -77.333 -48 -96c0 -20 7.83301 -36.5 23.5 -49.5s33.5 -19.5 53.5 -19.5c22 0 45.167 6.5 69.5 19.5s36.5 29.5 36.5 49.5c0 5.33301 -1.66699 11.333 -5 18l14 9z" />
    <glyph glyph-name="Agrave" unicode="&#xc0;" horiz-adv-x="893" 
d="M282 170l-44.999 -93.998c-3.33301 -8 -5.66602 -13.833 -6.99902 -17.5s-2 -7.83398 -2 -12.501c0 -8 2.83301 -14.333 8.5 -19s13.5 -8.33398 23.5 -11.001v-16h-220v16c14 2.66699 24.333 7.66699 31 15s14 19.333 22 36l245 513
c3.33301 6 6.16602 12.167 8.49902 18.5s3.5 12.5 3.5 18.5c0 16.667 -9.33301 28 -28 34v16h236v-16c-6.66699 -2 -13.167 -5 -19.5 -9s-9.5 -10.667 -9.5 -20c0 -4 0.666992 -8.33301 2 -13s3.66602 -11 6.99902 -19l255 -514c9.33301 -19.333 17.833 -33.5 25.5 -42.5
s19.167 -14.833 34.5 -17.5v-16h-245v16c10 1.33301 17.833 4 23.5 8s8.5 10.333 8.5 19c0 12 -3 23 -9 33l-46 94h-303zM435.001 499.002l-110 -238h218zM474.001 842.002v-13c-8.66699 -1.33301 -13 -5 -13 -11c0 -6.66699 3.16699 -18.834 9.5 -36.501l16.5 -46.5
c4.66699 -13.333 12.667 -20 24 -20v-13h-98v13c8 0 12 2.66699 12 8c-1.33301 4.66699 -2.33301 7.33398 -3 8.00098l-66 84c-6 7.33301 -14.333 12 -25 14v13h143z" />
    <glyph glyph-name="Aacute" unicode="&#xc1;" horiz-adv-x="893" 
d="M282 170l-44.999 -93.998c-3.33301 -8 -5.66602 -13.833 -6.99902 -17.5s-2 -7.83398 -2 -12.501c0 -8 2.83301 -14.333 8.5 -19s13.5 -8.33398 23.5 -11.001v-16h-220v16c14 2.66699 24.333 7.66699 31 15s14 19.333 22 36l245 513
c3.33301 6 6.16602 12.167 8.49902 18.5s3.5 12.5 3.5 18.5c0 16.667 -9.33301 28 -28 34v16h236v-16c-6.66699 -2 -13.167 -5 -19.5 -9s-9.5 -10.667 -9.5 -20c0 -4 0.666992 -8.33301 2 -13s3.66602 -11 6.99902 -19l255 -514c9.33301 -19.333 17.833 -33.5 25.5 -42.5
s19.167 -14.833 34.5 -17.5v-16h-245v16c10 1.33301 17.833 4 23.5 8s8.5 10.333 8.5 19c0 12 -3 23 -9 33l-46 94h-303zM435.001 499.002l-110 -238h218zM592.001 829.002c-6 -1.33301 -10.8311 -2.83203 -14.498 -4.49902s-7.16699 -4.83398 -10.5 -9.50098l-66 -84
c-0.666992 -0.666992 -1.33398 -1.66699 -2.00098 -3s-1 -2.33301 -1 -3c0 -6.66699 4 -10 12 -10v-13h-98v13c11.333 0 20.166 10 26.499 30l23.5 73c0 6 -4.66699 9.66699 -14 11v13h144v-13z" />
    <glyph glyph-name="Acircumflex" unicode="&#xc2;" horiz-adv-x="893" 
d="M282 170l-44.999 -93.998c-3.33301 -8 -5.66602 -13.833 -6.99902 -17.5s-2 -7.83398 -2 -12.501c0 -8 2.83301 -14.333 8.5 -19s13.5 -8.33398 23.5 -11.001v-16h-220v16c14 2.66699 24.333 7.66699 31 15s14 19.333 22 36l245 513
c3.33301 6 6.16602 12.167 8.49902 18.5s3.5 12.5 3.5 18.5c0 16.667 -9.33301 28 -28 34v16h236v-16c-6.66699 -2 -13.167 -5 -19.5 -9s-9.5 -10.667 -9.5 -20c0 -4 0.666992 -8.33301 2 -13s3.66602 -11 6.99902 -19l255 -514c9.33301 -19.333 17.833 -33.5 25.5 -42.5
s19.167 -14.833 34.5 -17.5v-16h-245v16c10 1.33301 17.833 4 23.5 8s8.5 10.333 8.5 19c0 12 -3 23 -9 33l-46 94h-303zM435.001 499.002l-110 -238h218zM292.001 730.002v13.002c12 1.33301 20.333 4.66602 25 9.99902l71 83c3.33301 4 5 9.33301 5 16
c-2 3.33301 -7.33301 5 -16 5v13h124v-13c-9.33301 -2 -14 -5 -14 -9c0 -2.66699 1 -5.5 3 -8.5s3.33301 -4.83301 4 -5.5l75 -81c6 -6 13.667 -9.33301 23 -10v-13h-127v13c10 2 15 4.33301 15 7c0 3.33301 -4.33301 9.66602 -13 18.999l-41 44l-44 -53l-5 -9
c0 -3.33301 5 -6 15 -8v-13h-100z" />
    <glyph glyph-name="Atilde" unicode="&#xc3;" horiz-adv-x="893" 
d="M282 170l-44.999 -93.998c-3.33301 -8 -5.66602 -13.833 -6.99902 -17.5s-2 -7.83398 -2 -12.501c0 -8 2.83301 -14.333 8.5 -19s13.5 -8.33398 23.5 -11.001v-16h-220v16c14 2.66699 24.333 7.66699 31 15s14 19.333 22 36l245 513
c3.33301 6 6.16602 12.167 8.49902 18.5s3.5 12.5 3.5 18.5c0 16.667 -9.33301 28 -28 34v16h236v-16c-6.66699 -2 -13.167 -5 -19.5 -9s-9.5 -10.667 -9.5 -20c0 -4 0.666992 -8.33301 2 -13s3.66602 -11 6.99902 -19l255 -514c9.33301 -19.333 17.833 -33.5 25.5 -42.5
s19.167 -14.833 34.5 -17.5v-16h-245v16c10 1.33301 17.833 4 23.5 8s8.5 10.333 8.5 19c0 12 -3 23 -9 33l-46 94h-303zM435.001 499.002l-110 -238h218zM627.001 791.002l-7.00293 -11.999c-3.33301 1.33301 -5.66602 2.16602 -6.99902 2.49902s-2.33301 0.5 -3 0.5
c-3.33301 0 -10 -5.83301 -20 -17.5s-22.167 -22.667 -36.5 -33s-30.166 -15.5 -47.499 -15.5c-18.667 0 -48.667 8.16699 -90 24.5s-68.666 24.5 -81.999 24.5c-6.66699 0 -13.167 -2.16699 -19.5 -6.5s-10.166 -9.83301 -11.499 -16.5c0 -6 3 -11.333 9 -16l-6 -11l-80 46
l7 9l9 -1l55.5 45.5c16.333 13 33.166 19.5 50.499 19.5c21.333 0 51 -8.16699 89 -24.5s66.667 -24.5 86 -24.5c6 0 12.333 2.5 19 7.5s10 10.5 10 16.5s-3.66699 11.333 -11 16l8 12z" />
    <glyph glyph-name="Adieresis" unicode="&#xc4;" horiz-adv-x="893" 
d="M282 170l-44.999 -93.998c-3.33301 -8 -5.66602 -13.833 -6.99902 -17.5s-2 -7.83398 -2 -12.501c0 -8 2.83301 -14.333 8.5 -19s13.5 -8.33398 23.5 -11.001v-16h-220v16c14 2.66699 24.333 7.66699 31 15s14 19.333 22 36l245 513
c3.33301 6 6.16602 12.167 8.49902 18.5s3.5 12.5 3.5 18.5c0 16.667 -9.33301 28 -28 34v16h236v-16c-6.66699 -2 -13.167 -5 -19.5 -9s-9.5 -10.667 -9.5 -20c0 -4 0.666992 -8.33301 2 -13s3.66602 -11 6.99902 -19l255 -514c9.33301 -19.333 17.833 -33.5 25.5 -42.5
s19.167 -14.833 34.5 -17.5v-16h-245v16c10 1.33301 17.833 4 23.5 8s8.5 10.333 8.5 19c0 12 -3 23 -9 33l-46 94h-303zM435.001 499.002l-110 -238h218zM278.001 802.002c0 19.333 6.83301 35.833 20.5 49.5s30.167 20.5 49.5 20.5s35.833 -6.83301 49.5 -20.5
s20.5 -30.167 20.5 -49.5s-6.83301 -35.833 -20.5 -49.5s-30.167 -20.5 -49.5 -20.5s-35.833 6.83301 -49.5 20.5s-20.5 30.167 -20.5 49.5zM485.001 802.002c0 19.333 6.83301 35.833 20.5 49.5s30.167 20.5 49.5 20.5s35.833 -6.83301 49.5 -20.5s20.5 -30.167 20.5 -49.5
s-6.83301 -35.833 -20.5 -49.5s-30.167 -20.5 -49.5 -20.5s-35.833 6.83301 -49.5 20.5s-20.5 30.167 -20.5 49.5z" />
    <glyph glyph-name="Aring" unicode="&#xc5;" horiz-adv-x="893" 
d="M282 170l-44.999 -93.998c-3.33301 -8 -5.66602 -13.833 -6.99902 -17.5s-2 -7.83398 -2 -12.501c0 -8 2.83301 -14.333 8.5 -19s13.5 -8.33398 23.5 -11.001v-16h-220v16c14 2.66699 24.333 7.66699 31 15s14 19.333 22 36l245 513
c3.33301 6 6.16602 12.167 8.49902 18.5s3.5 12.5 3.5 18.5c0 16.667 -9.33301 28 -28 34v16h236v-16c-6.66699 -2 -13.167 -5 -19.5 -9s-9.5 -10.667 -9.5 -20c0 -4 0.666992 -8.33301 2 -13s3.66602 -11 6.99902 -19l255 -514c9.33301 -19.333 17.833 -33.5 25.5 -42.5
s19.167 -14.833 34.5 -17.5v-16h-245v16c10 1.33301 17.833 4 23.5 8s8.5 10.333 8.5 19c0 12 -3 23 -9 33l-46 94h-303zM435.001 499.002l-110 -238h218zM449.001 715.002c-29.333 0 -56.668 8 -82.001 24s-38 37.667 -38 65s12.667 49 38 65s52.666 24 81.999 24
c28.667 0 55.834 -7.83301 81.501 -23.5s38.5 -37.5 38.5 -65.5c0 -27.333 -12.667 -49 -38 -65s-52.666 -24 -81.999 -24zM448.999 849.002c-15.333 0 -29.5 -3.83203 -42.5 -11.499s-19.5 -18.834 -19.5 -33.501c0 -14 6.5 -25 19.5 -33s27.167 -12 42.5 -12
c14.667 0 28.667 4 42 12s20 19 20 33s-6.5 25 -19.5 33s-27.167 12 -42.5 12z" />
    <glyph glyph-name="AE" unicode="&#xc6;" horiz-adv-x="1213" 
d="M309 171l-54.999 -95l-9 -18c-2 -4 -3 -8.66699 -3 -14c0 -7.33301 2.83301 -13.333 8.5 -18s12.5 -8 20.5 -10v-16h-231v16c10.667 2 20.167 6.16699 28.5 12.5s18.5 19.5 30.5 39.5l295 512c6.66699 12 11 20.5 13 25.5s3 10.5 3 16.5
c0 6.66699 -2.83301 12.5 -8.5 17.5s-12.5 8.83301 -20.5 11.5v16h729c8.66699 0 15.667 1.66699 21 5s10 12 14 26h16v-172h-16c-2.66699 10 -6.66699 17.667 -12 23s-13 8 -23 8h-417v-158h270c10.667 0 18.667 2.5 24 7.5s9.33301 12.833 12 23.5h15v-168h-15
c-2.66699 9.33301 -6.83398 16.833 -12.501 22.5s-13.5 8.5 -23.5 8.5h-270v-183h429c18 0 29.667 10.667 35 32h16v-173h-16c-2.66699 10 -6.66699 17.667 -12 23s-13 8 -23 8h-606v16c21.333 5.33301 32 17 32 35v120h-239zM548.001 557h-22l-164 -295h186v295z" />
    <glyph glyph-name="Ccedilla" unicode="&#xc7;" horiz-adv-x="834" 
d="M794 90l-11.999 -8.99609l-10.5 8.5c-3.66699 3 -7.83398 4.5 -12.501 4.5c-8 0 -15.667 -3 -23 -9c-64.667 -34.667 -117 -59.334 -157 -74.001s-88 -22 -144 -22c-112.667 0 -206.667 30 -282 90s-113 145 -113 255c0 109.333 37.833 194.166 113.5 254.499
s169.5 90.5 281.5 90.5c59.333 0 117.333 -11 174 -33l150 -73c5.33301 0 13 4.33301 23 13l12 -9l-92 -139l-13 9c0 11.333 -0.5 19.666 -1.5 24.999s-4.83301 10.333 -11.5 15c-30.667 26 -65.334 45.5 -104.001 58.5s-79 19.5 -121 19.5
c-73.333 0 -135.333 -20.333 -186 -61s-76 -97.334 -76 -170.001s25 -129.5 75 -170.5s112.333 -61.5 187 -61.5c64 0 114.833 10.667 152.5 32s61.334 35.833 71.001 43.5s14.5 17.5 14.5 29.5v13l13 9zM395.001 -261.996c13.333 11.333 23.832 22.6689 31.499 34.002
s13.5 24.666 17.5 39.999l-32 -5c-24 0 -44.333 5.66699 -61 17s-25 28.666 -25 51.999s8.33301 41.333 25 54s37.334 19 62.001 19c28 0 50.833 -10.667 68.5 -32s26.5 -46 26.5 -74c0 -32 -10.5 -60.333 -31.5 -85s-48.167 -46 -81.5 -64v44z" />
    <glyph glyph-name="Egrave" unicode="&#xc8;" horiz-adv-x="736" 
d="M216 110h429.001c18.667 0 30.667 10.667 36 32h15v-173h-15c-2.66699 9.33301 -6.83398 16.833 -12.501 22.5s-13.5 8.5 -23.5 8.5h-605v16c10 2.66699 17.667 6.66699 23 12s8 13 8 23v565c0 8.66699 -1.66699 15.667 -5 21s-12 10 -26 14v16h594
c10 0 17.667 2.5 23 7.5s9.33301 12.833 12 23.5h16v-172h-16c-2.66699 10 -6.66699 17.667 -12 23s-13 8 -23 8h-418v-158h271c8.66699 0 15.667 1.66699 21 5s10 12 14 26h16v-168h-16c-2.66699 10 -6.66699 17.667 -12 23s-13 8 -23 8h-271v-183zM396.001 843v-13
c-8.66699 -1.33301 -13 -5 -13 -11c0 -6.66699 3.16699 -18.834 9.5 -36.501l16.5 -46.5c4.66699 -13.333 12.667 -20 24 -20v-13h-98v13c8 0 12 2.66699 12 8c-1.33301 4.66699 -2.33301 7.33398 -3 8.00098l-66 84c-6 7.33301 -14.333 12 -25 14v13h143z" />
    <glyph glyph-name="Eacute" unicode="&#xc9;" horiz-adv-x="736" 
d="M216 110h429.001c18.667 0 30.667 10.667 36 32h15v-173h-15c-2.66699 9.33301 -6.83398 16.833 -12.501 22.5s-13.5 8.5 -23.5 8.5h-605v16c10 2.66699 17.667 6.66699 23 12s8 13 8 23v565c0 8.66699 -1.66699 15.667 -5 21s-12 10 -26 14v16h594
c10 0 17.667 2.5 23 7.5s9.33301 12.833 12 23.5h16v-172h-16c-2.66699 10 -6.66699 17.667 -12 23s-13 8 -23 8h-418v-158h271c8.66699 0 15.667 1.66699 21 5s10 12 14 26h16v-168h-16c-2.66699 10 -6.66699 17.667 -12 23s-13 8 -23 8h-271v-183zM504.001 830
c-6 -1.33301 -10.8311 -2.83203 -14.498 -4.49902s-7.16699 -4.83398 -10.5 -9.50098l-66 -84c-0.666992 -0.666992 -1.33398 -1.66699 -2.00098 -3s-1 -2.33301 -1 -3c0 -6.66699 4 -10 12 -10v-13h-98v13c11.333 0 20.166 10 26.499 30l23.5 73
c0 6 -4.66699 9.66699 -14 11v13h144v-13z" />
    <glyph glyph-name="Ecircumflex" unicode="&#xca;" horiz-adv-x="736" 
d="M216 110h429.001c18.667 0 30.667 10.667 36 32h15v-173h-15c-2.66699 9.33301 -6.83398 16.833 -12.501 22.5s-13.5 8.5 -23.5 8.5h-605v16c10 2.66699 17.667 6.66699 23 12s8 13 8 23v565c0 8.66699 -1.66699 15.667 -5 21s-12 10 -26 14v16h594
c10 0 17.667 2.5 23 7.5s9.33301 12.833 12 23.5h16v-172h-16c-2.66699 10 -6.66699 17.667 -12 23s-13 8 -23 8h-418v-158h271c8.66699 0 15.667 1.66699 21 5s10 12 14 26h16v-168h-16c-2.66699 10 -6.66699 17.667 -12 23s-13 8 -23 8h-271v-183zM228.001 706v13.002
c12 1.33301 20.333 4.66602 25 9.99902l71 83c3.33301 4 5 9.33301 5 16c-2 3.33301 -7.33301 5 -16 5v13h124v-13c-9.33301 -2 -14 -5 -14 -9c0 -2.66699 1 -5.5 3 -8.5s3.33301 -4.83301 4 -5.5l75 -81c6 -6 13.667 -9.33301 23 -10v-13h-127v13c10 2 15 4.33301 15 7
c0 3.33301 -4.33301 9.66602 -13 18.999l-41 44l-44 -53l-5 -9c0 -3.33301 5 -6 15 -8v-13h-100z" />
    <glyph glyph-name="Edieresis" unicode="&#xcb;" horiz-adv-x="736" 
d="M216 110h429.001c18.667 0 30.667 10.667 36 32h15v-173h-15c-2.66699 9.33301 -6.83398 16.833 -12.501 22.5s-13.5 8.5 -23.5 8.5h-605v16c10 2.66699 17.667 6.66699 23 12s8 13 8 23v565c0 8.66699 -1.66699 15.667 -5 21s-12 10 -26 14v16h594
c10 0 17.667 2.5 23 7.5s9.33301 12.833 12 23.5h16v-172h-16c-2.66699 10 -6.66699 17.667 -12 23s-13 8 -23 8h-418v-158h271c8.66699 0 15.667 1.66699 21 5s10 12 14 26h16v-168h-16c-2.66699 10 -6.66699 17.667 -12 23s-13 8 -23 8h-271v-183zM225.001 776
c0 19.333 6.83301 35.833 20.5 49.5s30.167 20.5 49.5 20.5s35.833 -6.83301 49.5 -20.5s20.5 -30.167 20.5 -49.5s-6.83301 -35.833 -20.5 -49.5s-30.167 -20.5 -49.5 -20.5s-35.833 6.83301 -49.5 20.5s-20.5 30.167 -20.5 49.5zM432.001 776
c0 19.333 6.83301 35.833 20.5 49.5s30.167 20.5 49.5 20.5s35.833 -6.83301 49.5 -20.5s20.5 -30.167 20.5 -49.5s-6.83301 -35.833 -20.5 -49.5s-30.167 -20.5 -49.5 -20.5s-35.833 6.83301 -49.5 20.5s-20.5 30.167 -20.5 49.5z" />
    <glyph glyph-name="Igrave" unicode="&#xcc;" horiz-adv-x="288" 
d="M248 0h-208v16c10 2.66699 17.667 6.66699 23 12s8 13 8 23v565c0 10 -2.5 17.667 -7.5 23s-12.833 9.33301 -23.5 12v16h208v-16c-21.333 -5.33301 -32 -17 -32 -35v-565c0 -18 10.667 -29.667 32 -35v-16zM171 842v-13c-8.66699 -1.33301 -13 -5 -13 -11
c0 -6.66699 3.16699 -18.834 9.5 -36.501l16.5 -46.5c4.66699 -13.333 12.667 -20 24 -20v-13h-98v13c8 0 12 2.66699 12 8c-1.33301 4.66699 -2.33301 7.33398 -3 8.00098l-66 84c-6 7.33301 -14.333 12 -25 14v13h143z" />
    <glyph glyph-name="Iacute" unicode="&#xcd;" horiz-adv-x="288" 
d="M248 0h-208v16c10 2.66699 17.667 6.66699 23 12s8 13 8 23v565c0 10 -2.5 17.667 -7.5 23s-12.833 9.33301 -23.5 12v16h208v-16c-21.333 -5.33301 -32 -17 -32 -35v-565c0 -18 10.667 -29.667 32 -35v-16zM269 829c-6 -1.33301 -10.8311 -2.83203 -14.498 -4.49902
s-7.16699 -4.83398 -10.5 -9.50098l-66 -84c-0.666992 -0.666992 -1.33398 -1.66699 -2.00098 -3s-1 -2.33301 -1 -3c0 -6.66699 4 -10 12 -10v-13h-98v13c11.333 0 20.166 10 26.499 30l23.5 73c0 6 -4.66699 9.66699 -14 11v13h144v-13z" />
    <glyph glyph-name="Icircumflex" unicode="&#xce;" horiz-adv-x="288" 
d="M248 0h-208v16c10 2.66699 17.667 6.66699 23 12s8 13 8 23v565c0 10 -2.5 17.667 -7.5 23s-12.833 9.33301 -23.5 12v16h208v-16c-21.333 -5.33301 -32 -17 -32 -35v-565c0 -18 10.667 -29.667 32 -35v-16zM9 706v13.002c12 1.33301 20.333 4.66602 25 9.99902l71 83
c3.33301 4 5 9.33301 5 16c-2 3.33301 -7.33301 5 -16 5v13h124v-13c-9.33301 -2 -14 -5 -14 -9c0 -2.66699 1 -5.5 3 -8.5s3.33301 -4.83301 4 -5.5l75 -81c6 -6 13.667 -9.33301 23 -10v-13h-127v13c10 2 15 4.33301 15 7c0 3.33301 -4.33301 9.66602 -13 18.999l-41 44
l-44 -53l-5 -9c0 -3.33301 5 -6 15 -8v-13h-100z" />
    <glyph glyph-name="Idieresis" unicode="&#xcf;" horiz-adv-x="288" 
d="M248 0h-208v16c10 2.66699 17.667 6.66699 23 12s8 13 8 23v565c0 10 -2.5 17.667 -7.5 23s-12.833 9.33301 -23.5 12v16h208v-16c-21.333 -5.33301 -32 -17 -32 -35v-565c0 -18 10.667 -29.667 32 -35v-16zM-24 776c0 19.333 6.83301 35.833 20.5 49.5
s30.167 20.5 49.5 20.5s35.833 -6.83301 49.5 -20.5s20.5 -30.167 20.5 -49.5s-6.83301 -35.833 -20.5 -49.5s-30.167 -20.5 -49.5 -20.5s-35.833 6.83301 -49.5 20.5s-20.5 30.167 -20.5 49.5zM183 776c0 19.333 6.83301 35.833 20.5 49.5s30.167 20.5 49.5 20.5
s35.833 -6.83301 49.5 -20.5s20.5 -30.167 20.5 -49.5s-6.83301 -35.833 -20.5 -49.5s-30.167 -20.5 -49.5 -20.5s-35.833 6.83301 -49.5 20.5s-20.5 30.167 -20.5 49.5z" />
    <glyph glyph-name="Eth" unicode="&#xd0;" horiz-adv-x="813" 
d="M411 667c54.667 0 102.831 -4.66797 144.498 -14.001s79.834 -29 114.501 -59s60.5 -67.667 77.5 -113s25.5 -94.666 25.5 -147.999c0 -52 -8.5 -101 -25.5 -147s-42.833 -83.5 -77.5 -112.5s-73.167 -48.5 -115.5 -58.5s-90.166 -15 -143.499 -15h-371v16
c10 2.66699 17.667 6.66699 23 12s8 13 8 23v235h-27c-8.66699 0 -16 -2.16699 -22 -6.5s-10.333 -12.5 -13 -24.5h-16v158h15c3.33301 -8.66699 7.5 -16 12.5 -22s11.5 -9 19.5 -9h31v234c0 10 -2.5 17.667 -7.5 23s-12.833 9.33301 -23.5 12v15zM398.997 109.999
c76 0 132.498 18.167 169.498 54.5s55.5 92.5 55.5 168.5c0 76.667 -18.167 133.167 -54.5 169.5s-93.166 54.5 -170.499 54.5h-183v-176h93c14.667 0 25.5 2 32.5 6s12.833 12.667 17.5 26h16v-158h-13c-5.33301 12.667 -11.166 21 -17.499 25s-14.833 6 -25.5 6h-103v-176
h183z" />
    <glyph glyph-name="Ntilde" unicode="&#xd1;" horiz-adv-x="831" 
d="M205 51c0 -10 2.50195 -17.666 7.50195 -22.999s12.833 -9.33301 23.5 -12v-16h-196v16c10 2.66699 17.667 6.66699 23 12s8 13 8 23v565c0 10 -2.5 17.667 -7.5 23s-12.833 9.33301 -23.5 12v16h227v-16c-6.66699 -2 -11.834 -4.5 -15.501 -7.5
s-5.5 -7.83301 -5.5 -14.5c0 -4.66699 1.33301 -9.16699 4 -13.5s5.66699 -8.5 9 -12.5l368 -383v396c0 18 -10.667 29.667 -32 35v16h196v-16c-10 -2.66699 -17.667 -6.66699 -23 -12s-8 -13 -8 -23v-565c0 -10 2.5 -17.667 7.5 -23s12.833 -9.33301 23.5 -12v-16h-209v16
c8 2 13.167 4.16699 15.5 6.5s3.83301 6.16602 4.5 11.499c0 6 -1.83301 11.5 -5.5 16.5s-9.83398 11.833 -18.501 20.5l-373 386v-406zM641.002 791.001l-7.00293 -11.999c-3.33301 1.33301 -5.66602 2.16602 -6.99902 2.49902s-2.33301 0.5 -3 0.5
c-3.33301 0 -10 -5.83301 -20 -17.5s-22.167 -22.667 -36.5 -33s-30.166 -15.5 -47.499 -15.5c-18.667 0 -48.667 8.16699 -90 24.5s-68.666 24.5 -81.999 24.5c-6.66699 0 -13.167 -2.16699 -19.5 -6.5s-10.166 -9.83301 -11.499 -16.5c0 -6 3 -11.333 9 -16l-6 -11l-80 46
l7 9l9 -1l55.5 45.5c16.333 13 33.166 19.5 50.499 19.5c21.333 0 51 -8.16699 89 -24.5s66.667 -24.5 86 -24.5c6 0 12.333 2.5 19 7.5s10 10.5 10 16.5s-3.66699 11.333 -11 16l8 12z" />
    <glyph glyph-name="Ograve" unicode="&#xd2;" horiz-adv-x="846" 
d="M423 -12c-37.333 0 -72.999 3.16797 -106.999 9.50098s-72.167 20.666 -114.5 42.999s-79.833 60.833 -112.5 115.5s-49 113.667 -49 177c0 106 36.833 190 110.5 252s164.5 93 272.5 93c37.333 0 73.166 -3.33301 107.499 -10s72.5 -21 114.5 -43
s79.333 -60.333 112 -115s49 -113.667 49 -177c0 -106 -36.833 -190 -110.5 -252s-164.5 -93 -272.5 -93zM423.001 564.001c-67.333 0 -123.167 -21.499 -167.5 -64.499s-66.5 -98.5 -66.5 -166.5c0 -66.667 22.167 -121.834 66.5 -165.501s100.166 -65.5 167.499 -65.5
c66.667 0 122.334 21.667 167.001 65s67 98.666 67 165.999c0 68.667 -22 124.334 -66 167.001s-100 64 -168 64zM451 842.002v-13c-8.66699 -1.33301 -13 -5 -13 -11c0 -6.66699 3.16699 -18.834 9.5 -36.501l16.5 -46.5c4.66699 -13.333 12.667 -20 24 -20v-13h-98v13
c8 0 12 2.66699 12 8c-1.33301 4.66699 -2.33301 7.33398 -3 8.00098l-66 84c-6 7.33301 -14.333 12 -25 14v13h143z" />
    <glyph glyph-name="Oacute" unicode="&#xd3;" horiz-adv-x="846" 
d="M423 -12c-37.333 0 -72.999 3.16797 -106.999 9.50098s-72.167 20.666 -114.5 42.999s-79.833 60.833 -112.5 115.5s-49 113.667 -49 177c0 106 36.833 190 110.5 252s164.5 93 272.5 93c37.333 0 73.166 -3.33301 107.499 -10s72.5 -21 114.5 -43
s79.333 -60.333 112 -115s49 -113.667 49 -177c0 -106 -36.833 -190 -110.5 -252s-164.5 -93 -272.5 -93zM423.001 564.001c-67.333 0 -123.167 -21.499 -167.5 -64.499s-66.5 -98.5 -66.5 -166.5c0 -66.667 22.167 -121.834 66.5 -165.501s100.166 -65.5 167.499 -65.5
c66.667 0 122.334 21.667 167.001 65s67 98.666 67 165.999c0 68.667 -22 124.334 -66 167.001s-100 64 -168 64zM568 829.002c-6 -1.33301 -10.8311 -2.83203 -14.498 -4.49902s-7.16699 -4.83398 -10.5 -9.50098l-66 -84
c-0.666992 -0.666992 -1.33398 -1.66699 -2.00098 -3s-1 -2.33301 -1 -3c0 -6.66699 4 -10 12 -10v-13h-98v13c11.333 0 20.166 10 26.499 30l23.5 73c0 6 -4.66699 9.66699 -14 11v13h144v-13z" />
    <glyph glyph-name="Ocircumflex" unicode="&#xd4;" horiz-adv-x="846" 
d="M423 -12c-37.333 0 -72.999 3.16797 -106.999 9.50098s-72.167 20.666 -114.5 42.999s-79.833 60.833 -112.5 115.5s-49 113.667 -49 177c0 106 36.833 190 110.5 252s164.5 93 272.5 93c37.333 0 73.166 -3.33301 107.499 -10s72.5 -21 114.5 -43
s79.333 -60.333 112 -115s49 -113.667 49 -177c0 -106 -36.833 -190 -110.5 -252s-164.5 -93 -272.5 -93zM423.001 564.001c-67.333 0 -123.167 -21.499 -167.5 -64.499s-66.5 -98.5 -66.5 -166.5c0 -66.667 22.167 -121.834 66.5 -165.501s100.166 -65.5 167.499 -65.5
c66.667 0 122.334 21.667 167.001 65s67 98.666 67 165.999c0 68.667 -22 124.334 -66 167.001s-100 64 -168 64zM283 721.002v13.002c12 1.33301 20.333 4.66602 25 9.99902l71 83c3.33301 4 5 9.33301 5 16c-2 3.33301 -7.33301 5 -16 5v13h124v-13
c-9.33301 -2 -14 -5 -14 -9c0 -2.66699 1 -5.5 3 -8.5s3.33301 -4.83301 4 -5.5l75 -81c6 -6 13.667 -9.33301 23 -10v-13h-127v13c10 2 15 4.33301 15 7c0 3.33301 -4.33301 9.66602 -13 18.999l-41 44l-44 -53l-5 -9c0 -3.33301 5 -6 15 -8v-13h-100z" />
    <glyph glyph-name="Otilde" unicode="&#xd5;" horiz-adv-x="846" 
d="M423 -12c-37.333 0 -72.999 3.16797 -106.999 9.50098s-72.167 20.666 -114.5 42.999s-79.833 60.833 -112.5 115.5s-49 113.667 -49 177c0 106 36.833 190 110.5 252s164.5 93 272.5 93c37.333 0 73.166 -3.33301 107.499 -10s72.5 -21 114.5 -43
s79.333 -60.333 112 -115s49 -113.667 49 -177c0 -106 -36.833 -190 -110.5 -252s-164.5 -93 -272.5 -93zM423.001 564.001c-67.333 0 -123.167 -21.499 -167.5 -64.499s-66.5 -98.5 -66.5 -166.5c0 -66.667 22.167 -121.834 66.5 -165.501s100.166 -65.5 167.499 -65.5
c66.667 0 122.334 21.667 167.001 65s67 98.666 67 165.999c0 68.667 -22 124.334 -66 167.001s-100 64 -168 64zM654 791.002l-7.00293 -11.999c-3.33301 1.33301 -5.66602 2.16602 -6.99902 2.49902s-2.33301 0.5 -3 0.5c-3.33301 0 -10 -5.83301 -20 -17.5
s-22.167 -22.667 -36.5 -33s-30.166 -15.5 -47.499 -15.5c-18.667 0 -48.667 8.16699 -90 24.5s-68.666 24.5 -81.999 24.5c-6.66699 0 -13.167 -2.16699 -19.5 -6.5s-10.166 -9.83301 -11.499 -16.5c0 -6 3 -11.333 9 -16l-6 -11l-80 46l7 9l9 -1l55.5 45.5
c16.333 13 33.166 19.5 50.499 19.5c21.333 0 51 -8.16699 89 -24.5s66.667 -24.5 86 -24.5c6 0 12.333 2.5 19 7.5s10 10.5 10 16.5s-3.66699 11.333 -11 16l8 12z" />
    <glyph glyph-name="Odieresis" unicode="&#xd6;" horiz-adv-x="846" 
d="M423 -12c-37.333 0 -72.999 3.16797 -106.999 9.50098s-72.167 20.666 -114.5 42.999s-79.833 60.833 -112.5 115.5s-49 113.667 -49 177c0 106 36.833 190 110.5 252s164.5 93 272.5 93c37.333 0 73.166 -3.33301 107.499 -10s72.5 -21 114.5 -43
s79.333 -60.333 112 -115s49 -113.667 49 -177c0 -106 -36.833 -190 -110.5 -252s-164.5 -93 -272.5 -93zM423.001 564.001c-67.333 0 -123.167 -21.499 -167.5 -64.499s-66.5 -98.5 -66.5 -166.5c0 -66.667 22.167 -121.834 66.5 -165.501s100.166 -65.5 167.499 -65.5
c66.667 0 122.334 21.667 167.001 65s67 98.666 67 165.999c0 68.667 -22 124.334 -66 167.001s-100 64 -168 64zM275 802.002c0 19.333 6.83301 35.833 20.5 49.5s30.167 20.5 49.5 20.5s35.833 -6.83301 49.5 -20.5s20.5 -30.167 20.5 -49.5s-6.83301 -35.833 -20.5 -49.5
s-30.167 -20.5 -49.5 -20.5s-35.833 6.83301 -49.5 20.5s-20.5 30.167 -20.5 49.5zM482 802.002c0 19.333 6.83301 35.833 20.5 49.5s30.167 20.5 49.5 20.5s35.833 -6.83301 49.5 -20.5s20.5 -30.167 20.5 -49.5s-6.83301 -35.833 -20.5 -49.5s-30.167 -20.5 -49.5 -20.5
s-35.833 6.83301 -49.5 20.5s-20.5 30.167 -20.5 49.5z" />
    <glyph glyph-name="multiply" unicode="&#xd7;" 
d="M249 412l149 151l55 -55l-151 -149l150 -148l-53 -53l-148 150l-150 -151l-54 54l151 150l-149 147l53 53z" />
    <glyph glyph-name="Oslash" unicode="&#xd8;" horiz-adv-x="846" 
d="M213 -18c0 -8.66699 3.16895 -15.3359 9.50195 -20.0029s14.833 -8 25.5 -10v-19h-207v19c21.333 3.33301 38.166 10.333 50.499 21s37.833 41.334 76.5 92.001c-40 31.333 -71.333 70.833 -94 118.5s-34 97.5 -34 149.5c0 106 36.833 190 110.5 252s164.5 93 272.5 93
c36 0 69.5 -2.83301 100.5 -8.5s61.5 -15.167 91.5 -28.5c5.33301 5.33301 9.83301 11.333 13.5 18s5.5 13 5.5 19c0 11.333 -3.83301 19.666 -11.5 24.999s-15.5 9 -23.5 11v19h206v-19c-29.333 -3.33301 -54.333 -18.833 -75 -46.5l-50 -68.5
c38 -25.333 68.5 -63.666 91.5 -114.999s34.5 -101.666 34.5 -150.999c0 -107.333 -36.5 -191.666 -109.5 -252.999s-164.167 -92 -273.5 -92c-37.333 0 -70.333 2.5 -99 7.5s-58.334 14.5 -89.001 28.5c-6.66699 -8.66699 -12 -16 -16 -22s-6 -12.667 -6 -20z
M423.002 101.998c68 0 124 21.332 168 63.999s66 98.334 66 167.001c0 29.333 -5 58 -15 86s-24.667 52.667 -44 74l-284 -368c32.667 -15.333 69 -23 109 -23zM537.002 538.997c-33.333 16.667 -71.334 25 -114.001 25c-67.333 0 -123.166 -21.5 -167.499 -64.5
s-66.5 -98.5 -66.5 -166.5c0 -64.667 20.667 -118.667 62 -162z" />
    <glyph glyph-name="Ugrave" unicode="&#xd9;" horiz-adv-x="802" 
d="M763 651c-21.333 -5.33301 -32.002 -17.334 -32.002 -36.001v-373c0 -98.667 -28.167 -165.667 -84.5 -201s-138.166 -53 -245.499 -53c-106 0 -187.5 17.5 -244.5 52.5s-85.5 102.167 -85.5 201.5v373c0 10 -2.5 17.833 -7.5 23.5s-12.833 9.83398 -23.5 12.501v16h208
v-16c-9.33301 -2.66699 -16.833 -6.83398 -22.5 -12.501s-8.5 -13.5 -8.5 -23.5v-332v-21c0 -26.667 1.83301 -48.5 5.5 -65.5s13.334 -33.5 29.001 -49.5s37 -27.5 64 -34.5s57.5 -10.5 91.5 -10.5c66.667 0 115 11.833 145 35.5s45 67.167 45 130.5v15v332
c0 10 -2.5 17.833 -7.5 23.5s-12.833 9.83398 -23.5 12.501v16h197v-16zM428.998 841.999v-13c-8.66699 -1.33301 -13 -5 -13 -11c0 -6.66699 3.16699 -18.834 9.5 -36.501l16.5 -46.5c4.66699 -13.333 12.667 -20 24 -20v-13h-98v13c8 0 12 2.66699 12 8
c-1.33301 4.66699 -2.33301 7.33398 -3 8.00098l-66 84c-6 7.33301 -14.333 12 -25 14v13h143z" />
    <glyph glyph-name="Uacute" unicode="&#xda;" horiz-adv-x="802" 
d="M763 651c-21.333 -5.33301 -32.002 -17.334 -32.002 -36.001v-373c0 -98.667 -28.167 -165.667 -84.5 -201s-138.166 -53 -245.499 -53c-106 0 -187.5 17.5 -244.5 52.5s-85.5 102.167 -85.5 201.5v373c0 10 -2.5 17.833 -7.5 23.5s-12.833 9.83398 -23.5 12.501v16h208
v-16c-9.33301 -2.66699 -16.833 -6.83398 -22.5 -12.501s-8.5 -13.5 -8.5 -23.5v-332v-21c0 -26.667 1.83301 -48.5 5.5 -65.5s13.334 -33.5 29.001 -49.5s37 -27.5 64 -34.5s57.5 -10.5 91.5 -10.5c66.667 0 115 11.833 145 35.5s45 67.167 45 130.5v15v332
c0 10 -2.5 17.833 -7.5 23.5s-12.833 9.83398 -23.5 12.501v16h197v-16zM541.998 828.999c-6 -1.33301 -10.8311 -2.83203 -14.498 -4.49902s-7.16699 -4.83398 -10.5 -9.50098l-66 -84c-0.666992 -0.666992 -1.33398 -1.66699 -2.00098 -3s-1 -2.33301 -1 -3
c0 -6.66699 4 -10 12 -10v-13h-98v13c11.333 0 20.166 10 26.499 30l23.5 73c0 6 -4.66699 9.66699 -14 11v13h144v-13z" />
    <glyph glyph-name="Ucircumflex" unicode="&#xdb;" horiz-adv-x="802" 
d="M763 651c-21.333 -5.33301 -32.002 -17.334 -32.002 -36.001v-373c0 -98.667 -28.167 -165.667 -84.5 -201s-138.166 -53 -245.499 -53c-106 0 -187.5 17.5 -244.5 52.5s-85.5 102.167 -85.5 201.5v373c0 10 -2.5 17.833 -7.5 23.5s-12.833 9.83398 -23.5 12.501v16h208
v-16c-9.33301 -2.66699 -16.833 -6.83398 -22.5 -12.501s-8.5 -13.5 -8.5 -23.5v-332v-21c0 -26.667 1.83301 -48.5 5.5 -65.5s13.334 -33.5 29.001 -49.5s37 -27.5 64 -34.5s57.5 -10.5 91.5 -10.5c66.667 0 115 11.833 145 35.5s45 67.167 45 130.5v15v332
c0 10 -2.5 17.833 -7.5 23.5s-12.833 9.83398 -23.5 12.501v16h197v-16zM260.998 704.999v13.002c12 1.33301 20.333 4.66602 25 9.99902l71 83c3.33301 4 5 9.33301 5 16c-2 3.33301 -7.33301 5 -16 5v13h124v-13c-9.33301 -2 -14 -5 -14 -9c0 -2.66699 1 -5.5 3 -8.5
s3.33301 -4.83301 4 -5.5l75 -81c6 -6 13.667 -9.33301 23 -10v-13h-127v13c10 2 15 4.33301 15 7c0 3.33301 -4.33301 9.66602 -13 18.999l-41 44l-44 -53l-5 -9c0 -3.33301 5 -6 15 -8v-13h-100z" />
    <glyph glyph-name="Udieresis" unicode="&#xdc;" horiz-adv-x="802" 
d="M763 651c-21.333 -5.33301 -32.002 -17.334 -32.002 -36.001v-373c0 -98.667 -28.167 -165.667 -84.5 -201s-138.166 -53 -245.499 -53c-106 0 -187.5 17.5 -244.5 52.5s-85.5 102.167 -85.5 201.5v373c0 10 -2.5 17.833 -7.5 23.5s-12.833 9.83398 -23.5 12.501v16h208
v-16c-9.33301 -2.66699 -16.833 -6.83398 -22.5 -12.501s-8.5 -13.5 -8.5 -23.5v-332v-21c0 -26.667 1.83301 -48.5 5.5 -65.5s13.334 -33.5 29.001 -49.5s37 -27.5 64 -34.5s57.5 -10.5 91.5 -10.5c66.667 0 115 11.833 145 35.5s45 67.167 45 130.5v15v332
c0 10 -2.5 17.833 -7.5 23.5s-12.833 9.83398 -23.5 12.501v16h197v-16zM252.998 801.999c0 19.333 6.83301 35.833 20.5 49.5s30.167 20.5 49.5 20.5s35.833 -6.83301 49.5 -20.5s20.5 -30.167 20.5 -49.5s-6.83301 -35.833 -20.5 -49.5s-30.167 -20.5 -49.5 -20.5
s-35.833 6.83301 -49.5 20.5s-20.5 30.167 -20.5 49.5zM459.998 801.999c0 19.333 6.83301 35.833 20.5 49.5s30.167 20.5 49.5 20.5s35.833 -6.83301 49.5 -20.5s20.5 -30.167 20.5 -49.5s-6.83301 -35.833 -20.5 -49.5s-30.167 -20.5 -49.5 -20.5
s-35.833 6.83301 -49.5 20.5s-20.5 30.167 -20.5 49.5z" />
    <glyph glyph-name="Yacute" unicode="&#xdd;" horiz-adv-x="820" 
d="M482 51c0 -9.33301 2.83105 -16.832 8.49805 -22.499s13.834 -9.83398 24.501 -12.501v-16h-210v16c21.333 5.33301 32 17 32 35v228l-215 303c-18 24.667 -31.667 41.834 -41 51.501s-23 15.5 -41 17.5v16h264v-16c-8.66699 -1.33301 -16 -4 -22 -8
s-9.66699 -10 -11 -18c0 -7.33301 2 -14.666 6 -21.999c6.66699 -9.33301 11.334 -16.333 14.001 -21l120 -179l123 179c8.66699 11.333 14.167 19.166 16.5 23.499s3.5 9.5 3.5 15.5c0 8 -3 14.667 -9 20s-13.667 8.66602 -23 9.99902v16h258v-16
c-17.333 -2 -31.5 -8.5 -42.5 -19.5s-24.167 -27.5 -39.5 -49.5l-216 -303v-228zM554.998 829.001c-6 -1.33301 -10.8311 -2.83203 -14.498 -4.49902s-7.16699 -4.83398 -10.5 -9.50098l-66 -84c-0.666992 -0.666992 -1.33398 -1.66699 -2.00098 -3s-1 -2.33301 -1 -3
c0 -6.66699 4 -10 12 -10v-13h-98v13c11.333 0 20.166 10 26.499 30l23.5 73c0 6 -4.66699 9.66699 -14 11v13h144v-13z" />
    <glyph glyph-name="Thorn" unicode="&#xde;" horiz-adv-x="758" 
d="M216 51c0 -18 10.666 -29.666 31.999 -34.999v-16h-208v16c10 2.66699 17.667 6.66699 23 12s8 13 8 23v565c0 10 -2.5 17.667 -7.5 23s-12.833 9.33301 -23.5 12v16h208v-16c-21.333 -6 -32 -18.333 -32 -37v-27h240c43.333 0 79.833 -2.66699 109.5 -8
s56.334 -17 80.001 -35s41.667 -40.833 54 -68.5s18.5 -56.5 18.5 -86.5c0 -30.667 -6 -59.834 -18 -87.501s-30 -50.167 -54 -67.5s-51.5 -28.833 -82.5 -34.5s-66.833 -8.5 -107.5 -8.5h-240v-140zM438.999 300.001c38 0 69.167 6.33301 93.5 19s36.5 36 36.5 70
s-10.5 57.167 -31.5 69.5s-50.167 18.5 -87.5 18.5h-11h-223v-177h223z" />
    <glyph glyph-name="germandbls" unicode="&#xdf;" horiz-adv-x="1210" 
d="M511 370l-11.9971 6.00098c0 24.667 -23.667 44.667 -71 60s-88.333 23 -123 23c-32.667 0 -64.167 -4.5 -94.5 -13.5s-47.166 -25.833 -50.499 -50.5c0 -28 45.667 -47 137 -57s162.5 -23.667 213.5 -41s76.5 -61.333 76.5 -132
c0 -60.667 -27.333 -105.334 -82 -134.001s-115.334 -43 -182.001 -43c-41.333 0 -81.5 3.66699 -120.5 11s-76.5 19.333 -112.5 36c-8 2.66699 -15.667 5.66699 -23 9c-6.66699 0 -13.334 -4 -20.001 -12l-12 5l56 134l13 -5c0 -27.333 25.5 -47.333 76.5 -60
s96.5 -19 136.5 -19c34 0 66.333 4.66699 97 14s46 27 46 53c0 30 -45.5 49 -136.5 57s-160.167 19.833 -207.5 35.5s-71 60.167 -71 133.5c0 60.667 25.667 105.5 77 134.5s110 43.5 176 43.5c39.333 0 80.666 -6.66699 123.999 -20l122 -45c4 0 7.66699 1 11 3
s6.66602 4.33301 9.99902 7l12 -6zM1099 370.001l-11.999 5.99805c0 8.66699 -2.16699 15.667 -6.5 21s-20.833 17 -49.5 35s-74.667 27 -138 27c-32 0 -63.333 -4.66699 -94 -14s-47.667 -26 -51 -50c0 -28 45.833 -47 137.5 -57s162.834 -23.667 213.501 -41
s76 -61.333 76 -132c0 -61.333 -27.167 -106.166 -81.5 -134.499s-114.833 -42.5 -181.5 -42.5c-41.333 0 -81.5 3.66699 -120.5 11s-76.833 19.333 -113.5 36c-8 2.66699 -15.667 5.66699 -23 9c-6.66699 0 -13.334 -4 -20.001 -12l-12 5l56 134l13 -5v-6
c0 -8 2.5 -14.167 7.5 -18.5s16 -11 33 -20s42.833 -17 77.5 -24s66.334 -10.5 95.001 -10.5c34 0 66.333 4.66699 97 14s46 27 46 53c0 22.667 -12.333 37.5 -37 44.5s-52.334 10.5 -83.001 10.5c-86.667 0 -157.5 10.333 -212.5 31s-82.5 67.334 -82.5 140.001
c0 60.667 25.667 105.5 77 134.5s110.333 43.5 177 43.5c39.333 0 80.666 -6.66699 123.999 -20l122 -45c5.33301 0 12 3.33301 20 10l12 -6z" />
    <glyph glyph-name="agrave" unicode="&#xe0;" horiz-adv-x="763" 
d="M244 137l-25.501 -50.0029c-9 -18 -13.5 -33 -13.5 -45c0 -7.33301 3.16699 -13.5 9.5 -18.5s13.5 -8.5 21.5 -10.5v-13h-201v13c12.667 2 22.167 6.5 28.5 13.5s13.166 17.5 20.499 31.5l200 404c2.66699 5.33301 5.16699 11 7.5 17s3.5 13.333 3.5 22
c0 8 -2.5 14.5 -7.5 19.5s-11.833 9.16699 -20.5 12.5v13h213v-13c-7.33301 -2.66699 -13.666 -6.66699 -18.999 -12s-8 -11.333 -8 -18c0 -8 0.833008 -15 2.5 -21s4.83398 -13.333 9.50098 -22l207 -392c6.66699 -12.667 13.5 -24.167 20.5 -34.5
s19.167 -17.166 36.5 -20.499v-13h-223v13c7.33301 1.33301 14.333 3.83301 21 7.5s10 10.834 10 21.501c0 14.667 -4.83301 30.334 -14.5 47.001l-27.5 48h-251zM365.999 388.997l-85 -176h174zM454.999 746.997v-13c-8.66699 -1.33301 -13 -5 -13 -11
c0 -6.66699 3.16699 -18.834 9.5 -36.501l16.5 -46.5c4.66699 -13.333 12.667 -20 24 -20v-13h-98v13c8 0 12 2.66699 12 8c-1.33301 4.66699 -2.33301 7.33398 -3 8.00098l-66 84c-6 7.33301 -14.333 12 -25 14v13h143z" />
    <glyph glyph-name="aacute" unicode="&#xe1;" horiz-adv-x="763" 
d="M244 137l-25.501 -50.0029c-9 -18 -13.5 -33 -13.5 -45c0 -7.33301 3.16699 -13.5 9.5 -18.5s13.5 -8.5 21.5 -10.5v-13h-201v13c12.667 2 22.167 6.5 28.5 13.5s13.166 17.5 20.499 31.5l200 404c2.66699 5.33301 5.16699 11 7.5 17s3.5 13.333 3.5 22
c0 8 -2.5 14.5 -7.5 19.5s-11.833 9.16699 -20.5 12.5v13h213v-13c-7.33301 -2.66699 -13.666 -6.66699 -18.999 -12s-8 -11.333 -8 -18c0 -8 0.833008 -15 2.5 -21s4.83398 -13.333 9.50098 -22l207 -392c6.66699 -12.667 13.5 -24.167 20.5 -34.5
s19.167 -17.166 36.5 -20.499v-13h-223v13c7.33301 1.33301 14.333 3.83301 21 7.5s10 10.834 10 21.501c0 14.667 -4.83301 30.334 -14.5 47.001l-27.5 48h-251zM365.999 388.997l-85 -176h174zM506.999 733.997c-6 -1.33301 -10.8311 -2.83203 -14.498 -4.49902
s-7.16699 -4.83398 -10.5 -9.50098l-66 -84c-0.666992 -0.666992 -1.33398 -1.66699 -2.00098 -3s-1 -2.33301 -1 -3c0 -6.66699 4 -10 12 -10v-13h-98v13c11.333 0 20.166 10 26.499 30l23.5 73c0 6 -4.66699 9.66699 -14 11v13h144v-13z" />
    <glyph glyph-name="acircumflex" unicode="&#xe2;" horiz-adv-x="763" 
d="M244 137l-25.501 -50.0029c-9 -18 -13.5 -33 -13.5 -45c0 -7.33301 3.16699 -13.5 9.5 -18.5s13.5 -8.5 21.5 -10.5v-13h-201v13c12.667 2 22.167 6.5 28.5 13.5s13.166 17.5 20.499 31.5l200 404c2.66699 5.33301 5.16699 11 7.5 17s3.5 13.333 3.5 22
c0 8 -2.5 14.5 -7.5 19.5s-11.833 9.16699 -20.5 12.5v13h213v-13c-7.33301 -2.66699 -13.666 -6.66699 -18.999 -12s-8 -11.333 -8 -18c0 -8 0.833008 -15 2.5 -21s4.83398 -13.333 9.50098 -22l207 -392c6.66699 -12.667 13.5 -24.167 20.5 -34.5
s19.167 -17.166 36.5 -20.499v-13h-223v13c7.33301 1.33301 14.333 3.83301 21 7.5s10 10.834 10 21.501c0 14.667 -4.83301 30.334 -14.5 47.001l-27.5 48h-251zM365.999 388.997l-85 -176h174zM221.999 606.997v13.002c12 1.33301 20.333 4.66602 25 9.99902l71 83
c3.33301 4 5 9.33301 5 16c-2 3.33301 -7.33301 5 -16 5v13h124v-13c-9.33301 -2 -14 -5 -14 -9c0 -2.66699 1 -5.5 3 -8.5s3.33301 -4.83301 4 -5.5l75 -81c6 -6 13.667 -9.33301 23 -10v-13h-127v13c10 2 15 4.33301 15 7c0 3.33301 -4.33301 9.66602 -13 18.999l-41 44
l-44 -53l-5 -9c0 -3.33301 5 -6 15 -8v-13h-100z" />
    <glyph glyph-name="atilde" unicode="&#xe3;" horiz-adv-x="763" 
d="M244 137l-25.501 -50.0029c-9 -18 -13.5 -33 -13.5 -45c0 -7.33301 3.16699 -13.5 9.5 -18.5s13.5 -8.5 21.5 -10.5v-13h-201v13c12.667 2 22.167 6.5 28.5 13.5s13.166 17.5 20.499 31.5l200 404c2.66699 5.33301 5.16699 11 7.5 17s3.5 13.333 3.5 22
c0 8 -2.5 14.5 -7.5 19.5s-11.833 9.16699 -20.5 12.5v13h213v-13c-7.33301 -2.66699 -13.666 -6.66699 -18.999 -12s-8 -11.333 -8 -18c0 -8 0.833008 -15 2.5 -21s4.83398 -13.333 9.50098 -22l207 -392c6.66699 -12.667 13.5 -24.167 20.5 -34.5
s19.167 -17.166 36.5 -20.499v-13h-223v13c7.33301 1.33301 14.333 3.83301 21 7.5s10 10.834 10 21.501c0 14.667 -4.83301 30.334 -14.5 47.001l-27.5 48h-251zM365.999 388.997l-85 -176h174zM577.999 675.997l-7.00293 -11.999
c-3.33301 1.33301 -5.66602 2.16602 -6.99902 2.49902s-2.33301 0.5 -3 0.5c-3.33301 0 -10 -5.83301 -20 -17.5s-22.167 -22.667 -36.5 -33s-30.166 -15.5 -47.499 -15.5c-18.667 0 -48.667 8.16699 -90 24.5s-68.666 24.5 -81.999 24.5
c-6.66699 0 -13.167 -2.16699 -19.5 -6.5s-10.166 -9.83301 -11.499 -16.5c0 -6 3 -11.333 9 -16l-6 -11l-80 46l7 9l9 -1l55.5 45.5c16.333 13 33.166 19.5 50.499 19.5c21.333 0 51 -8.16699 89 -24.5s66.667 -24.5 86 -24.5c6 0 12.333 2.5 19 7.5s10 10.5 10 16.5
s-3.66699 11.333 -11 16l8 12z" />
    <glyph glyph-name="adieresis" unicode="&#xe4;" horiz-adv-x="763" 
d="M244 137l-25.501 -50.0029c-9 -18 -13.5 -33 -13.5 -45c0 -7.33301 3.16699 -13.5 9.5 -18.5s13.5 -8.5 21.5 -10.5v-13h-201v13c12.667 2 22.167 6.5 28.5 13.5s13.166 17.5 20.499 31.5l200 404c2.66699 5.33301 5.16699 11 7.5 17s3.5 13.333 3.5 22
c0 8 -2.5 14.5 -7.5 19.5s-11.833 9.16699 -20.5 12.5v13h213v-13c-7.33301 -2.66699 -13.666 -6.66699 -18.999 -12s-8 -11.333 -8 -18c0 -8 0.833008 -15 2.5 -21s4.83398 -13.333 9.50098 -22l207 -392c6.66699 -12.667 13.5 -24.167 20.5 -34.5
s19.167 -17.166 36.5 -20.499v-13h-223v13c7.33301 1.33301 14.333 3.83301 21 7.5s10 10.834 10 21.501c0 14.667 -4.83301 30.334 -14.5 47.001l-27.5 48h-251zM365.999 388.997l-85 -176h174zM212.999 658.997c0 19.333 6.83301 35.833 20.5 49.5s30.167 20.5 49.5 20.5
s35.833 -6.83301 49.5 -20.5s20.5 -30.167 20.5 -49.5s-6.83301 -35.833 -20.5 -49.5s-30.167 -20.5 -49.5 -20.5s-35.833 6.83301 -49.5 20.5s-20.5 30.167 -20.5 49.5zM419.999 658.997c0 19.333 6.83301 35.833 20.5 49.5s30.167 20.5 49.5 20.5
s35.833 -6.83301 49.5 -20.5s20.5 -30.167 20.5 -49.5s-6.83301 -35.833 -20.5 -49.5s-30.167 -20.5 -49.5 -20.5s-35.833 6.83301 -49.5 20.5s-20.5 30.167 -20.5 49.5z" />
    <glyph glyph-name="aring" unicode="&#xe5;" horiz-adv-x="763" 
d="M244 137l-25.501 -50.0029c-9 -18 -13.5 -33 -13.5 -45c0 -7.33301 3.16699 -13.5 9.5 -18.5s13.5 -8.5 21.5 -10.5v-13h-201v13c12.667 2 22.167 6.5 28.5 13.5s13.166 17.5 20.499 31.5l200 404c2.66699 5.33301 5.16699 11 7.5 17s3.5 13.333 3.5 22
c0 8 -2.5 14.5 -7.5 19.5s-11.833 9.16699 -20.5 12.5v13h213v-13c-7.33301 -2.66699 -13.666 -6.66699 -18.999 -12s-8 -11.333 -8 -18c0 -8 0.833008 -15 2.5 -21s4.83398 -13.333 9.50098 -22l207 -392c6.66699 -12.667 13.5 -24.167 20.5 -34.5
s19.167 -17.166 36.5 -20.499v-13h-223v13c7.33301 1.33301 14.333 3.83301 21 7.5s10 10.834 10 21.501c0 14.667 -4.83301 30.334 -14.5 47.001l-27.5 48h-251zM365.999 388.997l-85 -176h174zM382.999 587.997c-29.333 0 -56.668 8 -82.001 24s-38 37.667 -38 65
s12.667 49 38 65s52.666 24 81.999 24c28.667 0 55.834 -7.83301 81.501 -23.5s38.5 -37.5 38.5 -65.5c0 -27.333 -12.667 -49 -38 -65s-52.666 -24 -81.999 -24zM382.997 721.997c-15.333 0 -29.5 -3.83203 -42.5 -11.499s-19.5 -18.834 -19.5 -33.501
c0 -14 6.5 -25 19.5 -33s27.167 -12 42.5 -12c14.667 0 28.667 4 42 12s20 19 20 33s-6.5 25 -19.5 33s-27.167 12 -42.5 12z" />
    <glyph glyph-name="ae" unicode="&#xe6;" horiz-adv-x="1034" 
d="M274 137l-35.002 -52.999c-10.667 -16.667 -16 -30.334 -16 -41.001c0 -16 9 -25.667 27 -29v-14h-215v14c14 2 24.167 6 30.5 12s14.5 16.667 24.5 32l245 403c4.66699 8 8.83398 15.667 12.501 23s5.5 14 5.5 20c0 8 -2.5 14 -7.5 18s-12.167 7.66699 -21.5 11v14h611
c18 0 30.333 10.333 37 31h13v-162h-13c-5.33301 20.667 -17.666 31 -36.999 31h-332v-119h206c10.667 0 18.667 2.5 24 7.5s9.33301 12.833 12 23.5h14v-158h-14c-5.33301 21.333 -17.333 32 -36 32h-206v-133h347c18 0 30.333 10.333 37 31h13v-162h-13
c-6.66699 20.667 -19 31 -37 31h-509v14c20.667 5.33301 31 17.333 31 36v87h-198zM471.998 447.001h-16l-134 -234h150v234z" />
    <glyph glyph-name="ccedilla" unicode="&#xe7;" horiz-adv-x="699" 
d="M665 77l-12.001 -10c-6 6 -12.667 9 -20 9c-41.333 -22.667 -85.333 -42.834 -132 -60.501s-92 -26.5 -136 -26.5c-94.667 0 -173.667 24.667 -237 74s-95 120 -95 212c0 91.333 32 161.833 96 211.5s142.667 74.5 236 74.5c60.667 0 116.334 -11.667 167.001 -35
l60 -33.5c20 -11 33 -17.167 39 -18.5c8 0 15.333 2.66699 22 8l12 -9l-84 -122l-12 9l2 14c0 10 -6.66699 19.333 -20 28s-29.333 17.334 -48 26.001s-39.667 15.334 -63 20.001s-46.666 7 -69.999 7c-53.333 0 -100 -16.833 -140 -50.5s-60 -76.834 -60 -129.501
c0 -52 20 -95 60 -129s86.667 -51 140 -51c26.667 0 52.167 2.66699 76.5 8s46.666 13.333 66.999 24s35 19.167 44 25.5s13.5 13.833 13.5 22.5l-2 15l12 9zM328.999 -243c22.667 18.667 37.667 41.333 45 68l-17.5 -3.5c-5 -1 -9.16699 -1.5 -12.5 -1.5
c-22 0 -40.333 5.16699 -55 15.5s-22 25.833 -22 46.5c0 22.667 7.33301 39.5 22 50.5s33.667 16.5 57 16.5c25.333 0 46 -9.66699 62 -29s24 -42.333 24 -69c0 -28.667 -9.66699 -54 -29 -76s-44 -41.333 -74 -58v40z" />
    <glyph glyph-name="egrave" unicode="&#xe8;" horiz-adv-x="628" 
d="M197 100h347c18 0 30.333 10.333 37 31h13v-162h-13c-5.33301 20.667 -17.666 31 -36.999 31h-509v14c20.667 5.33301 31 17.333 31 36v447c0 18.667 -10.333 30.667 -31 36v14h494c18 0 30.333 10.333 37 31h13v-162h-13c-6.66699 20.667 -19 31 -37 31h-332v-119h206
c10.667 0 18.667 2.5 24 7.5s9.66602 12.833 12.999 23.5h13v-158h-14c-5.33301 21.333 -17.333 32 -36 32h-206v-133zM402 747v-13c-8.66699 -1.33301 -13 -5 -13 -11c0 -6.66699 3.16699 -18.834 9.5 -36.501l16.5 -46.5c4.66699 -13.333 12.667 -20 24 -20v-13h-98v13
c8 0 12 2.66699 12 8c-1.33301 4.66699 -2.33301 7.33398 -3 8.00098l-66 84c-6 7.33301 -14.333 12 -25 14v13h143z" />
    <glyph glyph-name="eacute" unicode="&#xe9;" horiz-adv-x="628" 
d="M197 100h347c18 0 30.333 10.333 37 31h13v-162h-13c-5.33301 20.667 -17.666 31 -36.999 31h-509v14c20.667 5.33301 31 17.333 31 36v447c0 18.667 -10.333 30.667 -31 36v14h494c18 0 30.333 10.333 37 31h13v-162h-13c-6.66699 20.667 -19 31 -37 31h-332v-119h206
c10.667 0 18.667 2.5 24 7.5s9.66602 12.833 12.999 23.5h13v-158h-14c-5.33301 21.333 -17.333 32 -36 32h-206v-133zM439 734c-6 -1.33301 -10.8311 -2.83203 -14.498 -4.49902s-7.16699 -4.83398 -10.5 -9.50098l-66 -84
c-0.666992 -0.666992 -1.33398 -1.66699 -2.00098 -3s-1 -2.33301 -1 -3c0 -6.66699 4 -10 12 -10v-13h-98v13c11.333 0 20.166 10 26.499 30l23.5 73c0 6 -4.66699 9.66699 -14 11v13h144v-13z" />
    <glyph glyph-name="ecircumflex" unicode="&#xea;" horiz-adv-x="628" 
d="M197 100h347c18 0 30.333 10.333 37 31h13v-162h-13c-5.33301 20.667 -17.666 31 -36.999 31h-509v14c20.667 5.33301 31 17.333 31 36v447c0 18.667 -10.333 30.667 -31 36v14h494c18 0 30.333 10.333 37 31h13v-162h-13c-6.66699 20.667 -19 31 -37 31h-332v-119h206
c10.667 0 18.667 2.5 24 7.5s9.66602 12.833 12.999 23.5h13v-158h-14c-5.33301 21.333 -17.333 32 -36 32h-206v-133zM169 607v13.002c12 1.33301 20.333 4.66602 25 9.99902l71 83c3.33301 4 5 9.33301 5 16c-2 3.33301 -7.33301 5 -16 5v13h124v-13
c-9.33301 -2 -14 -5 -14 -9c0 -2.66699 1 -5.5 3 -8.5s3.33301 -4.83301 4 -5.5l75 -81c6 -6 13.667 -9.33301 23 -10v-13h-127v13c10 2 15 4.33301 15 7c0 3.33301 -4.33301 9.66602 -13 18.999l-41 44l-44 -53l-5 -9c0 -3.33301 5 -6 15 -8v-13h-100z" />
    <glyph glyph-name="edieresis" unicode="&#xeb;" horiz-adv-x="628" 
d="M197 100h347c18 0 30.333 10.333 37 31h13v-162h-13c-5.33301 20.667 -17.666 31 -36.999 31h-509v14c20.667 5.33301 31 17.333 31 36v447c0 18.667 -10.333 30.667 -31 36v14h494c18 0 30.333 10.333 37 31h13v-162h-13c-6.66699 20.667 -19 31 -37 31h-332v-119h206
c10.667 0 18.667 2.5 24 7.5s9.66602 12.833 12.999 23.5h13v-158h-14c-5.33301 21.333 -17.333 32 -36 32h-206v-133zM161 654c0 19.333 6.83301 35.833 20.5 49.5s30.167 20.5 49.5 20.5s35.833 -6.83301 49.5 -20.5s20.5 -30.167 20.5 -49.5
s-6.83301 -35.833 -20.5 -49.5s-30.167 -20.5 -49.5 -20.5s-35.833 6.83301 -49.5 20.5s-20.5 30.167 -20.5 49.5zM368 654c0 19.333 6.83301 35.833 20.5 49.5s30.167 20.5 49.5 20.5s35.833 -6.83301 49.5 -20.5s20.5 -30.167 20.5 -49.5s-6.83301 -35.833 -20.5 -49.5
s-30.167 -20.5 -49.5 -20.5s-35.833 6.83301 -49.5 20.5s-20.5 30.167 -20.5 49.5z" />
    <glyph glyph-name="igrave" unicode="&#xec;" horiz-adv-x="263" 
d="M228 546v-12.999c-20.667 -6 -31 -18 -31 -36v-447c0 -10 2.5 -17.833 7.5 -23.5s12.833 -10.167 23.5 -13.5v-13h-193v13c20.667 5.33301 31 17.666 31 36.999v447c0 18.667 -10.333 30.667 -31 36v13h193zM220 747.001v-13c-8.66699 -1.33301 -13 -5 -13 -11
c0 -6.66699 3.16699 -18.834 9.5 -36.501l16.5 -46.5c4.66699 -13.333 12.667 -20 24 -20v-13h-98v13c8 0 12 2.66699 12 8c-1.33301 4.66699 -2.33301 7.33398 -3 8.00098l-66 84c-6 7.33301 -14.333 12 -25 14v13h143z" />
    <glyph glyph-name="iacute" unicode="&#xed;" horiz-adv-x="263" 
d="M228 546v-12.999c-20.667 -6 -31 -18 -31 -36v-447c0 -10 2.5 -17.833 7.5 -23.5s12.833 -10.167 23.5 -13.5v-13h-193v13c20.667 5.33301 31 17.666 31 36.999v447c0 18.667 -10.333 30.667 -31 36v13h193zM257 734.001c-6 -1.33301 -10.8311 -2.83203 -14.498 -4.49902
s-7.16699 -4.83398 -10.5 -9.50098l-66 -84c-0.666992 -0.666992 -1.33398 -1.66699 -2.00098 -3s-1 -2.33301 -1 -3c0 -6.66699 4 -10 12 -10v-13h-98v13c11.333 0 20.166 10 26.499 30l23.5 73c0 6 -4.66699 9.66699 -14 11v13h144v-13z" />
    <glyph glyph-name="icircumflex" unicode="&#xee;" horiz-adv-x="263" 
d="M228 546v-12.999c-20.667 -6 -31 -18 -31 -36v-447c0 -10 2.5 -17.833 7.5 -23.5s12.833 -10.167 23.5 -13.5v-13h-193v13c20.667 5.33301 31 17.666 31 36.999v447c0 18.667 -10.333 30.667 -31 36v13h193zM2 631.001v13.002c12 1.33301 20.333 4.66602 25 9.99902
l71 83c3.33301 4 5 9.33301 5 16c-2 3.33301 -7.33301 5 -16 5v13h124v-13c-9.33301 -2 -14 -5 -14 -9c0 -2.66699 1 -5.5 3 -8.5s3.33301 -4.83301 4 -5.5l75 -81c6 -6 13.667 -9.33301 23 -10v-13h-127v13c10 2 15 4.33301 15 7c0 3.33301 -4.33301 9.66602 -13 18.999
l-41 44l-44 -53l-5 -9c0 -3.33301 5 -6 15 -8v-13h-100z" />
    <glyph glyph-name="idieresis" unicode="&#xef;" horiz-adv-x="263" 
d="M228 546v-12.999c-20.667 -6 -31 -18 -31 -36v-447c0 -10 2.5 -17.833 7.5 -23.5s12.833 -10.167 23.5 -13.5v-13h-193v13c20.667 5.33301 31 17.666 31 36.999v447c0 18.667 -10.333 30.667 -31 36v13h193zM-31 677.001c0 19.333 6.83301 35.833 20.5 49.5
s30.167 20.5 49.5 20.5s35.833 -6.83301 49.5 -20.5s20.5 -30.167 20.5 -49.5s-6.83301 -35.833 -20.5 -49.5s-30.167 -20.5 -49.5 -20.5s-35.833 6.83301 -49.5 20.5s-20.5 30.167 -20.5 49.5zM176 677.001c0 19.333 6.83301 35.833 20.5 49.5s30.167 20.5 49.5 20.5
s35.833 -6.83301 49.5 -20.5s20.5 -30.167 20.5 -49.5s-6.83301 -35.833 -20.5 -49.5s-30.167 -20.5 -49.5 -20.5s-35.833 6.83301 -49.5 20.5s-20.5 30.167 -20.5 49.5z" />
    <glyph glyph-name="eth" unicode="&#xf0;" horiz-adv-x="521" 
d="M158 545l77 66.002l-89 68l9 19c39.333 -13.333 77.666 -32.333 114.999 -57l78 65l20 -23l-72 -61c60 -46.667 107 -105.334 141 -176.001s51 -144.334 51 -221.001c0 -66.667 -21.5 -123.5 -64.5 -170.5s-97.833 -70.5 -164.5 -70.5s-120.834 23.167 -162.501 69.5
s-62.5 103.5 -62.5 171.5c0 63.333 20.5 118.5 61.5 165.5s92.833 70.5 155.5 70.5c14.667 0 25.834 -1.16699 33.501 -3.5s29.834 -12.5 66.501 -30.5c-12 30 -25.5 58 -40.5 84s-33.167 51.667 -54.5 77l-78 -66zM194 390.002c-10 -20 -17.001 -45.001 -21.001 -75.001
s-6 -60.667 -6 -92c0 -52.667 5.83301 -100.667 17.5 -144s36.834 -65 75.501 -65c40 0 65.833 21.167 77.5 63.5s17.5 90.833 17.5 145.5c0 38 -1.83301 71.333 -5.5 100s-10.334 50.834 -20.001 66.501s-20.167 26.5 -31.5 32.5s-23.666 9 -36.999 9
c-30 0 -52.333 -13.667 -67 -41z" />
    <glyph glyph-name="ntilde" unicode="&#xf1;" horiz-adv-x="717" 
d="M185 50c0 -18 10.667 -30.333 32 -37v-13h-182v13c20.667 5.33301 31 17.666 31 36.999v447c0 18.667 -10.333 30.667 -31 36v13h210v-13c-7.33301 -1.33301 -12.833 -3.33301 -16.5 -6s-5.5 -7 -5.5 -13c0 -5.33301 1 -9.5 3 -12.5s6.33301 -8.16699 13 -15.5l293 -290
v301c0 18.667 -10.333 30.667 -31 36v13h182v-13c-21.333 -5.33301 -32 -17.333 -32 -36v-447c0 -18 10.667 -30.333 32 -37v-13h-196v13c4.66699 0.666992 9.33398 2.16699 14.001 4.5s7 6.5 7 12.5c0 9.33301 -4.83301 18.333 -14.5 27s-15.834 14.334 -18.501 17.001
l-290 286v-310zM544 676l-7.00293 -11.999c-3.33301 1.33301 -5.66602 2.16602 -6.99902 2.49902s-2.33301 0.5 -3 0.5c-3.33301 0 -10 -5.83301 -20 -17.5s-22.167 -22.667 -36.5 -33s-30.166 -15.5 -47.499 -15.5c-18.667 0 -48.667 8.16699 -90 24.5
s-68.666 24.5 -81.999 24.5c-6.66699 0 -13.167 -2.16699 -19.5 -6.5s-10.166 -9.83301 -11.499 -16.5c0 -6 3 -11.333 9 -16l-6 -11l-80 46l7 9l9 -1l55.5 45.5c16.333 13 33.166 19.5 50.499 19.5c21.333 0 51 -8.16699 89 -24.5s66.667 -24.5 86 -24.5
c6 0 12.333 2.5 19 7.5s10 10.5 10 16.5s-3.66699 11.333 -11 16l8 12z" />
    <glyph glyph-name="ograve" unicode="&#xf2;" horiz-adv-x="711" 
d="M356 -12c-90.667 0 -166.834 25.332 -228.501 75.999s-92.5 120.334 -92.5 209.001s30.833 158.334 92.5 209.001s137.834 76 228.501 76c90 0 165.833 -25.333 227.5 -76s92.5 -120.334 92.5 -209.001c0 -88 -31 -157.5 -93 -208.5s-137.667 -76.5 -227 -76.5z
M356 454.999c-53.333 0 -97.668 -17 -133.001 -51s-53 -77.667 -53 -131s17.667 -97 53 -131s79.666 -51 132.999 -51c52.667 0 96.834 17.167 132.501 51.5s53.5 77.833 53.5 130.5c0 53.333 -17.667 97 -53 131s-79.666 51 -132.999 51zM443.998 745.999v-13
c-8.66699 -1.33301 -13 -5 -13 -11c0 -6.66699 3.16699 -18.834 9.5 -36.501l16.5 -46.5c4.66699 -13.333 12.667 -20 24 -20v-13h-98v13c8 0 12 2.66699 12 8c-1.33301 4.66699 -2.33301 7.33398 -3 8.00098l-66 84c-6 7.33301 -14.333 12 -25 14v13h143z" />
    <glyph glyph-name="oacute" unicode="&#xf3;" horiz-adv-x="711" 
d="M356 -12c-90.667 0 -166.834 25.332 -228.501 75.999s-92.5 120.334 -92.5 209.001s30.833 158.334 92.5 209.001s137.834 76 228.501 76c90 0 165.833 -25.333 227.5 -76s92.5 -120.334 92.5 -209.001c0 -88 -31 -157.5 -93 -208.5s-137.667 -76.5 -227 -76.5z
M356 454.999c-53.333 0 -97.668 -17 -133.001 -51s-53 -77.667 -53 -131s17.667 -97 53 -131s79.666 -51 132.999 -51c52.667 0 96.834 17.167 132.501 51.5s53.5 77.833 53.5 130.5c0 53.333 -17.667 97 -53 131s-79.666 51 -132.999 51zM480.998 732.999
c-6 -1.33301 -10.8311 -2.83203 -14.498 -4.49902s-7.16699 -4.83398 -10.5 -9.50098l-66 -84c-0.666992 -0.666992 -1.33398 -1.66699 -2.00098 -3s-1 -2.33301 -1 -3c0 -6.66699 4 -10 12 -10v-13h-98v13c11.333 0 20.166 10 26.499 30l23.5 73
c0 6 -4.66699 9.66699 -14 11v13h144v-13z" />
    <glyph glyph-name="ocircumflex" unicode="&#xf4;" horiz-adv-x="711" 
d="M356 -12c-90.667 0 -166.834 25.332 -228.501 75.999s-92.5 120.334 -92.5 209.001s30.833 158.334 92.5 209.001s137.834 76 228.501 76c90 0 165.833 -25.333 227.5 -76s92.5 -120.334 92.5 -209.001c0 -88 -31 -157.5 -93 -208.5s-137.667 -76.5 -227 -76.5z
M356 454.999c-53.333 0 -97.668 -17 -133.001 -51s-53 -77.667 -53 -131s17.667 -97 53 -131s79.666 -51 132.999 -51c52.667 0 96.834 17.167 132.501 51.5s53.5 77.833 53.5 130.5c0 53.333 -17.667 97 -53 131s-79.666 51 -132.999 51zM219.998 605.999v13.002
c12 1.33301 20.333 4.66602 25 9.99902l71 83c3.33301 4 5 9.33301 5 16c-2 3.33301 -7.33301 5 -16 5v13h124v-13c-9.33301 -2 -14 -5 -14 -9c0 -2.66699 1 -5.5 3 -8.5s3.33301 -4.83301 4 -5.5l75 -81c6 -6 13.667 -9.33301 23 -10v-13h-127v13c10 2 15 4.33301 15 7
c0 3.33301 -4.33301 9.66602 -13 18.999l-41 44l-44 -53l-5 -9c0 -3.33301 5 -6 15 -8v-13h-100z" />
    <glyph glyph-name="otilde" unicode="&#xf5;" horiz-adv-x="711" 
d="M356 -12c-90.667 0 -166.834 25.332 -228.501 75.999s-92.5 120.334 -92.5 209.001s30.833 158.334 92.5 209.001s137.834 76 228.501 76c90 0 165.833 -25.333 227.5 -76s92.5 -120.334 92.5 -209.001c0 -88 -31 -157.5 -93 -208.5s-137.667 -76.5 -227 -76.5z
M356 454.999c-53.333 0 -97.668 -17 -133.001 -51s-53 -77.667 -53 -131s17.667 -97 53 -131s79.666 -51 132.999 -51c52.667 0 96.834 17.167 132.501 51.5s53.5 77.833 53.5 130.5c0 53.333 -17.667 97 -53 131s-79.666 51 -132.999 51zM570.998 675.999l-7.00293 -11.999
c-3.33301 1.33301 -5.66602 2.16602 -6.99902 2.49902s-2.33301 0.5 -3 0.5c-3.33301 0 -10 -5.83301 -20 -17.5s-22.167 -22.667 -36.5 -33s-30.166 -15.5 -47.499 -15.5c-18.667 0 -48.667 8.16699 -90 24.5s-68.666 24.5 -81.999 24.5
c-6.66699 0 -13.167 -2.16699 -19.5 -6.5s-10.166 -9.83301 -11.499 -16.5c0 -6 3 -11.333 9 -16l-6 -11l-80 46l7 9l9 -1l55.5 45.5c16.333 13 33.166 19.5 50.499 19.5c21.333 0 51 -8.16699 89 -24.5s66.667 -24.5 86 -24.5c6 0 12.333 2.5 19 7.5s10 10.5 10 16.5
s-3.66699 11.333 -11 16l8 12z" />
    <glyph glyph-name="odieresis" unicode="&#xf6;" horiz-adv-x="711" 
d="M356 -12c-90.667 0 -166.834 25.332 -228.501 75.999s-92.5 120.334 -92.5 209.001s30.833 158.334 92.5 209.001s137.834 76 228.501 76c90 0 165.833 -25.333 227.5 -76s92.5 -120.334 92.5 -209.001c0 -88 -31 -157.5 -93 -208.5s-137.667 -76.5 -227 -76.5z
M356 454.999c-53.333 0 -97.668 -17 -133.001 -51s-53 -77.667 -53 -131s17.667 -97 53 -131s79.666 -51 132.999 -51c52.667 0 96.834 17.167 132.501 51.5s53.5 77.833 53.5 130.5c0 53.333 -17.667 97 -53 131s-79.666 51 -132.999 51zM192.998 658.999
c0 19.333 6.83301 35.833 20.5 49.5s30.167 20.5 49.5 20.5s35.833 -6.83301 49.5 -20.5s20.5 -30.167 20.5 -49.5s-6.83301 -35.833 -20.5 -49.5s-30.167 -20.5 -49.5 -20.5s-35.833 6.83301 -49.5 20.5s-20.5 30.167 -20.5 49.5zM399.998 658.999
c0 19.333 6.83301 35.833 20.5 49.5s30.167 20.5 49.5 20.5s35.833 -6.83301 49.5 -20.5s20.5 -30.167 20.5 -49.5s-6.83301 -35.833 -20.5 -49.5s-30.167 -20.5 -49.5 -20.5s-35.833 6.83301 -49.5 20.5s-20.5 30.167 -20.5 49.5z" />
    <glyph glyph-name="divide" unicode="&#xf7;" 
d="M492 397v-75h-483v75h483zM308 531c0 -15.333 -5.66699 -28.666 -17 -39.999s-24.666 -17 -39.999 -17c-16 0 -29.667 5.66699 -41 17s-17 24.666 -17 39.999s5.66699 28.666 17 39.999s25 17 41 17c15.333 0 28.666 -5.66699 39.999 -17s17 -24.666 17 -39.999zM307 187
c0 -15.333 -5.66699 -28.666 -17 -39.999s-24.666 -17 -39.999 -17s-28.666 5.66699 -39.999 17s-17 24.666 -17 39.999s5.66699 28.666 17 39.999s24.666 17 39.999 17s28.666 -5.66699 39.999 -17s17 -24.666 17 -39.999z" />
    <glyph glyph-name="oslash" unicode="&#xf8;" horiz-adv-x="711" 
d="M676 273c0 -88 -31.001 -157.504 -93.001 -208.504s-137.667 -76.5 -227 -76.5c-27.333 0 -54.166 2.33301 -80.499 7s-51.5 12.334 -75.5 23.001c-5.33301 -7.33301 -9.66602 -13.5 -12.999 -18.5s-5 -10.167 -5 -15.5c0 -7.33301 2.66699 -13 8 -17s12.333 -7 21 -9
v-13h-173v13c16.667 2.66699 30 8.33398 40 17.001s31.667 34.334 65 77.001c-72 54.667 -108 128.334 -108 221.001c0 88.667 30.833 158.334 92.5 209.001s137.834 76 228.501 76c30.667 0 58 -2.16699 82 -6.5s48.667 -12.5 74 -24.5c0 3.33301 2.33301 8.33301 7 15
s7 12 7 16c0 7.33301 -3 13.666 -9 18.999s-12.667 9 -20 11v13h172v-13c-15.333 -2 -28.333 -7.83301 -39 -17.5s-31.334 -35.167 -62.001 -76.5c35.333 -24.667 62.166 -56.5 80.499 -95.5s27.5 -80.833 27.5 -125.5zM270.999 108.996
c14 -5.33301 27.999 -9.66699 41.999 -13s28.333 -5 43 -5c52.667 0 96.834 17.167 132.501 51.5s53.5 77.833 53.5 130.5c0 50 -16 92 -48 126zM440.998 436.995c-26 12 -54.334 18 -85.001 18c-53.333 0 -97.666 -17 -132.999 -51s-53 -77.667 -53 -131
c0 -24 3.83301 -46.667 11.5 -68s19.5 -40.333 35.5 -57z" />
    <glyph glyph-name="ugrave" unicode="&#xf9;" horiz-adv-x="685" 
d="M650 533c-10.667 -3.33301 -18.666 -7.66797 -23.999 -13.001s-8 -13.333 -8 -24v-289c0 -84 -23.333 -141.5 -70 -172.5s-115.334 -46.5 -206.001 -46.5c-90 0 -158.667 15.333 -206 46s-71 88.334 -71 173.001v289c0 18 -10.333 30.333 -31 37v13h194v-13
c-20.667 -6.66699 -31 -19 -31 -37v-263c0 -52.667 11.5 -89.5 34.5 -110.5s61.833 -31.5 116.5 -31.5c54 0 92.667 10.667 116 32s35 58 35 110v263c0 10 -2.5 17.833 -7.5 23.5s-12.833 10.167 -23.5 13.5l-1 13h183v-13zM429.001 745.998v-13
c-8.66699 -1.33301 -13 -5 -13 -11c0 -6.66699 3.16699 -18.834 9.5 -36.501l16.5 -46.5c4.66699 -13.333 12.667 -20 24 -20v-13h-98v13c8 0 12 2.66699 12 8c-1.33301 4.66699 -2.33301 7.33398 -3 8.00098l-66 84c-6 7.33301 -14.333 12 -25 14v13h143z" />
    <glyph glyph-name="uacute" unicode="&#xfa;" horiz-adv-x="685" 
d="M650 533c-10.667 -3.33301 -18.666 -7.66797 -23.999 -13.001s-8 -13.333 -8 -24v-289c0 -84 -23.333 -141.5 -70 -172.5s-115.334 -46.5 -206.001 -46.5c-90 0 -158.667 15.333 -206 46s-71 88.334 -71 173.001v289c0 18 -10.333 30.333 -31 37v13h194v-13
c-20.667 -6.66699 -31 -19 -31 -37v-263c0 -52.667 11.5 -89.5 34.5 -110.5s61.833 -31.5 116.5 -31.5c54 0 92.667 10.667 116 32s35 58 35 110v263c0 10 -2.5 17.833 -7.5 23.5s-12.833 10.167 -23.5 13.5l-1 13h183v-13zM466.001 732.998
c-6 -1.33301 -10.8311 -2.83203 -14.498 -4.49902s-7.16699 -4.83398 -10.5 -9.50098l-66 -84c-0.666992 -0.666992 -1.33398 -1.66699 -2.00098 -3s-1 -2.33301 -1 -3c0 -6.66699 4 -10 12 -10v-13h-98v13c11.333 0 20.166 10 26.499 30l23.5 73
c0 6 -4.66699 9.66699 -14 11v13h144v-13z" />
    <glyph glyph-name="ucircumflex" unicode="&#xfb;" horiz-adv-x="685" 
d="M650 533c-10.667 -3.33301 -18.666 -7.66797 -23.999 -13.001s-8 -13.333 -8 -24v-289c0 -84 -23.333 -141.5 -70 -172.5s-115.334 -46.5 -206.001 -46.5c-90 0 -158.667 15.333 -206 46s-71 88.334 -71 173.001v289c0 18 -10.333 30.333 -31 37v13h194v-13
c-20.667 -6.66699 -31 -19 -31 -37v-263c0 -52.667 11.5 -89.5 34.5 -110.5s61.833 -31.5 116.5 -31.5c54 0 92.667 10.667 116 32s35 58 35 110v263c0 10 -2.5 17.833 -7.5 23.5s-12.833 10.167 -23.5 13.5l-1 13h183v-13zM216.001 605.998v13.002
c12 1.33301 20.333 4.66602 25 9.99902l71 83c3.33301 4 5 9.33301 5 16c-2 3.33301 -7.33301 5 -16 5v13h124v-13c-9.33301 -2 -14 -5 -14 -9c0 -2.66699 1 -5.5 3 -8.5s3.33301 -4.83301 4 -5.5l75 -81c6 -6 13.667 -9.33301 23 -10v-13h-127v13c10 2 15 4.33301 15 7
c0 3.33301 -4.33301 9.66602 -13 18.999l-41 44l-44 -53l-5 -9c0 -3.33301 5 -6 15 -8v-13h-100z" />
    <glyph glyph-name="udieresis" unicode="&#xfc;" horiz-adv-x="687" 
d="M650 533c-10.667 -3.33301 -18.666 -7.66797 -23.999 -13.001s-8 -13.333 -8 -24v-289c0 -84 -23.333 -141.5 -70 -172.5s-115.334 -46.5 -206.001 -46.5c-90 0 -158.667 15.333 -206 46s-71 88.334 -71 173.001v289c0 18 -10.333 30.333 -31 37v13h194v-13
c-20.667 -6.66699 -31 -19 -31 -37v-263c0 -52.667 11.5 -89.5 34.5 -110.5s61.833 -31.5 116.5 -31.5c54 0 92.667 10.667 116 32s35 58 35 110v263c0 10 -2.5 17.833 -7.5 23.5s-12.833 10.167 -23.5 13.5l-1 13h183v-13zM194.001 658.998
c0 19.333 6.83301 35.833 20.5 49.5s30.167 20.5 49.5 20.5s35.833 -6.83301 49.5 -20.5s20.5 -30.167 20.5 -49.5s-6.83301 -35.833 -20.5 -49.5s-30.167 -20.5 -49.5 -20.5s-35.833 6.83301 -49.5 20.5s-20.5 30.167 -20.5 49.5zM401.001 658.998
c0 19.333 6.83301 35.833 20.5 49.5s30.167 20.5 49.5 20.5s35.833 -6.83301 49.5 -20.5s20.5 -30.167 20.5 -49.5s-6.83301 -35.833 -20.5 -49.5s-30.167 -20.5 -49.5 -20.5s-35.833 6.83301 -49.5 20.5s-20.5 30.167 -20.5 49.5z" />
    <glyph glyph-name="yacute" unicode="&#xfd;" horiz-adv-x="689" 
d="M409 50c0 -18 10.6641 -30.3311 31.9971 -36.998v-13h-194v13c10.667 3.33301 18.667 7.66602 24 12.999s8 13.333 8 24v190l-162 223c-15.333 20.667 -28.666 36.667 -39.999 48s-25.666 18.666 -42.999 21.999v13h246v-13
c-10.667 -2.66699 -18.5 -5.83398 -23.5 -9.50098s-7.5 -9.5 -7.5 -17.5c0 -8.66699 1.5 -15.5 4.5 -20.5s9.16699 -13.5 18.5 -25.5l79 -110l77 110c6 8 11.333 15.667 16 23s7 14 7 20c0 8 -3 14.333 -9 19s-13.333 8.33398 -22 11.001v13h234v-13
c-17.333 -3.33301 -31.666 -10.5 -42.999 -21.5s-24.333 -27.167 -39 -48.5l-163 -223v-190zM477.997 710.002c-6 -1.33301 -10.8311 -2.83203 -14.498 -4.49902s-7.16699 -4.83398 -10.5 -9.50098l-66 -84c-0.666992 -0.666992 -1.33398 -1.66699 -2.00098 -3
s-1 -2.33301 -1 -3c0 -6.66699 4 -10 12 -10v-13h-98v13c11.333 0 20.166 10 26.499 30l23.5 73c0 6 -4.66699 9.66699 -14 11v13h144v-13z" />
    <glyph glyph-name="thorn" unicode="&#xfe;" horiz-adv-x="652" 
d="M197 50c0 -10 2.5 -17.8311 7.5 -23.498s12.833 -10.167 23.5 -13.5v-13h-193v13c20.667 5.33301 31 17.666 31 36.999v447c0 18.667 -10.333 30.667 -31 36v13h193v-13c-20.667 -4.66699 -31 -15.334 -31 -32.001v-20h194c67.333 0 122 -11.333 164 -34s63 -65 63 -127
c0 -59.333 -21.667 -101 -65 -125s-97.333 -36 -162 -36h-194v-109zM384 259.002c30.667 0 54.833 3.5 72.5 10.5s26.5 23.833 26.5 50.5s-9 43.667 -27 51s-42 11 -72 11h-187v-123h187z" />
    <glyph glyph-name="ydieresis" unicode="&#xff;" horiz-adv-x="689" 
d="M409 50c0 -18 10.6641 -30.3311 31.9971 -36.998v-13h-194v13c10.667 3.33301 18.667 7.66602 24 12.999s8 13.333 8 24v190l-162 223c-15.333 20.667 -28.666 36.667 -39.999 48s-25.666 18.666 -42.999 21.999v13h246v-13
c-10.667 -2.66699 -18.5 -5.83398 -23.5 -9.50098s-7.5 -9.5 -7.5 -17.5c0 -8.66699 1.5 -15.5 4.5 -20.5s9.16699 -13.5 18.5 -25.5l79 -110l77 110c6 8 11.333 15.667 16 23s7 14 7 20c0 8 -3 14.333 -9 19s-13.333 8.33398 -22 11.001v13h234v-13
c-17.333 -3.33301 -31.666 -10.5 -42.999 -21.5s-24.333 -27.167 -39 -48.5l-163 -223v-190zM184.997 653.002c0 19.333 6.83301 35.833 20.5 49.5s30.167 20.5 49.5 20.5s35.833 -6.83301 49.5 -20.5s20.5 -30.167 20.5 -49.5s-6.83301 -35.833 -20.5 -49.5
s-30.167 -20.5 -49.5 -20.5s-35.833 6.83301 -49.5 20.5s-20.5 30.167 -20.5 49.5zM391.997 653.002c0 19.333 6.83301 35.833 20.5 49.5s30.167 20.5 49.5 20.5s35.833 -6.83301 49.5 -20.5s20.5 -30.167 20.5 -49.5s-6.83301 -35.833 -20.5 -49.5
s-30.167 -20.5 -49.5 -20.5s-35.833 6.83301 -49.5 20.5s-20.5 30.167 -20.5 49.5z" />
    <glyph glyph-name="OE" unicode="&#x152;" horiz-adv-x="1181" 
d="M661 110h428.999c10 0 17.833 2.83301 23.5 8.5s9.5 13.5 11.5 23.5h16v-173h-16c-2.66699 10 -6.66699 17.667 -12 23s-13 8 -23 8h-574l-93 -4c-106.667 0 -197.167 30.167 -271.5 90.5s-111.5 142.833 -111.5 247.5s37.167 187 111.5 247s164.833 90 271.5 90l93 -4
h562c10.667 0 18.667 2.5 24 7.5s9.33301 12.833 12 23.5h15v-172h-15c-3.33301 10 -7.66602 17.667 -12.999 23s-13 8 -23 8h-417v-158h271c10 0 17.667 2.5 23 7.5s9.33301 12.833 12 23.5h16v-168h-16c-2.66699 10 -6.66699 17.667 -12 23s-13 8 -23 8h-271v-183z
M422.999 562c-70 0 -126.5 -20.5 -169.5 -61.5s-64.5 -96.5 -64.5 -166.5c0 -69.333 21.5 -124.833 64.5 -166.5s99.5 -62.5 169.5 -62.5c27.333 0 58.333 1.66699 93 5v447c-13.333 2 -27.5 3.33301 -42.5 4s-31.833 1 -50.5 1z" />
    <glyph glyph-name="oe" unicode="&#x153;" horiz-adv-x="994" 
d="M563 100h346.998c18.667 0 30.667 10.333 36 31h13v-162h-13c-5.33301 20.667 -17.333 31 -36 31h-479l-75 -4c-89.333 0 -165.166 24.5 -227.499 73.5s-93.5 117.167 -93.5 204.5c0 86 31.5 153.667 94.5 203s138.5 74 226.5 74l75 -4h465c18 0 30.333 10.333 37 31h13
v-162h-13c-6.66699 20.667 -19 31 -37 31h-333v-119h206c10 0 17.833 2.66699 23.5 8s9.83398 13 12.501 23h13v-158h-13c-5.33301 21.333 -17.333 32 -36 32h-206v-133zM355.998 453c-54 0 -98.5 -16.501 -133.5 -49.501s-52.5 -76.167 -52.5 -129.5
c0 -54 17.5 -97.5 52.5 -130.5s79.5 -49.5 133.5 -49.5c25.333 0 50.666 2 75.999 6v347c-12.667 2.66699 -24.667 4.33398 -36 5.00098s-24.666 1 -39.999 1z" />
    <glyph glyph-name="Scaron" unicode="&#x160;" horiz-adv-x="720" 
d="M601 453l-14.0039 8c0 10 -2.16699 18 -6.5 24s-23.166 20.667 -56.499 44s-85 35 -155 35c-44.667 0 -83.167 -4.66699 -115.5 -14s-50.166 -30.666 -53.499 -63.999c0 -22.667 8.33301 -38.5 25 -47.5s64 -17.5 142 -25.5s149.5 -23.333 214.5 -46
s97.5 -77.334 97.5 -164.001c0 -74.667 -31.167 -129.167 -93.5 -163.5s-134.166 -51.5 -215.499 -51.5c-44 0 -86.667 4.5 -128 13.5s-74 19.667 -98 32l-47 24.5c-7.33301 4 -14 6 -20 6c-7.33301 0 -15 -3.33301 -23 -10l-14 7l72 163l15 -6c0 -37.333 28 -66 84 -86
s107.333 -30 154 -30c44 0 83.833 6.66699 119.5 20s53.5 37.666 53.5 72.999s-51.833 59 -155.5 71s-182.5 27.667 -236.5 47s-81 70.333 -81 153c0 74.667 29.333 128.667 88 162s128.334 50 209.001 50c37.333 0 75 -4.66699 113 -14s68.667 -19.166 92 -29.499l48 -21
c8.66699 -3.66699 17.334 -6.16699 26.001 -7.5c3.33301 0 7.16602 0.833008 11.499 2.5s8.83301 4.5 13.5 8.5l14 -7zM519.996 845l-0.000976562 -13c-12 -1.33301 -25.333 -9.66602 -40 -24.999s-28.667 -31.166 -42 -47.499s-20 -27.5 -20 -33.5
c0 -3.33301 1.66699 -5.5 5 -6.5s7.33301 -1.5 12 -1.5v-13h-125v13c10 2 15 5 15 9c0 2 -2.66699 6.66699 -8 14l-75 81c-4.66699 5.33301 -12 8.66602 -22 9.99902v13h126v-13c-3.33301 -0.666992 -6.33301 -1 -9 -1c-4 -1.33301 -6 -3.33301 -6 -6
c4.66699 -10.667 12.334 -21.334 23.001 -32.001l31 -31l45 53l5 9c0 3.33301 -5 6 -15 8v13h100z" />
    <glyph glyph-name="scaron" unicode="&#x161;" horiz-adv-x="622" 
d="M511 370l-11.9971 6.00098c0 24.667 -23.667 44.667 -71 60s-88.333 23 -123 23c-32.667 0 -64.167 -4.5 -94.5 -13.5s-47.166 -25.833 -50.499 -50.5c0 -28 45.667 -47 137 -57s162.5 -23.667 213.5 -41s76.5 -61.333 76.5 -132
c0 -60.667 -27.333 -105.334 -82 -134.001s-115.334 -43 -182.001 -43c-41.333 0 -81.5 3.66699 -120.5 11s-76.5 19.333 -112.5 36c-8 2.66699 -15.667 5.66699 -23 9c-6.66699 0 -13.334 -4 -20.001 -12l-12 5l56 134l13 -5c0 -27.333 25.5 -47.333 76.5 -60
s96.5 -19 136.5 -19c34 0 66.333 4.66699 97 14s46 27 46 53c0 30 -45.5 49 -136.5 57s-160.167 19.833 -207.5 35.5s-71 60.167 -71 133.5c0 60.667 25.667 105.5 77 134.5s110 43.5 176 43.5c39.333 0 80.666 -6.66699 123.999 -20l122 -45c4 0 7.66699 1 11 3
s6.66602 4.33301 9.99902 7l12 -6zM470.003 730.001l-0.000976562 -13c-12 -1.33301 -25.333 -9.66602 -40 -24.999s-28.667 -31.166 -42 -47.499s-20 -27.5 -20 -33.5c0 -3.33301 1.66699 -5.5 5 -6.5s7.33301 -1.5 12 -1.5v-13h-125v13c10 2 15 5 15 9
c0 2 -2.66699 6.66699 -8 14l-75 81c-4.66699 5.33301 -12 8.66602 -22 9.99902v13h126v-13c-3.33301 -0.666992 -6.33301 -1 -9 -1c-4 -1.33301 -6 -3.33301 -6 -6c4.66699 -10.667 12.334 -21.334 23.001 -32.001l31 -31l45 53l5 9c0 3.33301 -5 6 -15 8v13h100z" />
    <glyph glyph-name="Ydieresis" unicode="&#x178;" horiz-adv-x="820" 
d="M482 51c0 -9.33301 2.83105 -16.832 8.49805 -22.499s13.834 -9.83398 24.501 -12.501v-16h-210v16c21.333 5.33301 32 17 32 35v228l-215 303c-18 24.667 -31.667 41.834 -41 51.501s-23 15.5 -41 17.5v16h264v-16c-8.66699 -1.33301 -16 -4 -22 -8
s-9.66699 -10 -11 -18c0 -7.33301 2 -14.666 6 -21.999c6.66699 -9.33301 11.334 -16.333 14.001 -21l120 -179l123 179c8.66699 11.333 14.167 19.166 16.5 23.499s3.5 9.5 3.5 15.5c0 8 -3 14.667 -9 20s-13.667 8.66602 -23 9.99902v16h258v-16
c-17.333 -2 -31.5 -8.5 -42.5 -19.5s-24.167 -27.5 -39.5 -49.5l-216 -303v-228zM251.998 776.001c0 19.333 6.83301 35.833 20.5 49.5s30.167 20.5 49.5 20.5s35.833 -6.83301 49.5 -20.5s20.5 -30.167 20.5 -49.5s-6.83301 -35.833 -20.5 -49.5s-30.167 -20.5 -49.5 -20.5
s-35.833 6.83301 -49.5 20.5s-20.5 30.167 -20.5 49.5zM458.998 776.001c0 19.333 6.83301 35.833 20.5 49.5s30.167 20.5 49.5 20.5s35.833 -6.83301 49.5 -20.5s20.5 -30.167 20.5 -49.5s-6.83301 -35.833 -20.5 -49.5s-30.167 -20.5 -49.5 -20.5
s-35.833 6.83301 -49.5 20.5s-20.5 30.167 -20.5 49.5z" />
    <glyph glyph-name="florin" unicode="&#x192;" horiz-adv-x="558" 
d="M430 413h-76.0029l-28 -153c-13.333 -70.667 -27.833 -133 -43.5 -187s-40.667 -103.667 -75 -149s-78.166 -68 -131.499 -68c-23.333 0 -44 6.66699 -62 20s-27 31.333 -27 54c0 13.333 3.83301 25.166 11.5 35.499s18.167 15.5 31.5 15.5
c11.333 0 20.666 -3.66699 27.999 -11s11 -16.666 11 -27.999c0 -3.33301 -1.16699 -9.66602 -3.5 -18.999s-3.5 -16.333 -3.5 -21c0 -5.33301 2.5 -9.5 7.5 -12.5s10.5 -4.5 16.5 -4.5c38 0 63.167 26.667 75.5 80s22.833 103.666 31.5 150.999l27 154l18 107l7 36h-74
l9 41c29.333 0 49.666 2.83301 60.999 8.5s21 29.167 29 70.5s28.167 83.5 60.5 126.5s74.5 64.5 126.5 64.5c24.667 0 46.834 -6.5 66.501 -19.5s29.5 -31.167 29.5 -54.5c0 -12.667 -3.16699 -23.5 -9.5 -32.5s-15.166 -13.5 -26.499 -13.5c-12 0 -22 3.66699 -30 11
s-12 17 -12 29c0 4 1.16699 9.5 3.5 16.5s3.5 12.167 3.5 15.5c0 13.333 -7.66699 20 -23 20c-29.333 0 -49.166 -18.167 -59.499 -54.5s-24.166 -98.5 -41.499 -186.5h81z" />
    <glyph glyph-name="circumflex" unicode="&#x2c6;" 
d="M100 607v13.002c12 1.33301 20.333 4.66602 25 9.99902l71 83c3.33301 4 5 9.33301 5 16c-2 3.33301 -7.33301 5 -16 5v13h124v-13c-9.33301 -2 -14 -5 -14 -9c0 -2.66699 1 -5.5 3 -8.5s3.33301 -4.83301 4 -5.5l75 -81c6 -6 13.667 -9.33301 23 -10v-13h-127v13
c10 2 15 4.33301 15 7c0 3.33301 -4.33301 9.66602 -13 18.999l-41 44l-44 -53l-5 -9c0 -3.33301 5 -6 15 -8v-13h-100z" />
    <glyph glyph-name="endash" unicode="&#x2013;" horiz-adv-x="665" 
d="M622 203h-16c-2.66699 10 -6.66699 17.667 -12 23s-13 8 -23 8h-476c-8.66699 0 -15.667 -1.66699 -21 -5s-10 -12 -14 -26h-16v166h16c2.66699 -10 6.66699 -17.667 12 -23s13 -8 23 -8h476c8.66699 0 15.667 1.66699 21 5s10 12 14 26h16v-166z" />
    <glyph glyph-name="emdash" unicode="&#x2014;" horiz-adv-x="665" 
d="M649 203h-16c-2.66699 10 -6.66699 17.667 -12 23s-13 8 -23 8h-530c-8.66699 0 -15.667 -1.66699 -21 -5s-10 -12 -14 -26h-16v166h16c2.66699 -10 6.66699 -17.667 12 -23s13 -8 23 -8h530c8.66699 0 15.667 1.66699 21 5s10 12 14 26h16v-166z" />
    <glyph glyph-name="quoteleft" unicode="&#x2018;" horiz-adv-x="249" 
d="M104 529l17.5 3.49902c5 1 9.16699 1.5 12.5 1.5c24.667 0 44.5 -7.16699 59.5 -21.5s22.5 -33.833 22.5 -58.5c0 -23.333 -7.83301 -41.833 -23.5 -55.5s-35.5 -20.5 -59.5 -20.5c-28.667 0 -50.834 12 -66.501 36s-23.5 51.333 -23.5 82
c0 37.333 10.833 70.333 32.5 99s50.834 55.334 87.501 80.001l23 -32c-24 -15.333 -42.5 -31.5 -55.5 -48.5s-21.833 -38.833 -26.5 -65.5z" />
    <glyph glyph-name="quoteright" unicode="&#x2019;" horiz-adv-x="249" 
d="M155 524l-17.501 -3.50293c-5 -1 -9.5 -1.5 -13.5 -1.5c-24 0 -43.5 7.16699 -58.5 21.5s-22.5 33.5 -22.5 57.5s7.83301 42.833 23.5 56.5s35.5 20.5 59.5 20.5c28.667 0 50.834 -12.333 66.501 -37s23.5 -52 23.5 -82c0 -36.667 -11 -69.667 -33 -99
s-51 -55.666 -87 -78.999l-24 31c24.667 16.667 43.5 33.334 56.5 50.001s21.833 38.334 26.5 65.001z" />
    <glyph glyph-name="quotesinglbase" unicode="&#x201a;" horiz-adv-x="249" 
d="M155 2l-17.501 -3.50293c-5 -1 -9.5 -1.5 -13.5 -1.5c-24 0 -43.5 7.16699 -58.5 21.5s-22.5 33.5 -22.5 57.5s7.83301 42.833 23.5 56.5s35.5 20.5 59.5 20.5c28.667 0 50.834 -12.333 66.501 -37s23.5 -52 23.5 -82c0 -36.667 -11 -69.667 -33 -99
s-51 -55.666 -87 -78.999l-24 31c24.667 16.667 43.5 33.334 56.5 50.001s21.833 38.334 26.5 65.001z" />
    <glyph glyph-name="quotedblleft" unicode="&#x201c;" horiz-adv-x="452" 
d="M311 529l17.499 3.49805c5 1 9.16699 1.5 12.5 1.5c24 0 43.5 -7.16699 58.5 -21.5s22.5 -33.833 22.5 -58.5c0 -24 -7.66699 -42.667 -23 -56s-35 -20 -59 -20c-28.667 0 -50.834 12 -66.501 36s-23.5 51.333 -23.5 82c0 37.333 10.833 70.333 32.5 99
s50.834 55.334 87.501 80.001l23 -32c-23.333 -15.333 -41.666 -31.666 -54.999 -48.999s-22.333 -39 -27 -65zM104.999 528.998l17.5 3.49902c5 1 9.16699 1.5 12.5 1.5c24.667 0 44.5 -7.16699 59.5 -21.5s22.5 -33.833 22.5 -58.5
c0 -23.333 -7.83301 -41.833 -23.5 -55.5s-35.5 -20.5 -59.5 -20.5c-28.667 0 -50.834 12 -66.501 36s-23.5 51.333 -23.5 82c0 37.333 10.833 70.333 32.5 99s50.834 55.334 87.501 80.001l23 -32c-24 -15.333 -42.5 -31.5 -55.5 -48.5s-21.833 -38.833 -26.5 -65.5z" />
    <glyph glyph-name="quotedblright" unicode="&#x201d;" horiz-adv-x="452" 
d="M156 524l-17.501 -3.50293c-5 -1 -9.5 -1.5 -13.5 -1.5c-24 0 -43.5 7.16699 -58.5 21.5s-22.5 33.5 -22.5 57.5s7.83301 42.833 23.5 56.5s35.5 20.5 59.5 20.5c28.667 0 50.834 -12.333 66.501 -37s23.5 -52 23.5 -82c0 -36.667 -11 -69.667 -33 -99
s-51 -55.666 -87 -78.999l-24 31c24.667 16.667 43.5 33.334 56.5 50.001s21.833 38.334 26.5 65.001zM361.999 523.997c-5.33301 -1.33301 -10.833 -2.50293 -16.5 -3.50293s-10.5 -1.5 -14.5 -1.5c-24 0 -43.5 7.16699 -58.5 21.5s-22.5 33.5 -22.5 57.5
s7.83301 42.833 23.5 56.5s35.5 20.5 59.5 20.5c29.333 0 51.5 -12.167 66.5 -36.5s22.5 -51.833 22.5 -82.5c0 -36.667 -10.667 -69.167 -32 -97.5s-50.333 -55.166 -87 -80.499l-24 31c24.667 16.667 43.5 33.334 56.5 50.001s21.833 38.334 26.5 65.001z" />
    <glyph glyph-name="quotedblbase" unicode="&#x201e;" horiz-adv-x="452" 
d="M156 2l-17.501 -3.50293c-5 -1 -9.5 -1.5 -13.5 -1.5c-24 0 -43.5 7.16699 -58.5 21.5s-22.5 33.5 -22.5 57.5s7.83301 42.833 23.5 56.5s35.5 20.5 59.5 20.5c28.667 0 50.834 -12.333 66.501 -37s23.5 -52 23.5 -82c0 -36.667 -11 -69.667 -33 -99
s-51 -55.666 -87 -78.999l-24 31c24.667 16.667 43.5 33.334 56.5 50.001s21.833 38.334 26.5 65.001zM361.999 1.99707c-5.33301 -1.33301 -10.833 -2.50293 -16.5 -3.50293s-10.5 -1.5 -14.5 -1.5c-24 0 -43.5 7.16699 -58.5 21.5s-22.5 33.5 -22.5 57.5
s7.83301 42.833 23.5 56.5s35.5 20.5 59.5 20.5c29.333 0 51.5 -12.167 66.5 -36.5s22.5 -51.833 22.5 -82.5c0 -36.667 -10.667 -69.167 -32 -97.5s-50.333 -55.166 -87 -80.499l-24 31c24.667 16.667 43.5 33.334 56.5 50.001s21.833 38.334 26.5 65.001z" />
    <glyph glyph-name="dagger" unicode="&#x2020;" horiz-adv-x="468" 
d="M406 524c10.667 0 19.168 2.83301 25.501 8.5s9.5 13.167 9.5 22.5h16v-154h-16c0 8.66699 -3.33301 16 -10 22s-15 9 -25 9h-109v-448c0 -10 3 -18.333 9 -25s13.333 -10 22 -10v-16h-188v16c20.667 0 31 11.667 31 35v448h-109c-23.333 0 -35 -10.333 -35 -31h-16v154
h16c0 -11.333 4.16699 -19.333 12.5 -24s20.166 -7 35.499 -7h96v158c0 23.333 -10.333 35 -31 35v16h188v-16c-20.667 0 -31 -11.667 -31 -35v-158h109z" />
    <glyph glyph-name="daggerdbl" unicode="&#x2021;" horiz-adv-x="468" 
d="M406 524c23.333 0 34.999 10.333 34.999 31h16v-154h-16c0 9.33301 -3.16699 16.833 -9.5 22.5s-14.833 8.5 -25.5 8.5h-109v-196h108c10 0 18.5 2.5 25.5 7.5s10.5 12.833 10.5 23.5h16v-154h-16c0 20.667 -13.333 31 -40 31h-104v-160c0 -22 10.333 -33 31 -33v-16
h-188v16c20.667 0 31 11 31 33v160h-112c-8.66699 0 -16.167 -2.33301 -22.5 -7s-9.5 -12.667 -9.5 -24h-16v154h16c0 -11.333 3.33301 -19.333 10 -24s15.334 -7 26.001 -7h108v196h-109c-23.333 0 -35 -10.333 -35 -31h-16v154h16c0 -12 3.66699 -20.167 11 -24.5
s17.333 -6.5 30 -6.5h103v158c0 23.333 -10.333 35 -31 35v16h188v-16c-20.667 0 -31 -11.667 -31 -35v-158h109z" />
    <glyph glyph-name="bullet" unicode="&#x2022;" horiz-adv-x="600" 
d="M294 382c26.667 0 49.667 -9.33301 69 -28s29 -41.334 29 -68.001s-9.33301 -49.334 -28 -68.001s-42 -28 -70 -28c-26.667 0 -49.334 9.33301 -68.001 28s-28 41.334 -28 68.001s9.33301 49.334 28 68.001s41.334 28 68.001 28z" />
    <glyph glyph-name="ellipsis" unicode="&#x2026;" horiz-adv-x="670" 
d="M111 -8c-21.333 0 -39.667 7.66699 -55 23s-23 33.666 -23 54.999s7.5 39.833 22.5 55.5s33.5 23.5 55.5 23.5s40.667 -7.66699 56 -23s23 -34 23 -56c0 -21.333 -7.66699 -39.666 -23 -54.999s-34 -23 -56 -23zM334.999 -8c-21.333 0 -39.833 7.49902 -55.5 22.499
s-23.5 33.5 -23.5 55.5s7.66699 40.667 23 56s34 23 56 23c21.333 0 39.666 -7.66699 54.999 -23s23 -34 23 -56c0 -21.333 -7.66699 -39.666 -23 -54.999s-33.666 -23 -54.999 -23zM557.999 -8.00098c-21.333 0 -39.667 7.66699 -55 23s-23 33.666 -23 54.999
s7.5 39.833 22.5 55.5s33.5 23.5 55.5 23.5s40.667 -7.66699 56 -23s23 -34 23 -56c0 -21.333 -7.66699 -39.666 -23 -54.999s-34 -23 -56 -23z" />
    <glyph glyph-name="perthousand" unicode="&#x2030;" horiz-adv-x="1224" 
d="M204 327c-49.333 0 -90 16.333 -122 49s-48 74 -48 124s15.833 91.167 47.5 123.5s72.5 48.5 122.5 48.5c50.667 0 91.834 -16.167 123.501 -48.5s47.5 -73.5 47.5 -123.5c0 -50.667 -15.833 -92.167 -47.5 -124.5s-72.834 -48.5 -123.501 -48.5zM204 602
c-26.667 0 -47.667 -10.167 -63 -30.5s-23 -44.166 -23 -71.499s7.66699 -51.333 23 -72s36.333 -31 63 -31s47.667 10.167 63 30.5s23 44.5 23 72.5c0 27.333 -7.66699 51.166 -23 71.499s-36.333 30.5 -63 30.5zM614 -6c-50.667 0 -91.834 16.167 -123.501 48.5
s-47.5 73.833 -47.5 124.5c0 50 15.833 91.167 47.5 123.5s72.834 48.5 123.501 48.5c50 0 90.833 -16.167 122.5 -48.5s47.5 -73.5 47.5 -123.5c0 -50.667 -15.833 -92.167 -47.5 -124.5s-72.5 -48.5 -122.5 -48.5zM614 269c-26.667 0 -47.667 -10.167 -63 -30.5
s-23 -44.166 -23 -71.499s7.66699 -51.333 23 -72s36.333 -31 63 -31s47.667 10.167 63 30.5s23 44.5 23 72.5c0 27.333 -7.66699 51.166 -23 71.499s-36.333 30.5 -63 30.5zM724 651c-13.333 -2 -25 -6.83203 -35 -14.499s-26 -25.834 -48 -54.501l-392 -508
c-5.33301 -6.66699 -9.66602 -12.667 -12.999 -18s-5 -10.333 -5 -15c0 -8 2.66699 -13.833 8 -17.5s12.666 -6.16699 21.999 -7.5v-16h-175v16c19.333 2.66699 33.833 8.5 43.5 17.5s24.5 26.5 44.5 52.5l385 496c6 7.33301 11 14.333 15 21s6 13 6 19
c0 7.33301 -2.83301 13.5 -8.5 18.5s-12.5 8.5 -20.5 10.5v16h173v-16zM1026 -5.99902c-50.667 0 -91.834 16.167 -123.501 48.5s-47.5 73.833 -47.5 124.5c0 50 15.833 91.167 47.5 123.5s72.834 48.5 123.501 48.5c50 0 90.833 -16.167 122.5 -48.5
s47.5 -73.5 47.5 -123.5c0 -50.667 -15.833 -92.167 -47.5 -124.5s-72.5 -48.5 -122.5 -48.5zM1026 269.001c-26.667 0 -47.667 -10.167 -63 -30.5s-23 -44.166 -23 -71.499s7.66699 -51.333 23 -72s36.333 -31 63 -31s47.667 10.167 63 30.5s23 44.5 23 72.5
c0 27.333 -7.66699 51.166 -23 71.499s-36.333 30.5 -63 30.5z" />
    <glyph glyph-name="guilsinglleft" unicode="&#x2039;" horiz-adv-x="180" 
d="M96 87l-95 197l95 196h84l-96 -196l96 -197h-84z" />
    <glyph glyph-name="guilsinglright" unicode="&#x203a;" horiz-adv-x="180" 
d="M85 480l95 -196l-95 -197h-84l96 197l-96 196h84z" />
    <glyph glyph-name="trademark" unicode="&#x2122;" horiz-adv-x="1074" 
d="M289 300c0 -6.66699 2.16797 -11.167 6.50098 -13.5s8.5 -3.83301 12.5 -4.5v-15h-136v15c12.667 4 19 10 19 18v296h-124c-4 0 -7.66699 -1.16699 -11 -3.5s-6 -7.5 -8 -15.5h-17v109h17c3.33301 -12.667 9.66602 -19 18.999 -19h346c6 0 10.167 1.5 12.5 4.5
s4.5 7.83301 6.5 14.5h17v-109h-17c-4 12.667 -10.333 19 -19 19h-124v-296zM621.001 527v-226.998c0 -10 6.33301 -16 19 -18v-15h-129v15c12.667 2.66699 19 8.66699 19 18v334c0 5.33301 -1.5 9.16602 -4.5 11.499s-7.83301 4.5 -14.5 6.5v15h167v-15
c-9.33301 -1.33301 -14 -5 -14 -11c0 -6.66699 1 -11.334 3 -14.001l110 -192l110 189c4 6.66699 6.33301 12 7 16c0 7.33301 -5 11 -15 11v16h164v-15c-12.667 -2.66699 -19 -8.66699 -19 -18v-334c0 -6.66699 2.16699 -11.167 6.5 -13.5s8.5 -3.83301 12.5 -4.5v-15h-137
v15c13.333 2.66699 20 8.66699 20 18v228l-157 -260z" />
    <glyph glyph-name="glyph1" horiz-adv-x="0" 
 />
    <glyph glyph-name="glyph2" horiz-adv-x="278" 
 />
    <glyph glyph-name="fraction" horiz-adv-x="207" 
d="M-78 -26h-35l400 693h33z" />
    <glyph glyph-name="fi" horiz-adv-x="872" 
d="M196 50c0 -10 2.50098 -17.832 7.50098 -23.499s12.833 -10.167 23.5 -13.5v-13h-193v13c20.667 5.33301 31 17.666 31 36.999v447c0 18.667 -10.333 30.667 -31 36v13h490c18 0 30.333 10.667 37 32h13v-162h-13c-3.33301 10.667 -7.83301 18.5 -13.5 23.5
s-13.5 7.5 -23.5 7.5h-328v-119h206c18 0 30.333 10.333 37 31h13v-158h-14c-2.66699 9.33301 -6.83398 16.833 -12.501 22.5s-13.5 8.5 -23.5 8.5h-206v-182zM837.001 546.001v-12.999c-21.333 -5.33301 -32 -17.333 -32 -36v-447c0 -18 10.667 -30.333 32 -37v-13h-194v13
c21.333 5.33301 32 17.666 32 36.999v447c0 18.667 -10.667 30.667 -32 36v13h194z" />
    <glyph glyph-name="fl" horiz-adv-x="1197" 
d="M197 50c0 -10 2.50098 -17.832 7.50098 -23.499s12.833 -9.83398 23.5 -12.501v-14h-193v14c20.667 5.33301 31 17.333 31 36v447c0 18.667 -10.333 30.667 -31 36v14h490c18 0 30.333 10.333 37 31h13v-162h-13c-6.66699 20.667 -19 31 -37 31h-328v-119h206
c10.667 0 18.667 2.5 24 7.5s9.66602 12.833 12.999 23.5h13v-158h-14c-5.33301 21.333 -17.333 32 -36 32h-206v-183zM1113 100.001c18.667 0 30.667 10.333 36 31h14v-162h-14c-5.33301 20.667 -17.333 31 -36 31h-469v14c21.333 5.33301 32 17.333 32 36v447
c0 18.667 -10.667 30.667 -32 36v14h194v-14c-21.333 -5.33301 -32 -17.333 -32 -36v-397h307z" />
    <glyph glyph-name="dotlessi" horiz-adv-x="263" 
d="M228 546v-12.999c-20.667 -6 -31 -18 -31 -36v-447c0 -10 2.5 -17.833 7.5 -23.5s12.833 -10.167 23.5 -13.5v-13h-193v13c20.667 5.33301 31 17.666 31 36.999v447c0 18.667 -10.333 30.667 -31 36v13h193z" />
    <glyph glyph-name="tilde" 
d="M450 677l-7.00293 -11.999c-3.33301 1.33301 -5.66602 2.16602 -6.99902 2.49902s-2.33301 0.5 -3 0.5c-3.33301 0 -10 -5.83301 -20 -17.5s-22.167 -22.667 -36.5 -33s-30.166 -15.5 -47.499 -15.5c-18.667 0 -48.667 8.16699 -90 24.5s-68.666 24.5 -81.999 24.5
c-6.66699 0 -13.167 -2.16699 -19.5 -6.5s-10.166 -9.83301 -11.499 -16.5c0 -6 3 -11.333 9 -16l-6 -11l-80 46l7 9l9 -1l55.5 45.5c16.333 13 33.166 19.5 50.499 19.5c21.333 0 51 -8.16699 89 -24.5s66.667 -24.5 86 -24.5c6 0 12.333 2.5 19 7.5s10 10.5 10 16.5
s-3.66699 11.333 -11 16l8 12z" />
    <glyph glyph-name="macron" 
d="M114 607l-0.000976562 132h13c5.33301 -21.333 17.333 -32 36 -32h175c18.667 0 30.667 10.667 36 32h13v-132h-13c-5.33301 20.667 -17 31 -35 31h-176c-10 0 -17.667 -2.66699 -23 -8s-9.66602 -13 -12.999 -23h-13z" />
    <glyph glyph-name="breve" 
d="M92 736l86.0029 -0.000976562v-13c-6.66699 0 -10.334 -2.33301 -11.001 -7c0 -18.667 8.66699 -33.167 26 -43.5s36.333 -15.5 57 -15.5c19.333 0 38.166 4.83301 56.499 14.5s27.5 23.834 27.5 42.501c0 6 -4 9 -12 9v13h87v-13
c-6.66699 0 -10.834 -1.66699 -12.501 -5s-2.5 -8.66602 -2.5 -15.999c0 -34 -15 -60.667 -45 -80s-63 -29 -99 -29c-35.333 0 -68 9.16699 -98 27.5s-45 44.166 -45 77.499c0 16.667 -5 25 -15 25v13z" />
    <glyph glyph-name="dotaccent" 
d="M180 653c0 19.333 6.83301 35.833 20.5 49.5s30.167 20.5 49.5 20.5s35.833 -6.83301 49.5 -20.5s20.5 -30.167 20.5 -49.5s-6.83301 -35.833 -20.5 -49.5s-30.167 -20.5 -49.5 -20.5s-35.833 6.83301 -49.5 20.5s-20.5 30.167 -20.5 49.5z" />
    <glyph glyph-name="ring" 
d="M250 588c-29.333 0 -56.668 8 -82.001 24s-38 37.667 -38 65s12.667 49 38 65s52.666 24 81.999 24c28.667 0 55.834 -7.83301 81.501 -23.5s38.5 -37.5 38.5 -65.5c0 -27.333 -12.667 -49 -38 -65s-52.666 -24 -81.999 -24zM249.998 722
c-15.333 0 -29.5 -3.83203 -42.5 -11.499s-19.5 -18.834 -19.5 -33.501c0 -14 6.5 -25 19.5 -33s27.167 -12 42.5 -12c14.667 0 28.667 4 42 12s20 19 20 33s-6.5 25 -19.5 33s-27.167 12 -42.5 12z" />
    <glyph glyph-name="hungarumlaut" 
d="M303 734c-6 -1.33301 -10.8311 -2.83203 -14.498 -4.49902s-7.16699 -4.83398 -10.5 -9.50098l-66 -84c-0.666992 -0.666992 -1.33398 -1.66699 -2.00098 -3s-1 -2.33301 -1 -3c0 -6.66699 4 -10 12 -10v-13h-98v13c11.333 0 20.166 10 26.499 30l23.5 73
c0 6 -4.66699 9.66699 -14 11v13h144v-13zM483.002 734.001c-11.333 -2 -19.666 -6.66699 -24.999 -14l-66 -84c-0.666992 -0.666992 -1.33398 -1.66699 -2.00098 -3s-1 -2.33301 -1 -3c0 -6.66699 4 -10 12 -10v-13h-98v13c11.333 0 19 6 23 18l25 79l1 6
c0 6 -4.33301 9.66699 -13 11v13h144v-13z" />
    <glyph glyph-name="ogonek" 
d="M471 -87c0 -24.667 9.16602 -43.668 27.499 -57.001s40.5 -20 66.5 -20c4.66699 0 9.33398 0.333008 14.001 1l14 2l7 -13c-25.333 -18.667 -55 -28 -89 -28c-29.333 0 -54.333 8 -75 24s-31 38.333 -31 67c0 25.333 7.16699 47 21.5 65s33.833 33.333 58.5 46h36
c-16 -13.333 -28.333 -26.666 -37 -39.999s-13 -29 -13 -47z" />
    <glyph glyph-name="caron" 
d="M400 747l-0.000976562 -13c-12 -1.33301 -25.333 -9.66602 -40 -24.999s-28.667 -31.166 -42 -47.499s-20 -27.5 -20 -33.5c0 -3.33301 1.66699 -5.5 5 -6.5s7.33301 -1.5 12 -1.5v-13h-125v13c10 2 15 5 15 9c0 2 -2.66699 6.66699 -8 14l-75 81
c-4.66699 5.33301 -12 8.66602 -22 9.99902v13h126v-13c-3.33301 -0.666992 -6.33301 -1 -9 -1c-4 -1.33301 -6 -3.33301 -6 -6c4.66699 -10.667 12.334 -21.334 23.001 -32.001l31 -31l45 53l5 9c0 3.33301 -5 6 -15 8v13h100z" />
    <glyph glyph-name="Lslash" horiz-adv-x="718" 
d="M627 110c18 0 29.666 10.667 34.999 32h16v-173h-16c-2.66699 10 -6.66699 17.667 -12 23s-13 8 -23 8h-587v16c10 2.66699 17.667 6.66699 23 12s8 13 8 23v235h-31c-14 0 -24.333 -10.333 -31 -31h-16v158h15c1.33301 -7.33301 5 -14.5 11 -21.5s12.333 -10.5 19 -10.5
h33v235c0 8.66699 -1.66699 15.667 -5 21s-12 10 -26 14v16h208v-16c-21.333 -5.33301 -32 -17 -32 -35v-235h101c11.333 0 20.333 2.16699 27 6.5s12 12.833 16 25.5h15v-158h-13c-7.33301 20.667 -21.666 31 -42.999 31h-103v-176h411z" />
    <glyph glyph-name="lslash" horiz-adv-x="718" 
d="M507 100c7.33301 0 14.167 3.16797 20.5 9.50098s10.5 13.5 12.5 21.5h13v-162h-13c-2 6 -5 12.667 -9 20s-10.667 11 -20 11h-476v14c8 2.66699 15.167 6.66699 21.5 12s9.5 11.666 9.5 18.999v184h-24c-11.333 0 -19.666 -8 -24.999 -24h-13v126h12
c1.33301 -5.33301 4.33301 -11 9 -17s9.66699 -9 15 -9h26v201c0 8 -2.83301 14 -8.5 18s-13.167 7.33301 -22.5 10v13h193v-13c-8 -2 -15.167 -5.83301 -21.5 -11.5s-9.5 -12.5 -9.5 -20.5v-197h66c9.33301 0 16.666 1.83301 21.999 5.5s9.66602 10.5 12.999 20.5h12v-126
h-11c-5.33301 16 -16.666 24 -33.999 24h-68v-129h310z" />
    <glyph glyph-name="Zcaron" horiz-adv-x="714" 
d="M623 110c18 0 29.667 10.667 35 32h16v-173h-16c-2.66699 10 -6.66699 17.667 -12 23s-13 8 -23 8h-583v35l387 522h-333c-8.66699 0 -15.667 -1.66699 -21 -5s-10 -12 -14 -26h-16v172h16c2.66699 -10 6.66699 -17.667 12 -23s13 -8 23 -8h574v-28l-392 -529h347z
M547 846l-0.000976562 -13c-12 -1.33301 -25.333 -9.66602 -40 -24.999s-28.667 -31.166 -42 -47.499s-20 -27.5 -20 -33.5c0 -3.33301 1.66699 -5.5 5 -6.5s7.33301 -1.5 12 -1.5v-13h-125v13c10 2 15 5 15 9c0 2 -2.66699 6.66699 -8 14l-75 81
c-4.66699 5.33301 -12 8.66602 -22 9.99902v13h126v-13c-3.33301 -0.666992 -6.33301 -1 -9 -1c-4 -1.33301 -6 -3.33301 -6 -6c4.66699 -10.667 12.334 -21.334 23.001 -32.001l31 -31l45 53l5 9c0 3.33301 -5 6 -15 8v13h100z" />
    <glyph glyph-name="zcaron" horiz-adv-x="609" 
d="M525 100c18.667 0 30.667 10.333 36 31h13v-162h-13c-5.33301 20.667 -17.333 31 -36 31h-490v30l319 417h-265c-18 0 -30.333 -10.333 -37 -31h-13v162h13c3.33301 -10.667 7.83301 -18.5 13.5 -23.5s13.5 -7.5 23.5 -7.5h481v-24l-322 -423h277zM489 747
l-0.000976562 -13c-12 -1.33301 -25.333 -9.66602 -40 -24.999s-28.667 -31.166 -42 -47.499s-20 -27.5 -20 -33.5c0 -3.33301 1.66699 -5.5 5 -6.5s7.33301 -1.5 12 -1.5v-13h-125v13c10 2 15 5 15 9c0 2 -2.66699 6.66699 -8 14l-75 81
c-4.66699 5.33301 -12 8.66602 -22 9.99902v13h126v-13c-3.33301 -0.666992 -6.33301 -1 -9 -1c-4 -1.33301 -6 -3.33301 -6 -6c4.66699 -10.667 12.334 -21.334 23.001 -32.001l31 -31l45 53l5 9c0 3.33301 -5 6 -15 8v13h100z" />
    <glyph glyph-name="minus" 
d="M492 397v-74h-483v74h483z" />
  </font>
</defs>
</svg>
