<?xml version="1.0" standalone="no"?>
<!DOCTYPE svg PUBLIC "-//W3C//DTD SVG 1.1//EN" "http://www.w3.org/Graphics/SVG/1.1/DTD/svg11.dtd" >
<svg xmlns="http://www.w3.org/2000/svg">
<metadata>
This is a custom SVG webfont generated by Font Squirrel.
Copyright   :  The digitally encoded machine readable software for producing the Typefaces licensed to you is copyrighted c 1985 1987 1991 1993 1997 1998 1999 Adobe Systems All Rights Reserved This software is the property of Adobe Systems Incorporated and its licensors and may not be reproduced used displayed modified disclosed or transferred without the express written approval of Adobe  The digitally encoded machine readable outline data for producing the Typefaces licensed to you is copyrighted c 1981 1999 LinotypeHell AG andor its subsidiaries All Rights Reserved This data is the property of LinotypeHell AG andor its subsidiaries and may not be reproduced used displayed modified disclosed or  transferred without the express written approval of LinotypeHell AG  andor its subsidiaries 
</metadata>
<defs>
<font id="HelveticaCondensed" horiz-adv-x="500" >
<font-face units-per-em="1000" ascent="800" descent="-200" />
<missing-glyph horiz-adv-x="250" />
<glyph unicode=" "  horiz-adv-x="250" />
<glyph unicode="&#x09;" horiz-adv-x="250" />
<glyph unicode="&#xa0;" horiz-adv-x="250" />
<glyph unicode="!" horiz-adv-x="333" d="M144 183l-23 337v230h91v-230l-23 -337h-45zM212 0h-91v100h91v-100z" />
<glyph unicode="&#x22;" horiz-adv-x="250" d="M44 513v226h52v-226h-52zM155 513v226h52v-226h-52z" />
<glyph unicode="#" d="M33 0l79 254h-107l17 59h108l38 124h-109l17 59h109l79 254h55l-78 -254h88l77 254h56l-78 -254h111l-17 -59h-112l-38 -124h112l-15 -59h-115l-78 -254h-55l78 254h-87l-80 -254h-55zM186 313h87l38 124h-88z" />
<glyph unicode="$" d="M268 326v-264h9q102 0 102 122q0 60 -25 88t-86 54zM226 62v280q-44 20 -69.5 34.5t-56 39.5t-44.5 57.5t-14 75.5q0 87 50 142.5t134 58.5v65h42v-65q176 -7 176 -197v-3h-81q-1 30 -2.5 46t-12 38t-29.5 32q-25 9 -44 9h-7v-255q34 -15 47 -21t39 -19t35 -20.5t26 -21 t23 -25.5t14 -29t10.5 -37t2.5 -44q0 -100 -50 -158.5t-147 -59.5v-101h-42v101q-191 8 -191 214q0 22 1 33h80v-22q0 -34 3 -56.5t13.5 -45.5t34 -34.5t59.5 -11.5zM226 436v239q-98 -6 -98 -114q0 -49 23.5 -74.5t74.5 -50.5z" />
<glyph unicode="%" horiz-adv-x="833" d="M756 186q0 -186 -141 -186h-3q-54 1 -90 46.5t-36 142.5q0 173 139 173q71 0 101 -50t30 -126zM621 56q68 0 68 113q0 27 -1.5 44t-7 42t-21 38t-39.5 13t-38.5 -13t-20 -38t-7 -42t-1.5 -44q0 -113 68 -113zM194 736q49 0 79.5 -27.5t41 -65t10.5 -86.5 q0 -97 -29.5 -140.5t-92.5 -43.5h-18q-67 6 -98.5 47t-31.5 140q0 176 139 176zM190 430q68 0 68 113q0 27 -1.5 44t-7 42t-21 38t-39.5 13t-38.5 -13t-20 -38t-7 -42t-1.5 -44q0 -113 68 -113zM595 750l-332 -765h-54l335 765h51z" />
<glyph unicode="&#x26;" horiz-adv-x="667" d="M428 127l-163 243q-53 -39 -78.5 -76.5t-25.5 -94.5q0 -65 39 -103.5t104 -38.5q67 0 124 70zM292 469q40 30 61.5 60t21.5 72q0 34 -18.5 58t-52.5 24q-32 0 -51 -23.5t-19 -55.5q0 -51 58 -135zM328 414l144 -210q24 69 29 140h74q-9 -128 -54 -207l99 -139h-101 l-47 69q-69 -85 -177 -85q-101 0 -160.5 59t-59.5 159q0 79 38 128.5t116 98.5q-35 46 -53 83.5t-18 84.5q0 64 39.5 109.5t102.5 45.5q69 0 113 -40.5t44 -108.5q0 -101 -129 -187z" />
<glyph unicode="'" horiz-adv-x="250" d="M99 513v226h52v-226h-52z" />
<glyph unicode="(" horiz-adv-x="333" d="M231 750h53q-1 -3 -20 -41t-25 -51.5t-22 -53t-23 -68.5t-16.5 -72.5t-13.5 -91t-4 -100.5q0 -140 29.5 -254.5t99.5 -232.5h-58q-155 253 -155 475q0 140 36.5 248t118.5 242z" />
<glyph unicode=")" horiz-adv-x="333" d="M102 -215h-53q1 3 20 41t25 51.5t22 53t23 68.5t16.5 72.5t13.5 91t4 100.5q0 140 -29.5 254.5t-99.5 232.5h58q155 -253 155 -475q0 -140 -36.5 -248t-118.5 -242z" />
<glyph unicode="*" d="M113 669l113 -44v125h52v-122l111 41l16 -48l-114 -38l76 -96l-41 -32l-78 99l-72 -94l-43 27l75 93l-112 45z" />
<glyph unicode="+" d="M215 289v216h70v-216h172v-70h-172v-219h-70v219h-171v70h171z" />
<glyph unicode="," horiz-adv-x="250" d="M129 0h-49v100h91v-29q0 -64 -3 -89q-2 -75 -49 -108q-13 -11 -39 -20v45q14 2 23 13q26 28 26 88z" />
<glyph unicode="-" horiz-adv-x="333" d="M288 275h-243v83h243v-83z" />
<glyph unicode="." horiz-adv-x="250" d="M171 0h-91v100h91v-100z" />
<glyph unicode="/" horiz-adv-x="278" d="M48 -27h-61l243 777h61z" />
<glyph unicode="0" d="M132 382v-100q0 -50 3.5 -84t15 -68.5t36.5 -52t63 -17.5q28 0 48.5 11t33.5 34t20.5 47t11 62t4.5 65t1 70v83q0 48 -3.5 83.5t-14.5 75.5t-36.5 62t-64.5 22h-7q-111 0 -111 -244v-49zM250 -15q-42 0 -74.5 13t-53.5 32t-36 52.5t-22.5 62t-12 73.5t-5 74.5t-0.5 76.5 q0 37 1 65.5t5.5 70.5t12.5 73t23 65.5t36 56t53.5 36t72.5 14.5q41 0 74 -13t54 -32.5t36.5 -52t23 -60.5t11.5 -69.5t5 -67.5t1 -66v-20q0 -44 -1 -75.5t-5.5 -74.5t-12.5 -73t-23 -62.5t-36.5 -52.5t-53.5 -33t-73 -13z" />
<glyph unicode="1" d="M234 0v546h-160v65q88 2 129 29.5t49 109.5h65v-750h-83z" />
<glyph unicode="2" d="M319 307l-135 -123q-51 -46 -54 -109h317v-75h-403q2 94 30 162q13 31 59 75l143 138q46 44 62 76.5t16 91.5q0 132 -111 132q-45 0 -71 -26.5t-32.5 -59t-6.5 -77.5v-17h-83v46q0 89 48 150q57 59 149 59q94 0 143.5 -56.5t49.5 -152.5q0 -77 -28 -126t-93 -108z" />
<glyph unicode="3" d="M188 349v75q35 0 57.5 4t47.5 16t37.5 39t12.5 69q0 60 -23 91.5t-82 31.5q-64 0 -85.5 -39t-21.5 -108h-79v12q0 95 47 152.5t141 57.5q84 0 135.5 -51t51.5 -135q0 -65 -24 -106.5t-81 -61.5v-2q63 -14 94 -60t31 -113q0 -110 -51.5 -173t-159.5 -63q-198 0 -198 224 v11h82q-1 -9 -1 -25q0 -135 124 -135q59 0 90 37t31 97q0 93 -37 124t-132 31h-7z" />
<glyph unicode="4" d="M299 620l-205 -358h207v358h-2zM28 264l280 486h76v-488h67v-75h-67v-187h-83v187h-273v77z" />
<glyph unicode="5" d="M43 196h86v-14q0 -122 111 -122q62 0 91 51.5t29 129.5q0 176 -125 176q-75 0 -105 -68h-74l44 386h319v-75h-252l-33 -220l2 -2q50 54 119 54q97 -1 144 -69t47 -169q0 -53 -10.5 -98.5t-33 -85t-63.5 -62.5t-97 -23q-95 0 -147 51.5t-52 144.5v15z" />
<glyph unicode="6" d="M372 242q0 159 -121 159q-116 0 -116 -151v-18q0 -172 122 -172q115 0 115 182zM259 -15q-58 0 -99.5 22.5t-63.5 54.5t-34.5 83t-15.5 91.5t-3 96.5q0 43 1 73t5.5 77t13 80t25 71t39 61.5t58 39t80.5 15.5q82 0 127.5 -48t47.5 -131h-85q0 104 -100 104 q-41 0 -68.5 -26.5t-39.5 -79t-15.5 -83t-5.5 -83.5q-1 -13 -1 -19h2q21 46 58 69t80 23q95 0 144 -65.5t49 -163.5q0 -118 -56 -190t-143 -72z" />
<glyph unicode="7" d="M44 660v75h412v-69q-216 -293 -247 -666h-93q44 362 271 660h-343z" />
<glyph unicode="8" d="M132 218q0 -158 124 -158q52 0 82 41.5t30 117.5q0 64 -28.5 104.5t-89.5 40.5t-89.5 -41.5t-28.5 -104.5zM155 562v-4q0 -119 99 -119q93 0 93 120q0 116 -94 116q-98 0 -98 -113zM188 404v2q-119 20 -119 165q0 73 46.5 126t143.5 53q81 0 127.5 -47t46.5 -137 q0 -62 -28 -105.5t-85 -54.5v-2q67 -11 100.5 -61t33.5 -117q0 -106 -49 -173.5t-151 -67.5t-155 60t-53 170q0 83 43.5 131t98.5 58z" />
<glyph unicode="9" d="M368 490q0 46 -9 84.5t-38 69.5t-76 31q-44 0 -71.5 -28.5t-36 -64t-8.5 -79.5q0 -169 117 -169q65 0 93.5 44.5t28.5 111.5zM242 750q58 0 99.5 -22.5t63.5 -54.5t34.5 -83t15.5 -91.5t3 -96.5q0 -43 -1 -73t-5.5 -77t-13 -80t-25 -71t-39 -61.5t-58 -39t-80.5 -15.5 q-82 0 -127.5 48t-47.5 131h85q0 -104 100 -104q41 0 68.5 26.5t39.5 79t15.5 83t5.5 83.5q1 13 1 19h-2q-21 -46 -58 -69t-80 -23q-95 0 -144 65.5t-49 163.5q0 118 56 190t143 72z" />
<glyph unicode=":" horiz-adv-x="250" d="M171 0h-91v100h91v-100zM171 447h-91v100h91v-100z" />
<glyph unicode=";" horiz-adv-x="250" d="M80 0v100h91v-29q0 -64 -3 -89q-2 -75 -49 -108q-13 -11 -39 -20v45q14 2 23 13q26 28 26 88h-49zM171 447h-91v100h91v-100z" />
<glyph unicode="&#x3c;" d="M120 254l339 -191v-73l-417 232v64l417 232v-73z" />
<glyph unicode="=" d="M457 384v-70h-413v70h413zM457 194v-70h-413v70h413z" />
<glyph unicode="&#x3e;" d="M42 63l339 191l-339 191v73l417 -232v-64l-417 -232v73z" />
<glyph unicode="?" d="M287 172h-89q0 78 13.5 113t65.5 93l39 45q29 37 42 65t13 68q0 51 -25 87.5t-76 36.5q-123 0 -123 -160v-6h-87v15q0 94 49.5 157.5t148.5 63.5q92 0 148 -51t56 -137q0 -47 -15 -86t-32.5 -61t-52 -59.5t-54.5 -64.5q-14 -25 -16 -34q-5 -21 -5 -53v-32zM289 0h-91v100 h91v-100z" />
<glyph unicode="@" horiz-adv-x="800" d="M431 536q-73 0 -123.5 -81t-50.5 -160q0 -39 21 -67.5t57 -28.5t66 28t49 65q52 102 52 171q0 30 -20 51.5t-51 21.5zM544 529l14 47h69l-103 -305q-13 -36 -13 -52q0 -13 8.5 -21t21.5 -8q31 0 65.5 25.5t55.5 55.5q51 73 51 164q0 118 -88.5 192t-208.5 74 q-138 0 -233.5 -99.5t-95.5 -237.5q0 -136 98 -233t233 -97q78 0 150 37.5t117 102.5h60q-47 -87 -137 -138t-190 -51q-161 0 -271.5 112.5t-110.5 273.5q0 157 112.5 268t270.5 111q136 0 237 -87q108 -93 108 -232q0 -98 -61 -184q-78 -110 -176 -110q-29 0 -54 13.5 t-33 39.5q-49 -51 -120 -51q-63 0 -101.5 44t-38.5 107q0 69 30.5 138.5t89.5 118.5t130 49q37 0 68 -17.5t46 -49.5z" />
<glyph unicode="A" horiz-adv-x="556" d="M11 0l214 750h110l211 -750h-92l-59 216h-237l-55 -216h-92zM376 291l-97 399h-2l-99 -399h198z" />
<glyph unicode="B" horiz-adv-x="556" d="M163 75h134q65 0 92.5 33.5t27.5 107.5v2q0 37 -9 63t-21.5 40t-34 22t-39.5 9.5t-45 1.5h-105v-279zM163 675v-246h74q5 0 14 -0.5t13 -0.5q68 0 100 27t32 99v3q0 68 -31 93t-117 25h-85zM278 0h-198v750h224q174 0 181 -186v-12q0 -59 -25.5 -95.5t-86.5 -57.5v-2 q128 -16 130 -176v-3q0 -106 -54.5 -162t-155.5 -56h-15z" />
<glyph unicode="C" horiz-adv-x="556" d="M503 525h-83q-4 165 -135 165q-30 0 -53.5 -12.5t-38.5 -30t-26 -46.5t-16 -53t-8 -59t-3.5 -54.5t-0.5 -48.5q-1 -15 -1 -53q0 -276 147 -276q35 0 60 13t38.5 38.5t20.5 50.5t11 61q1 8 2.5 25t2.5 26h83q-1 -7 -2 -23t-2 -23q-3 -40 -5.5 -59t-12 -47.5t-26.5 -52.5 q-61 -84 -163 -84q-48 0 -86 13.5t-62.5 34t-42.5 55t-27 65.5t-14 77t-6 78t-1 79q0 48 3 87.5t11 86t25 81t42.5 64.5t65.5 46t91 16q100 0 156 -64.5t56 -165.5v-10z" />
<glyph unicode="D" horiz-adv-x="611" d="M303 0h-221v750h206q78 0 132 -27.5t81 -78t37.5 -105.5t10.5 -126q0 -7 -0.5 -19t-0.5 -19q-2 -62 -8 -110t-22.5 -100t-42 -86.5t-69.5 -56.5t-103 -22zM165 675v-600h133q86 0 125.5 64t39.5 207q0 29 -1 44q-2 71 -9.5 118t-24.5 87.5t-49 60t-81 19.5h-133z" />
<glyph unicode="E" d="M451 0h-377v750h375v-75h-292v-248h274v-75h-274v-277h294v-75z" />
<glyph unicode="F" horiz-adv-x="444" d="M157 0h-83v750h352v-75h-269v-246h250v-75h-250v-354z" />
<glyph unicode="G" horiz-adv-x="611" d="M532 385v-391h-64v117h-2q-16 -62 -62 -95.5t-110 -33.5q-46 0 -83 13.5t-62 34.5t-43 54t-28 65t-15.5 75.5t-7 77.5t-1.5 78q0 59 4.5 108t20.5 102.5t42 90t72 60.5t109 24q104 0 163.5 -62t59.5 -166v-5h-84q-2 155 -135 158h-4q-33 0 -59 -11.5t-43 -28t-29 -44.5 t-18 -51.5t-9 -60.5t-3.5 -59t-0.5 -58v-27q0 -31 0.5 -53t3.5 -54.5t8.5 -55t16 -48.5t25.5 -42t37.5 -27.5t50.5 -12.5h11q40 0 69.5 15t45.5 37t26 56.5t12.5 64.5t2.5 69v11h-167v75h250z" />
<glyph unicode="H" horiz-adv-x="611" d="M162 0h-83v750h83v-313h287v313h83v-750h-83v362h-287v-362z" />
<glyph unicode="I" horiz-adv-x="278" d="M181 0h-83v750h83v-750z" />
<glyph unicode="J" horiz-adv-x="444" d="M22 235h83v-44q0 -25 1 -40t5.5 -34.5t13.5 -30t26 -18.5t41 -8q30 0 49.5 10.5t28.5 30.5t12 40.5t3 49.5v559h83v-565q0 -112 -45.5 -156t-131.5 -44q-105 0 -143 71q-27 50 -27 139q0 9 0.5 22.5t0.5 17.5z" />
<glyph unicode="K" horiz-adv-x="556" d="M163 0h-84v750h83v-385h2l271 385h104l-239 -314l246 -436h-102l-203 362l-78 -102v-260z" />
<glyph unicode="L" d="M472 0h-389v750h83v-675h306v-75z" />
<glyph unicode="M" horiz-adv-x="778" d="M407 166l149 584h146v-750h-83v618q0 10 0.5 31t0.5 32q0 21 -1 32h-2q-8 -37 -23 -101l-157 -612h-99l-157 621q-10 36 -22 92h-2q0 -16 1 -48.5t1 -48.5v-616h-83v750h147l147 -585q10 -41 16 -111h2q10 74 19 112z" />
<glyph unicode="N" horiz-adv-x="611" d="M451 138v612h83v-750h-136l-210 600q-19 53 -28 113h-2q2 -76 2 -115v-598h-83v750h135l213 -614q10 -24 26 -82h2q-2 54 -2 84z" />
<glyph unicode="O" horiz-adv-x="611" d="M59 391q0 49 3 88t11.5 84.5t26.5 79.5t44.5 63t68 44t95.5 15q62 0 108 -22.5t71.5 -56.5t41 -85t20 -97t4.5 -104v-9q0 -71 -4.5 -123.5t-20 -109.5t-41 -93t-72 -59.5t-109.5 -23.5t-109 23.5t-72 59.5t-41 93.5t-19.5 109.5t-5.5 123zM467 389v7q0 66 -7.5 116 t-25 92t-50.5 64t-80 22q-46 0 -78 -22t-49 -64t-24.5 -92t-7.5 -116v-7q0 -71 3.5 -119t13.5 -91t28 -68t46.5 -39.5t69.5 -14.5t69.5 14.5t46.5 39.5t28 68t13.5 91t3.5 119z" />
<glyph unicode="P" horiz-adv-x="556" d="M169 675v-282h81q47 0 77 5t56 19.5t38 43.5t12 75v3q0 80 -42 108t-122 28h-100zM169 0h-83v750h197q124 0 175 -49q61 -57 61 -160q0 -153 -106 -201q-52 -22 -194 -22h-50v-318z" />
<glyph unicode="Q" horiz-adv-x="611" d="M496 90l86 -72l-42 -52l-84 70q-24 -24 -66 -39t-84 -15q-63 0 -109 23.5t-72 59.5t-41 93.5t-19.5 109.5t-5.5 123q0 49 3 88t11.5 84.5t26 79.5t43.5 63t67 44t94 15q54 0 96 -15t68.5 -44t44 -63t26.5 -79.5t12 -84.5t3 -88q0 -39 -3.5 -87.5t-17.5 -116t-37 -97.5z M394 85l-74 59l44 55l70 -56q13 21 23.5 85.5t10.5 123.5v6q-1 71 -4.5 118.5t-13.5 91t-28 68.5t-46.5 39.5t-69.5 14.5t-69.5 -14.5t-46.5 -39.5t-28 -68t-13.5 -91t-3.5 -119v-7q0 -294 154 -294h5q54 2 90 28z" />
<glyph unicode="R" horiz-adv-x="611" d="M169 675v-270h131q145 4 145 134v4q-1 37 -13 63t-27 39t-40 20.5t-40.5 8.5t-38.5 1h-117zM169 330v-330h-83v750h193q125 0 188.5 -43.5t63.5 -158.5v-12q-2 -66 -40.5 -110t-103.5 -53v-2q72 -7 98 -35.5t35 -104.5q5 -88 16 -167q10 -47 29 -47v-17h-97 q-26 69 -26 191q0 139 -128 139h-145z" />
<glyph unicode="S" horiz-adv-x="556" d="M483 553h-83q0 3 0.5 7.5t0.5 6.5q0 55 -31.5 89t-88.5 34q-43 0 -71.5 -12t-41 -34t-17 -42t-4.5 -46q0 -75 71 -102l119 -45q102 -38 135 -81t33 -121q0 -106 -62 -165.5t-171 -59.5q-153 0 -205 119q-13 31 -16 137h83v-23q0 -80 30 -119t112 -39q65 0 104 33.5 t39 97.5q0 24 -2 42t-9.5 31.5t-12 21.5t-19.5 16.5t-21 11t-28 10.5t-30 11q-12 5 -44.5 16.5t-58.5 22t-44 19.5q-50 25 -69.5 67t-19.5 103q0 92 58.5 148.5t150.5 56.5q100 0 157 -49.5t57 -144.5q0 -3 -0.5 -9t-0.5 -9z" />
<glyph unicode="T" d="M15 675v75h471v-75h-194v-675h-83v675h-194z" />
<glyph unicode="U" horiz-adv-x="611" d="M81 181v569h83v-546q0 -147 142 -147t142 147v546h83v-569q0 -98 -60 -148.5t-165 -50.5t-165 50.5t-60 148.5z" />
<glyph unicode="V" horiz-adv-x="556" d="M278 60l175 690h92l-216 -750h-103l-215 750h92l173 -690h2z" />
<glyph unicode="W" horiz-adv-x="833" d="M389 509l-109 -509h-103l-160 750h92l98 -517q14 -79 22 -173h2q15 121 24 167l110 523h103l99 -517q12 -64 22 -173h2q15 121 24 167l109 523h92l-176 -750h-103l-100 509q-14 67 -22 181h-2q-12 -121 -24 -181z" />
<glyph unicode="X" horiz-adv-x="556" d="M17 0l213 385l-207 365h98l157 -293l157 293h98l-206 -365l212 -385h-102l-159 314l-162 -314h-99z" />
<glyph unicode="Y" horiz-adv-x="556" d="M103 750l175 -376l176 376h92l-227 -459v-291h-83v291l-225 459h92z" />
<glyph unicode="Z" d="M473 0h-445v72l354 603h-345v75h431v-72l-354 -603h359v-75z" />
<glyph unicode="[" horiz-adv-x="333" d="M275 -209h-175v959h175v-60h-97v-837h97v-62z" />
<glyph unicode="\" horiz-adv-x="250" d="M277 -27h-61l-243 777h61z" />
<glyph unicode="]" horiz-adv-x="333" d="M233 -209h-175v62h97v837h-97v60h175v-959z" />
<glyph unicode="^" d="M225 750h49l157 -417h-54l-128 338l-126 -338h-53z" />
<glyph unicode="_" d="M0 -75h500v-50h-500v50z" />
<glyph unicode="`" horiz-adv-x="333" d="M35 765h109l89 -141h-67z" />
<glyph unicode="a" horiz-adv-x="444" d="M287 165v135q-17 -10 -38 -20t-47.5 -22t-39.5 -18q-49 -23 -49 -96q0 -46 16.5 -69t61.5 -23q32 0 64 27t32 86zM417 58v-58q-12 -2 -18 -4q-4 0 -11.5 -0.5t-10.5 -0.5q-40 0 -56.5 15.5t-21.5 64.5h-2q-15 -38 -49.5 -64t-73.5 -26q-79 0 -111 41t-32 122 q0 100 80 135q17 8 58.5 24.5t73 29.5t35.5 16q15 12 15 48v16q0 47 -20 67t-68 20q-49 0 -65 -20.5t-16 -69.5v-8h-71v11q0 154 165 154q40 0 69.5 -11t44.5 -26.5t24 -36.5t11 -35t2 -29v-341q0 -27 14 -33q12 -2 17 -2q3 0 9 0.5t8 0.5z" />
<glyph unicode="b" d="M149 264v-4q0 -28 0.5 -44.5t3.5 -45t10.5 -46t19 -36t31.5 -27.5t46 -9q59 0 82 58t23 178q0 216 -106 216q-30 0 -51.5 -14.5t-32.5 -35t-17 -52t-7.5 -55t-1.5 -55.5v-28zM147 66v-66h-72v750h79v-251h2q45 72 116 72q50 0 86.5 -23.5t54.5 -63t26 -81.5t8 -89 q0 -53 -3 -95.5t-14 -88t-29 -76t-50 -50t-75 -19.5q-86 0 -127 81h-2z" />
<glyph unicode="c" horiz-adv-x="444" d="M235 504q-37 0 -60.5 -21.5t-33 -61t-12.5 -70t-3 -72.5v-25q0 -37 2.5 -64t12 -62.5t32.5 -55.5t59 -20q25 0 43 9t27.5 21t16 33t8.5 37.5t3 41.5h75q-3 -91 -42 -150t-125 -59q-49 0 -85 16.5t-56.5 42t-33 65t-16 77t-3.5 85.5q0 47 3.5 84t15.5 79.5t32 70.5t56 47 t85 19q80 0 122.5 -53t42.5 -134v-3h-74q-2 123 -92 123z" />
<glyph unicode="d" d="M345 218v69q0 26 -0.5 43.5t-3.5 46t-10.5 48t-18.5 39.5t-30.5 30t-44.5 10q-53 0 -81 -50.5t-28 -172.5q0 -37 1 -59.5t4 -52.5t10.5 -48t19.5 -35.5t31.5 -25.5t45.5 -8q38 0 63 29.5t33.5 64.5t8.5 72zM345 499v251h79v-750h-76v73h-2q-25 -49 -55 -68.5t-80 -19.5 q-163 0 -163 268v50q0 120 42.5 194t124.5 74q41 0 70 -17t58 -55h2z" />
<glyph unicode="e" horiz-adv-x="444" d="M125 336h188q0 2 -1 22.5t-1.5 25.5t-2 24t-4.5 25.5t-7.5 21t-11 21t-15.5 14.5t-21 11t-27 3q-22 0 -38.5 -7t-27 -23t-16.5 -28.5t-9 -37.5t-4 -35.5t-2 -36.5zM317 185h74v-13q0 -81 -43.5 -134t-124.5 -53q-85 0 -132.5 67.5t-47.5 226.5q0 39 4 75.5t16.5 77.5 t31.5 70.5t51.5 49t74.5 19.5q48 0 82 -18.5t50.5 -39t26.5 -67t11.5 -68.5t2.5 -79q1 -19 1 -28h-270v-35q0 -184 100 -184q48 0 70.5 33.5t22.5 82.5q0 2 -0.5 8t-0.5 9z" />
<glyph unicode="f" horiz-adv-x="278" d="M93 0v489h-81v67h80v47q0 79 20 107q29 42 107 42q12 0 40 -2v-67q-24 2 -31 2q-32 0 -44 -14.5t-12 -55.5v-59h87v-67h-87v-489h-79z" />
<glyph unicode="g" d="M236 504q-109 0 -109 -226q0 -110 23 -168t78 -58q28 0 49.5 10.5t34 31t20 40.5t11 52t4 50.5t0.5 49.5v4q0 214 -111 214zM347 493v63h79v-489q0 -58 -8 -98t-34 -81q-49 -77 -153 -77q-70 0 -114 33.5t-52 102.5h77q10 -69 87 -69q32 0 54.5 11t34.5 26t18 39 t7.5 41.5t1.5 42.5v27h-2q-46 -80 -120 -80q-178 0 -178 297q0 50 7.5 95.5t25 92t54.5 74t89 27.5q84 0 124 -78h2z" />
<glyph unicode="h" d="M152 372v-372h-79v750h79v-255h2q57 76 137 76q64 0 100.5 -35.5t36.5 -106.5v-429h-79v407q0 97 -83 97q-45 0 -78 -31q-36 -33 -36 -101z" />
<glyph unicode="i" horiz-adv-x="222" d="M151 0h-79v556h79v-556zM151 650h-79v100h79v-100z" />
<glyph unicode="j" horiz-adv-x="222" d="M13 -190v73h9q37 0 44 15q9 17 9 48v610h79v-578q0 -97 -29.5 -132.5t-111.5 -35.5zM154 650h-79v100h79v-100z" />
<glyph unicode="k" horiz-adv-x="444" d="M148 0h-79v750h79v-453h2l190 259h94l-172 -216l177 -340h-92l-139 277l-60 -79v-198z" />
<glyph unicode="l" horiz-adv-x="222" d="M151 0h-79v750h79v-750z" />
<glyph unicode="m" horiz-adv-x="778" d="M155 372v-372h-79v556h76v-71h2q21 38 56 62t76 24q43 0 78 -23.5t54 -64.5q31 45 65 66.5t84 21.5q59 0 102 -39q34 -32 34 -119v-413h-79v407q0 50 -18.5 73.5t-66.5 23.5q-43 -2 -74 -31q-36 -33 -36 -101v-372h-79v407q0 97 -83 97q-45 0 -78 -31q-22 -20 -28 -42.5 t-6 -58.5z" />
<glyph unicode="n" d="M150 556v-61h2q60 76 139 76q64 0 100.5 -35.5t36.5 -106.5v-429h-79v407q0 97 -83 97q-45 0 -78 -31q-36 -33 -36 -101v-372h-79v556h77z" />
<glyph unicode="o" d="M449 297q0 -172 -50.5 -242t-148.5 -70q-97 0 -148 70.5t-51 241.5q0 130 49.5 202t149.5 72t149.5 -72t49.5 -202zM367 272q0 125 -27 178.5t-90 53.5q-61 0 -89 -53.5t-28 -178.5q0 -107 26 -163.5t91 -56.5q66 0 91.5 56t25.5 164z" />
<glyph unicode="p" d="M365 288q0 216 -109 216q-25 0 -43.5 -10.5t-29.5 -31t-18 -40.5t-10 -50t-3.5 -48t-0.5 -45v-13q0 -22 0.5 -37t2.5 -39.5t6 -41.5t12 -36.5t19 -31.5t28 -20t38 -8q59 0 83.5 59t24.5 177zM151 58v-246h-79v744h76v-62h2q34 72 115 77q50 0 87.5 -23.5t57 -62.5 t28.5 -81.5t9 -88.5q0 -330 -178 -330q-71 0 -116 73h-2z" />
<glyph unicode="q" d="M137 254q1 -45 6 -78t15.5 -63t31.5 -45.5t51 -15.5t51 16t31.5 37t16 55.5t6.5 56.5t1 54v22q0 31 -1 52.5t-6.5 54t-16 53t-30.5 36t-49 15.5q-108 0 -108 -214q0 -6 0.5 -18t0.5 -18zM350 499v57h76v-740h-79v245h-2q-27 -40 -54.5 -58t-63.5 -18q-172 0 -172 285v29 q0 49 8.5 94.5t27 86.5t52 66t77.5 25q84 0 128 -72h2z" />
<glyph unicode="r" horiz-adv-x="333" d="M157 556v-91h2q23 50 56.5 74t84.5 24q14 0 22 -1v-78q-18 3 -33 3q-61 0 -95 -41t-34 -109v-337h-79v556h76z" />
<glyph unicode="s" horiz-adv-x="444" d="M380 407h-77v11q0 44 -20.5 65t-67.5 21q-88 0 -88 -84q0 -21 5.5 -36t20 -26t23 -16t33 -14t31.5 -12q9 -4 33.5 -14.5t34 -15t28.5 -15.5t27 -20.5t18.5 -23.5t14.5 -31.5t4 -39.5q0 -78 -50.5 -124.5t-134.5 -46.5h-7q-40 0 -77 14.5t-57 43.5q-31 42 -31 107v12h75 v-11q0 -49 22 -74t72 -25q106 0 106 94q0 23 -8 39.5t-24.5 27t-31 16.5t-38.5 14t-35 13q-73 27 -104.5 59t-31.5 99q0 71 45 114t118 43q172 0 172 -159v-5z" />
<glyph unicode="t" horiz-adv-x="278" d="M164 707v-151h93v-67h-92v-393q0 -9 2 -14.5t10.5 -10t24.5 -4.5h53v-67h-94q-37 0 -56 18t-19 73v398h-77v67h77v151h78z" />
<glyph unicode="u" d="M345 0v73h-2q-20 -42 -55.5 -65t-76.5 -23q-134 0 -134 142v429h79v-432q0 -37 15.5 -54.5t55.5 -17.5q61 0 95 49q23 36 23 98v357h79v-556h-79z" />
<glyph unicode="v" horiz-adv-x="444" d="M178 0l-165 556h82l126 -489h2l126 489h82l-167 -556h-86z" />
<glyph unicode="w" horiz-adv-x="667" d="M374 556l94 -489h2l97 489h82l-139 -556h-82l-94 489h-2l-88 -489h-82l-143 556h82l101 -489h2l88 489h82z" />
<glyph unicode="x" horiz-adv-x="444" d="M179 286l-160 270h82l124 -200l123 200h82l-160 -270l166 -286h-82l-130 222l-133 -222h-82z" />
<glyph unicode="y" horiz-adv-x="444" d="M182 -13l-177 569h82l125 -482h2l129 482h82l-165 -531q-34 -112 -51 -142q-41 -73 -127 -73q-28 0 -57 9v70q27 -12 59 -12q21 0 36 5.5t24.5 18.5t14.5 22.5t12 31.5t11 32z" />
<glyph unicode="z" horiz-adv-x="389" d="M366 0h-342v62l258 429h-247v65h329v-65l-258 -426h260v-65z" />
<glyph unicode="{" horiz-adv-x="274" d="M177 190v-173q0 -43 19.5 -69t69.5 -41v-2h-17q-88 0 -120 33.5t-32 113.5v176q0 53 -32 75q-22 16 -58 25v2q40 4 67 29q23 24 23 68v193q0 76 42 104q26 18 53.5 22t73.5 4v-2q-52 -14 -70.5 -39.5t-18.5 -70.5v-187q0 -53 -20.5 -81.5t-79.5 -39.5v-2 q61 -13 80.5 -45.5t19.5 -92.5z" />
<glyph unicode="|" horiz-adv-x="250" d="M93 750h64v-1000h-64v1000z" />
<glyph unicode="}" horiz-adv-x="274" d="M97 465v173q0 43 -19.5 69t-69.5 41v2h17q88 0 120 -33.5t32 -113.5v-176q0 -53 32 -75q22 -16 58 -25v-2q-40 -4 -67 -29q-23 -24 -23 -68v-193q0 -76 -42 -104q-26 -18 -53.5 -22t-73.5 -4v2q52 14 70.5 39.5t18.5 70.5v187q0 53 20.5 81.5t79.5 39.5v2 q-61 13 -80.5 45.5t-19.5 92.5z" />
<glyph unicode="~" d="M161 332q34 0 96 -35q68 -35 85 -35q44 0 81 83l34 -47q-49 -111 -116 -111q-23 0 -111 44q-48 25 -69 25q-20 0 -37.5 -16t-25 -31t-20.5 -43l-34 48q24 53 51 85.5t66 32.5z" />
<glyph unicode="&#xa1;" horiz-adv-x="333" d="M144 388h45l23 -337v-230h-91v230zM121 571h91v-100h-91v100z" />
<glyph unicode="&#xa2;" d="M200 -9l-29 -128h-48l32 143q-29 15 -49 41q-48 78 -48 218q0 248 129 283q28 8 63 8q14 0 27 -3l26 114h50l-29 -127q68 -31 83 -105q8 -33 9 -63h-78q-4 74 -30 97l-93 -413q9 -4 32 -4q24 0 42 9t27.5 20.5t15.5 32.5t8 36t4 40h74v-5q0 -9 -5 -44q-12 -76 -51 -115 q-18 -18 -50 -29.5t-60 -11.5t-52 6zM173 87l90 402q-6 2 -20 2q-42 0 -61.5 -26t-28.5 -71q-13 -60 -13 -155q0 -106 33 -152z" />
<glyph unicode="&#xa3;" d="M125 338h-95v44h75q-53 97 -53 168q0 69 35 119q58 81 179 81q86 0 139.5 -47t60.5 -132q2 -22 2 -34q0 -10 -1 -15h-83v16q0 28 -2 39q-16 98 -122 98q-61 0 -91.5 -37t-30.5 -98q0 -64 52 -158h164v-44h-145q1 -2 3.5 -8t3.5 -9q11 -25 11 -57q0 -109 -114 -200l2 -2 q33 21 71 27q18 3 36 3q24 0 41 -4q14 -5 41 -11t36 -9q15 -4 30 -4q41 0 87 33l28 -67q-34 -25 -58 -32.5t-67 -7.5q-13 0 -34 5.5t-46.5 13.5t-36.5 11q-29 6 -57 6q-50 0 -115 -41l-41 61q57 47 87 92.5t30 107.5q0 43 -22 92z" />
<glyph unicode="&#xa4;" d="M28 110l39 42q-43 70 -43 148q0 84 43 151l-39 43l47 53l39 -43q59 49 139 49q68 0 131 -49l40 43l47 -53l-38 -43q42 -71 42 -156q0 -71 -42 -143l38 -42l-47 -53l-40 43q-61 -50 -139 -50q-66 0 -131 50l-39 -43zM253 481h-3q-69 0 -111.5 -51.5t-42.5 -129.5 q0 -74 43.5 -126t107.5 -52q67 0 111.5 52t44.5 129q0 72 -42.5 125t-104.5 53h-3z" />
<glyph unicode="&#xa5;" d="M205 262v29l-222 459h100l167 -376l174 376h94l-231 -459v-29h138v-44h-138v-76h138v-44h-138v-98h-82v98h-138v44h138v76h-138v44h138z" />
<glyph unicode="&#xa6;" horiz-adv-x="250" d="M157 675v-350h-64v350h64zM157 175v-350h-64v350h64z" />
<glyph unicode="&#xa7;" d="M63 -21h81q2 -120 107 -120q44 0 72 23t28 66q0 41 -32 72.5t-144 103.5q-82 52 -111 89.5t-29 88.5q0 102 113 156q-70 45 -70 130q0 74 50 118t127 44q80 0 124.5 -46.5t44.5 -126.5v-3h-82q0 107 -97 107q-38 0 -63 -23t-25 -61v-10q0 -27 20.5 -48t110.5 -82 q13 -9 42.5 -28t43 -28.5t35 -27.5t31.5 -33t18 -37t8 -47q0 -53 -28 -91t-79 -75q72 -54 72 -129q0 -82 -51 -125.5t-141 -43.5q-81 0 -128.5 49t-47.5 129v9zM188 215l-1 -1q50 -30 125 -85q24 19 37.5 31.5t25 34.5t11.5 47q0 28 -20 52.5t-85 70.5q-81 55 -86 58 q-27 -19 -39 -28.5t-26.5 -31t-14.5 -45.5v-3q0 -19 3 -28.5t19 -27.5t51 -44z" />
<glyph unicode="&#xa8;" horiz-adv-x="333" d="M52 750h79v-100h-79v100zM281 650h-79v100h79v-100z" />
<glyph unicode="&#xa9;" horiz-adv-x="800" d="M401 -18q-163 0 -278 114.5t-115 278.5q0 161 115 275.5t278 114.5q162 0 276.5 -114.5t114.5 -275.5q0 -164 -114.5 -278.5t-276.5 -114.5zM401 40q139 0 235.5 97.5t96.5 237.5q0 138 -96.5 235t-235.5 97t-236.5 -97t-97.5 -235q0 -139 97.5 -237t236.5 -98zM542 303 h58q-7 -68 -59.5 -110.5t-122.5 -42.5q-97 0 -157.5 65t-60.5 163t58.5 161.5t156.5 63.5q72 0 122.5 -40t62.5 -109h-58q-8 46 -43.5 73.5t-82.5 27.5q-74 0 -115.5 -50t-41.5 -126q0 -75 43 -128t116 -53q48 0 83.5 28.5t40.5 76.5z" />
<glyph unicode="&#xaa;" horiz-adv-x="300" d="M276 457v-35q-2 0 -6 -1t-6 -1h-16q-26 0 -36 9t-13 38h-2q-8 -22 -31 -38t-48 -16q-51 0 -72 24.5t-21 73.5q0 59 52 81q11 5 38 14.5t47.5 17.5t23.5 10q9 7 9 25v13q0 29 -13 40.5t-44 11.5q-33 0 -43 -13t-10 -45h-46v5q0 94 108 94q32 0 53.5 -9.5t30 -24.5 t11.5 -26t3 -23v-207q0 -13 9 -18q2 0 5.5 -0.5t5.5 -0.5t6 0.5t5 0.5zM191 521v81q-10 -5 -81 -36q-31 -13 -31 -58q0 -28 10.5 -41.5t39.5 -13.5q21 0 41.5 16t20.5 52z" />
<glyph unicode="&#xab;" d="M85 342l151 153v-83l-100 -102l100 -102v-83l-151 156v61zM264 342l151 153v-83l-100 -102l100 -102v-83l-151 156v61z" />
<glyph unicode="&#xac;" d="M387 117v197h-343v70h413v-267h-70z" />
<glyph unicode="&#xae;" horiz-adv-x="800" d="M401 765q162 0 276.5 -114t114.5 -276q0 -164 -114.5 -278.5t-276.5 -114.5q-163 0 -278 114.5t-115 278.5q0 162 115 276t278 114zM401 707q-139 0 -236.5 -97.5t-97.5 -235.5q0 -139 97.5 -236.5t236.5 -97.5t235.5 97t96.5 237q0 138 -97 235.5t-235 97.5zM465 357 l131 -202h-65l-124 202h-97v-202h-56v440h193q73 0 106 -24q23 -13 36.5 -38.5t13.5 -52.5v-3q0 -61 -38 -90t-100 -30zM310 399h114q26 0 44 2.5t38 9.5t30.5 24.5t10.5 43.5q0 44 -31 59t-82 15h-124v-154z" />
<glyph unicode="&#xaf;" horiz-adv-x="333" d="M323 657h-313v58h313v-58z" />
<glyph unicode="&#xb0;" horiz-adv-x="400" d="M350 600q0 -62 -44 -106t-106 -44t-106 44t-44 106v2q0 61 44 104.5t106 43.5t106 -44t44 -106zM288 600q0 36 -26 62t-63 26q-35 0 -61 -25.5t-26 -60.5v-2q0 -37 25.5 -62.5t62.5 -25.5q36 0 62 25.5t26 62.5z" />
<glyph unicode="&#xb1;" d="M215 349v156h70v-156h172v-70h-172v-159h-70v159h-171v70h171zM44 0v70h413v-70h-413z" />
<glyph unicode="&#xb2;" horiz-adv-x="300" d="M198 484l-88 -74q-12 -12 -16.5 -18t-9 -16.5t-4.5 -23.5h201v-52h-262q2 58 20 97q16 36 36 55l90 80q46 40 46 94q0 72 -64 72q-37 0 -49.5 -24.5t-12.5 -66.5v-10h-62v28q0 53 31 90q38 35 97 35q61 0 93 -34t32 -91q0 -46 -18 -76t-60 -65z" />
<glyph unicode="&#xb3;" horiz-adv-x="300" d="M115 504v56h27q15 0 24.5 2t19.5 8.5t15 21.5t5 38q0 35 -13 51.5t-47 16.5q-36 0 -49 -21t-13 -60h-58v6q0 57 30.5 92t92.5 35q54 0 87.5 -30.5t33.5 -81.5q0 -79 -68 -100v-2q81 -16 81 -103q0 -66 -33.5 -104t-103.5 -38q-129 0 -129 134v7h59q-1 -5 -1 -14 q0 -34 18.5 -55t56.5 -21q34 0 52 20.5t18 55.5q0 51 -20.5 68.5t-77.5 17.5h-7z" />
<glyph unicode="&#xb4;" horiz-adv-x="333" d="M100 624l89 141h109l-131 -141h-67z" />
<glyph unicode="&#xb6;" horiz-adv-x="440" d="M157 -116v482h-1q-62 0 -109 57t-47 133q0 89 52 146q27 30 56 38.5t75 9.5h208v-866h-79v799h-76v-799h-79z" />
<glyph unicode="&#xb7;" horiz-adv-x="250" d="M171 204h-91v100h91v-100z" />
<glyph unicode="&#xb8;" horiz-adv-x="333" d="M118 -105l-17 19l63 86h48l-46 -60l2 -2q9 3 24 3q34 0 61.5 -17.5t27.5 -55.5q0 -48 -36 -70t-88 -22h-8q-48 7 -83 21l17 40q41 -15 65 -15q34 0 53 23q4 4 4 15q0 28 -27 39q-9 4 -21 4q-15 0 -39 -8z" />
<glyph unicode="&#xb9;" horiz-adv-x="300" d="M171 624h-104v43q57 1 83.5 17.5t32.5 65.5h50v-450h-62v324z" />
<glyph unicode="&#xba;" horiz-adv-x="300" d="M279 600q0 -66 -14 -107q-28 -80 -110 -80q-92 0 -120 80q-15 44 -15 107q0 42 14 88q12 36 43.5 56.5t72.5 20.5t72.5 -20.5t43.5 -56.5q13 -42 13 -88zM74 585q0 -64 17 -98t59 -34q43 0 59 33.5t16 98.5q0 76 -17 108t-58 32q-40 0 -58 -32.5t-18 -107.5z" />
<glyph unicode="&#xbb;" d="M415 278l-151 -153v83l100 102l-100 102v83l151 -156v-61zM236 278l-151 -153v83l100 102l-100 102v83l151 -156v-61z" />
<glyph unicode="&#xbc;" horiz-adv-x="750" d="M616 372l-133 -215h135v215h-2zM143 0l452 750h63l-452 -750h-63zM441 161l179 289h58v-293h38v-50h-38v-107h-60v107h-177v54zM138 624h-104v43q57 1 83.5 17.5t32.5 65.5h50v-450h-62v324z" />
<glyph unicode="&#xbd;" horiz-adv-x="750" d="M91 0l452 750h63l-452 -750h-63zM146 624h-104v43q57 1 83.5 17.5t32.5 65.5h50v-450h-62v324zM626 184l-88 -74q-12 -12 -16.5 -18t-9 -16.5t-4.5 -23.5h201v-52h-262q2 58 20 97q16 36 36 55l90 80q46 40 46 94q0 72 -64 72q-37 0 -49.5 -24.5t-12.5 -66.5v-10h-62v28 q0 53 31 90q38 35 97 35q61 0 93 -34t32 -91q0 -46 -18 -76t-60 -65z" />
<glyph unicode="&#xbe;" horiz-adv-x="750" d="M630 372l-133 -215h135v215h-2zM157 0l452 750h63l-452 -750h-63zM455 161l179 289h58v-293h38v-50h-38v-107h-60v107h-177v54zM119 504v56h27q15 0 24.5 2t19.5 8.5t15 21.5t5 38q0 35 -13 51.5t-47 16.5q-36 0 -49 -21t-13 -60h-58v6q0 57 30.5 92t92.5 35 q54 0 87.5 -30.5t33.5 -81.5q0 -79 -68 -100v-2q81 -16 81 -103q0 -66 -33.5 -104t-103.5 -38q-129 0 -129 134v7h59q-1 -5 -1 -14q0 -34 18.5 -55t56.5 -21q34 0 52 20.5t18 55.5q0 51 -20.5 68.5t-77.5 17.5h-7z" />
<glyph unicode="&#xbf;" d="M353 46h87v-15q0 -94 -49.5 -157.5t-148.5 -63.5q-92 0 -148 51t-56 137q0 60 19 100t65 91.5t65 80.5q26 38 26 82v35h89q0 -77 -13.5 -112t-65.5 -93q-31 -33 -47.5 -54t-31.5 -55t-15 -69q0 -51 25 -87.5t76 -36.5q123 0 123 160v6zM211 559h91v-100h-91v100z" />
<glyph unicode="&#xc0;" horiz-adv-x="556" d="M11 0l214 750h110l211 -750h-92l-59 216h-237l-55 -216h-92zM376 291l-97 399h-2l-99 -399h198zM147 959h109l89 -141h-67z" />
<glyph unicode="&#xc1;" horiz-adv-x="556" d="M11 0l214 750h110l211 -750h-92l-59 216h-237l-55 -216h-92zM376 291l-97 399h-2l-99 -399h198zM212 818l89 141h109l-131 -141h-67z" />
<glyph unicode="&#xc2;" horiz-adv-x="556" d="M11 0l214 750h110l211 -750h-92l-59 216h-237l-55 -216h-92zM376 291l-97 399h-2l-99 -399h198zM345 818l-66 94l-66 -94h-80l99 141h93l100 -141h-80z" />
<glyph unicode="&#xc3;" horiz-adv-x="556" d="M11 0l214 750h110l211 -750h-92l-59 216h-237l-55 -216h-92zM376 291l-97 399h-2l-99 -399h198zM401 943h48q-4 -46 -30.5 -77.5t-71.5 -31.5q-20 0 -71 18q-55 20 -73 20q-17 0 -30.5 -14t-15.5 -31h-48q4 46 30.5 77.5t71.5 31.5q20 0 71 -18q55 -20 73 -20 q17 0 30.5 14t15.5 31z" />
<glyph unicode="&#xc4;" horiz-adv-x="556" d="M11 0l214 750h110l211 -750h-92l-59 216h-237l-55 -216h-92zM376 291l-97 399h-2l-99 -399h198zM164 944h79v-100h-79v100zM393 844h-79v100h79v-100z" />
<glyph unicode="&#xc5;" horiz-adv-x="556" d="M11 0l214 750h110l211 -750h-92l-59 216h-237l-55 -216h-92zM376 291l-97 399h-2l-99 -399h198zM278 787q-41 0 -71.5 30t-30.5 72q0 41 30.5 71t71.5 30q42 0 72 -29.5t30 -71.5t-30 -72t-72 -30zM278 950q-24 0 -43 -18.5t-19 -42.5t18.5 -43t43.5 -19t43.5 18.5 t18.5 43.5q0 24 -19 42.5t-43 18.5z" />
<glyph unicode="&#xc6;" horiz-adv-x="833" d="M229 290h197v385h-14zM427 0v215h-233l-100 -215h-94l366 750h419v-75h-276v-248h257v-75h-257v-277h273v-75h-355z" />
<glyph unicode="&#xc7;" horiz-adv-x="556" d="M172 -203l17 40q41 -15 65 -15q34 0 53 23q4 4 4 15q0 28 -27 39q-9 4 -21 4q-15 0 -39 -8l-17 19l51 70q-48 5 -84 24.5t-57.5 52.5t-35 66.5t-19.5 83.5t-7.5 85t-1.5 88q0 48 3 87.5t11 86t25 81t42.5 64.5t65.5 46t91 16q100 0 156 -64.5t56 -165.5v-10h-83 q-4 165 -135 165q-30 0 -53.5 -12.5t-38.5 -30t-26 -46.5t-16 -53t-8 -59t-3.5 -54.5t-0.5 -48.5q-1 -15 -1 -53q0 -276 147 -276q35 0 60 13t38.5 38.5t20.5 50.5t11 61q1 8 2.5 25t2.5 26h83q-1 -7 -2 -23t-2 -23q-3 -40 -5.5 -59t-12 -47.5t-26.5 -52.5q-57 -79 -150 -83 l-33 -43l2 -2q9 3 24 3q34 0 61.5 -17.5t27.5 -55.5q0 -48 -36 -70t-88 -22h-8q-48 7 -83 21z" />
<glyph unicode="&#xc8;" d="M451 0h-377v750h375v-75h-292v-248h274v-75h-274v-277h294v-75zM119 959h109l89 -141h-67z" />
<glyph unicode="&#xc9;" d="M451 0h-377v750h375v-75h-292v-248h274v-75h-274v-277h294v-75zM184 818l89 141h109l-131 -141h-67z" />
<glyph unicode="&#xca;" d="M451 0h-377v750h375v-75h-292v-248h274v-75h-274v-277h294v-75zM317 818l-66 94l-66 -94h-80l99 141h93l100 -141h-80z" />
<glyph unicode="&#xcb;" d="M451 0h-377v750h375v-75h-292v-248h274v-75h-274v-277h294v-75zM136 944h79v-100h-79v100zM365 844h-79v100h79v-100z" />
<glyph unicode="&#xcc;" horiz-adv-x="278" d="M181 0h-83v750h83v-750zM8 959h109l89 -141h-67z" />
<glyph unicode="&#xcd;" horiz-adv-x="278" d="M181 0h-83v750h83v-750zM73 818l89 141h109l-131 -141h-67z" />
<glyph unicode="&#xce;" horiz-adv-x="278" d="M181 0h-83v750h83v-750zM206 818l-66 94l-66 -94h-80l99 141h93l100 -141h-80z" />
<glyph unicode="&#xcf;" horiz-adv-x="278" d="M181 0h-83v750h83v-750zM25 944h79v-100h-79v100zM254 844h-79v100h79v-100z" />
<glyph unicode="&#xd0;" horiz-adv-x="611" d="M82 0v390h-73v75h73v285h206q49 0 88 -11.5t66 -30t46.5 -48t31 -60t18 -71t8.5 -75.5t2 -79q0 -375 -245 -375h-221zM165 675v-210h149v-75h-149v-315h133q90 0 127 72.5t37 242.5q0 141 -35 213t-129 72h-133z" />
<glyph unicode="&#xd1;" horiz-adv-x="611" d="M451 138v612h83v-750h-136l-210 600q-19 53 -28 113h-2q2 -76 2 -115v-598h-83v750h135l213 -614q10 -24 26 -82h2q-2 54 -2 84zM428 943h48q-4 -46 -30.5 -77.5t-71.5 -31.5q-20 0 -71 18q-55 20 -73 20q-17 0 -30.5 -14t-15.5 -31h-48q4 46 30.5 77.5t71.5 31.5 q20 0 71 -18q55 -20 73 -20q17 0 30.5 14t15.5 31z" />
<glyph unicode="&#xd2;" horiz-adv-x="611" d="M59 391q0 49 3 88t11.5 84.5t26.5 79.5t44.5 63t68 44t95.5 15q62 0 108 -22.5t71.5 -56.5t41 -85t20 -97t4.5 -104v-9q0 -71 -4.5 -123.5t-20 -109.5t-41 -93t-72 -59.5t-109.5 -23.5t-109 23.5t-72 59.5t-41 93.5t-19.5 109.5t-5.5 123zM467 389v7q0 66 -7.5 116 t-25 92t-50.5 64t-80 22q-46 0 -78 -22t-49 -64t-24.5 -92t-7.5 -116v-7q0 -71 3.5 -119t13.5 -91t28 -68t46.5 -39.5t69.5 -14.5t69.5 14.5t46.5 39.5t28 68t13.5 91t3.5 119zM174 959h109l89 -141h-67z" />
<glyph unicode="&#xd3;" horiz-adv-x="611" d="M59 391q0 49 3 88t11.5 84.5t26.5 79.5t44.5 63t68 44t95.5 15q62 0 108 -22.5t71.5 -56.5t41 -85t20 -97t4.5 -104v-9q0 -71 -4.5 -123.5t-20 -109.5t-41 -93t-72 -59.5t-109.5 -23.5t-109 23.5t-72 59.5t-41 93.5t-19.5 109.5t-5.5 123zM467 389v7q0 66 -7.5 116 t-25 92t-50.5 64t-80 22q-46 0 -78 -22t-49 -64t-24.5 -92t-7.5 -116v-7q0 -71 3.5 -119t13.5 -91t28 -68t46.5 -39.5t69.5 -14.5t69.5 14.5t46.5 39.5t28 68t13.5 91t3.5 119zM239 818l89 141h109l-131 -141h-67z" />
<glyph unicode="&#xd4;" horiz-adv-x="611" d="M59 391q0 49 3 88t11.5 84.5t26.5 79.5t44.5 63t68 44t95.5 15q62 0 108 -22.5t71.5 -56.5t41 -85t20 -97t4.5 -104v-9q0 -71 -4.5 -123.5t-20 -109.5t-41 -93t-72 -59.5t-109.5 -23.5t-109 23.5t-72 59.5t-41 93.5t-19.5 109.5t-5.5 123zM467 389v7q0 66 -7.5 116 t-25 92t-50.5 64t-80 22q-46 0 -78 -22t-49 -64t-24.5 -92t-7.5 -116v-7q0 -71 3.5 -119t13.5 -91t28 -68t46.5 -39.5t69.5 -14.5t69.5 14.5t46.5 39.5t28 68t13.5 91t3.5 119zM372 818l-66 94l-66 -94h-80l99 141h93l100 -141h-80z" />
<glyph unicode="&#xd5;" horiz-adv-x="611" d="M59 391q0 49 3 88t11.5 84.5t26.5 79.5t44.5 63t68 44t95.5 15q62 0 108 -22.5t71.5 -56.5t41 -85t20 -97t4.5 -104v-9q0 -71 -4.5 -123.5t-20 -109.5t-41 -93t-72 -59.5t-109.5 -23.5t-109 23.5t-72 59.5t-41 93.5t-19.5 109.5t-5.5 123zM467 389v7q0 66 -7.5 116 t-25 92t-50.5 64t-80 22q-46 0 -78 -22t-49 -64t-24.5 -92t-7.5 -116v-7q0 -71 3.5 -119t13.5 -91t28 -68t46.5 -39.5t69.5 -14.5t69.5 14.5t46.5 39.5t28 68t13.5 91t3.5 119zM428 943h48q-4 -46 -30.5 -77.5t-71.5 -31.5q-20 0 -71 18q-55 20 -73 20q-17 0 -30.5 -14 t-15.5 -31h-48q4 46 30.5 77.5t71.5 31.5q20 0 71 -18q55 -20 73 -20q17 0 30.5 14t15.5 31z" />
<glyph unicode="&#xd6;" horiz-adv-x="611" d="M59 391q0 49 3 88t11.5 84.5t26.5 79.5t44.5 63t68 44t95.5 15q62 0 108 -22.5t71.5 -56.5t41 -85t20 -97t4.5 -104v-9q0 -71 -4.5 -123.5t-20 -109.5t-41 -93t-72 -59.5t-109.5 -23.5t-109 23.5t-72 59.5t-41 93.5t-19.5 109.5t-5.5 123zM467 389v7q0 66 -7.5 116 t-25 92t-50.5 64t-80 22q-46 0 -78 -22t-49 -64t-24.5 -92t-7.5 -116v-7q0 -71 3.5 -119t13.5 -91t28 -68t46.5 -39.5t69.5 -14.5t69.5 14.5t46.5 39.5t28 68t13.5 91t3.5 119zM191 944h79v-100h-79v100zM420 844h-79v100h79v-100z" />
<glyph unicode="&#xd7;" d="M201 254l-157 157l50 49l156 -157l158 158l49 -50l-157 -157l157 -157l-50 -49l-157 157l-158 -157l-48 49z" />
<glyph unicode="&#xd8;" horiz-adv-x="611" d="M162 195l267 429q-35 62 -123 66h-9q-152 0 -152 -291v-7q2 -127 17 -197zM449 574l-270 -435q36 -82 129 -82q41 0 69.5 14.5t46.5 40t28 69.5t13.5 92t3.5 119q0 115 -20 182zM130 61l-64 -104l-37 24l76 122q-46 93 -46 291v9q0 58 4.5 103.5t20 96.5t41.5 84.5 t72.5 55.5t109.5 22q112 0 169 -65l60 96l37 -22l-70 -112q52 -92 52 -257v-11q0 -58 -3.5 -103.5t-13 -95t-27 -86t-44.5 -66.5t-68 -45.5t-94 -15.5q-114 0 -175 79z" />
<glyph unicode="&#xd9;" horiz-adv-x="611" d="M81 181v569h83v-546q0 -147 142 -147t142 147v546h83v-569q0 -98 -60 -148.5t-165 -50.5t-165 50.5t-60 148.5zM174 959h109l89 -141h-67z" />
<glyph unicode="&#xda;" horiz-adv-x="611" d="M81 181v569h83v-546q0 -147 142 -147t142 147v546h83v-569q0 -98 -60 -148.5t-165 -50.5t-165 50.5t-60 148.5zM239 818l89 141h109l-131 -141h-67z" />
<glyph unicode="&#xdb;" horiz-adv-x="611" d="M81 181v569h83v-546q0 -147 142 -147t142 147v546h83v-569q0 -98 -60 -148.5t-165 -50.5t-165 50.5t-60 148.5zM372 818l-66 94l-66 -94h-80l99 141h93l100 -141h-80z" />
<glyph unicode="&#xdc;" horiz-adv-x="611" d="M81 181v569h83v-546q0 -147 142 -147t142 147v546h83v-569q0 -98 -60 -148.5t-165 -50.5t-165 50.5t-60 148.5zM191 944h79v-100h-79v100zM420 844h-79v100h79v-100z" />
<glyph unicode="&#xdd;" horiz-adv-x="556" d="M103 750l175 -376l176 376h92l-227 -459v-291h-83v291l-225 459h92zM212 818l89 141h109l-131 -141h-67z" />
<glyph unicode="&#xde;" horiz-adv-x="556" d="M169 569v-282h81q96 0 139.5 28t43.5 118q0 44 -13 72t-39 41.5t-54.5 18t-71.5 4.5h-86zM86 0v750h83v-106h114q124 0 175 -49q61 -57 61 -160q0 -156 -106 -201q-52 -22 -194 -22h-50v-212h-83z" />
<glyph unicode="&#xdf;" d="M231 393v67q59 0 85.5 27.5t26.5 85.5q0 56 -25 90.5t-78 34.5q-47 0 -76 -46q-14 -30 -14 -98v-554h-79v538q0 56 7.5 92.5t33.5 71.5q48 63 137 63q80 0 125 -52t45 -133q0 -111 -79 -148q105 -42 105 -205q0 -62 -11.5 -110.5t-47.5 -85t-94 -36.5h-3q-47 0 -69 15v78 q32 -27 70 -27q9 0 14 1q59 14 59 151v8q0 113 -32 146q-6 7 -14.5 11.5t-14.5 7.5t-18.5 4.5t-16.5 1.5t-19.5 0.5t-16.5 0.5z" />
<glyph unicode="&#xe0;" horiz-adv-x="444" d="M287 165v135q-17 -10 -38 -20t-47.5 -22t-39.5 -18q-49 -23 -49 -96q0 -46 16.5 -69t61.5 -23q32 0 64 27t32 86zM417 58v-58q-12 -2 -18 -4q-4 0 -11.5 -0.5t-10.5 -0.5q-40 0 -56.5 15.5t-21.5 64.5h-2q-15 -38 -49.5 -64t-73.5 -26q-79 0 -111 41t-32 122 q0 100 80 135q17 8 58.5 24.5t73 29.5t35.5 16q15 12 15 48v16q0 47 -20 67t-68 20q-49 0 -65 -20.5t-16 -69.5v-8h-71v11q0 154 165 154q40 0 69.5 -11t44.5 -26.5t24 -36.5t11 -35t2 -29v-341q0 -27 14 -33q12 -2 17 -2q3 0 9 0.5t8 0.5zM91 765h109l89 -141h-67z" />
<glyph unicode="&#xe1;" horiz-adv-x="444" d="M287 165v135q-17 -10 -38 -20t-47.5 -22t-39.5 -18q-49 -23 -49 -96q0 -46 16.5 -69t61.5 -23q32 0 64 27t32 86zM417 58v-58q-12 -2 -18 -4q-4 0 -11.5 -0.5t-10.5 -0.5q-40 0 -56.5 15.5t-21.5 64.5h-2q-15 -38 -49.5 -64t-73.5 -26q-79 0 -111 41t-32 122 q0 100 80 135q17 8 58.5 24.5t73 29.5t35.5 16q15 12 15 48v16q0 47 -20 67t-68 20q-49 0 -65 -20.5t-16 -69.5v-8h-71v11q0 154 165 154q40 0 69.5 -11t44.5 -26.5t24 -36.5t11 -35t2 -29v-341q0 -27 14 -33q12 -2 17 -2q3 0 9 0.5t8 0.5zM156 624l89 141h109l-131 -141 h-67z" />
<glyph unicode="&#xe2;" horiz-adv-x="444" d="M287 165v135q-17 -10 -38 -20t-47.5 -22t-39.5 -18q-49 -23 -49 -96q0 -46 16.5 -69t61.5 -23q32 0 64 27t32 86zM417 58v-58q-12 -2 -18 -4q-4 0 -11.5 -0.5t-10.5 -0.5q-40 0 -56.5 15.5t-21.5 64.5h-2q-15 -38 -49.5 -64t-73.5 -26q-79 0 -111 41t-32 122 q0 100 80 135q17 8 58.5 24.5t73 29.5t35.5 16q15 12 15 48v16q0 47 -20 67t-68 20q-49 0 -65 -20.5t-16 -69.5v-8h-71v11q0 154 165 154q40 0 69.5 -11t44.5 -26.5t24 -36.5t11 -35t2 -29v-341q0 -27 14 -33q12 -2 17 -2q3 0 9 0.5t8 0.5zM289 624l-66 94l-66 -94h-80 l99 141h93l100 -141h-80z" />
<glyph unicode="&#xe3;" horiz-adv-x="444" d="M287 165v135q-17 -10 -38 -20t-47.5 -22t-39.5 -18q-49 -23 -49 -96q0 -46 16.5 -69t61.5 -23q32 0 64 27t32 86zM417 58v-58q-12 -2 -18 -4q-4 0 -11.5 -0.5t-10.5 -0.5q-40 0 -56.5 15.5t-21.5 64.5h-2q-15 -38 -49.5 -64t-73.5 -26q-79 0 -111 41t-32 122 q0 100 80 135q17 8 58.5 24.5t73 29.5t35.5 16q15 12 15 48v16q0 47 -20 67t-68 20q-49 0 -65 -20.5t-16 -69.5v-8h-71v11q0 154 165 154q40 0 69.5 -11t44.5 -26.5t24 -36.5t11 -35t2 -29v-341q0 -27 14 -33q12 -2 17 -2q3 0 9 0.5t8 0.5zM345 749h48q-4 -46 -30.5 -77.5 t-71.5 -31.5q-20 0 -71 18q-55 20 -73 20q-17 0 -30.5 -14t-15.5 -31h-48q4 46 30.5 77.5t71.5 31.5q20 0 71 -18q55 -20 73 -20q17 0 30.5 14t15.5 31z" />
<glyph unicode="&#xe4;" horiz-adv-x="444" d="M287 165v135q-17 -10 -38 -20t-47.5 -22t-39.5 -18q-49 -23 -49 -96q0 -46 16.5 -69t61.5 -23q32 0 64 27t32 86zM417 58v-58q-12 -2 -18 -4q-4 0 -11.5 -0.5t-10.5 -0.5q-40 0 -56.5 15.5t-21.5 64.5h-2q-15 -38 -49.5 -64t-73.5 -26q-79 0 -111 41t-32 122 q0 100 80 135q17 8 58.5 24.5t73 29.5t35.5 16q15 12 15 48v16q0 47 -20 67t-68 20q-49 0 -65 -20.5t-16 -69.5v-8h-71v11q0 154 165 154q40 0 69.5 -11t44.5 -26.5t24 -36.5t11 -35t2 -29v-341q0 -27 14 -33q12 -2 17 -2q3 0 9 0.5t8 0.5zM108 750h79v-100h-79v100z M337 650h-79v100h79v-100z" />
<glyph unicode="&#xe5;" horiz-adv-x="444" d="M287 165v135q-17 -10 -38 -20t-47.5 -22t-39.5 -18q-49 -23 -49 -96q0 -46 16.5 -69t61.5 -23q32 0 64 27t32 86zM417 58v-58q-12 -2 -18 -4q-4 0 -11.5 -0.5t-10.5 -0.5q-40 0 -56.5 15.5t-21.5 64.5h-2q-15 -38 -49.5 -64t-73.5 -26q-79 0 -111 41t-32 122 q0 100 80 135q17 8 58.5 24.5t73 29.5t35.5 16q15 12 15 48v16q0 47 -20 67t-68 20q-49 0 -65 -20.5t-16 -69.5v-8h-71v11q0 154 165 154q40 0 69.5 -11t44.5 -26.5t24 -36.5t11 -35t2 -29v-341q0 -27 14 -33q12 -2 17 -2q3 0 9 0.5t8 0.5zM207 623q-41 0 -71.5 30t-30.5 72 q0 41 30.5 71t71.5 30q42 0 72 -29.5t30 -71.5t-30 -72t-72 -30zM207 786q-24 0 -43 -18.5t-19 -42.5t18.5 -43t43.5 -19t43.5 18.5t18.5 43.5q0 24 -19 42.5t-43 18.5z" />
<glyph unicode="&#xe6;" horiz-adv-x="667" d="M630 270h-260q0 -1 -0.5 -13.5t-0.5 -23.5q0 -111 24 -154q17 -27 69 -27q87 0 89 129h73v-3q0 -83 -40 -138t-121 -55q-53 0 -86.5 21.5t-55.5 69.5q-55 -91 -158 -91q-68 0 -102.5 41t-34.5 109q0 103 72 145q24 14 80 33.5t81 30.5q36 17 36 68q0 46 -21 68t-67 22 q-83 0 -83 -91v-7h-75v3q0 39 12 73.5t49 62.5t95 28q89 0 132 -63q45 61 122 61q45 0 77.5 -16.5t50 -41.5t28 -63t13 -70.5t2.5 -75.5v-32zM370 335h178v20q0 147 -85 147q-32 0 -51.5 -13.5t-27.5 -39.5t-10.5 -48.5t-3.5 -53.5v-12zM288 218v81l-57 -27q-68 -32 -86 -47 q-37 -31 -37 -88q0 -39 19 -62t58 -23q56 0 86 41q17 23 17 107v18z" />
<glyph unicode="&#xe7;" horiz-adv-x="444" d="M157 -86l53 73q-42 4 -73 22.5t-48.5 44t-28 63.5t-13.5 73t-3 81q0 47 3.5 84t15.5 79.5t32 70.5t56 47t85 19q80 0 122.5 -53t42.5 -134v-3h-74q-2 123 -92 123q-37 0 -60.5 -21.5t-33 -61t-12.5 -70t-3 -72.5v-25q0 -37 2.5 -64t12 -62.5t32.5 -55.5t59 -20q25 0 43 9 t27.5 21t16 33t8.5 37.5t3 41.5h75q-6 -194 -146 -207l-37 -47l2 -2q9 3 24 3q34 0 61.5 -17.5t27.5 -55.5q0 -48 -36 -70t-88 -22h-8q-48 7 -83 21l17 40q41 -15 65 -15q34 0 53 23q4 4 4 15q0 28 -27 39q-9 4 -21 4q-15 0 -39 -8z" />
<glyph unicode="&#xe8;" horiz-adv-x="444" d="M125 336h188q0 2 -1 22.5t-1.5 25.5t-2 24t-4.5 25.5t-7.5 21t-11 21t-15.5 14.5t-21 11t-27 3q-22 0 -38.5 -7t-27 -23t-16.5 -28.5t-9 -37.5t-4 -35.5t-2 -36.5zM317 185h74v-13q0 -81 -43.5 -134t-124.5 -53q-85 0 -132.5 67.5t-47.5 226.5q0 39 4 75.5t16.5 77.5 t31.5 70.5t51.5 49t74.5 19.5q48 0 82 -18.5t50.5 -39t26.5 -67t11.5 -68.5t2.5 -79q1 -19 1 -28h-270v-30.5t0.5 -35.5t2.5 -35.5t6 -36.5t11.5 -31t17.5 -26.5t26 -16.5t36 -7q48 0 70.5 33.5t22.5 82.5q0 2 -0.5 8t-0.5 9zM91 765h109l89 -141h-67z" />
<glyph unicode="&#xe9;" horiz-adv-x="444" d="M125 336h188q0 2 -1 22.5t-1.5 25.5t-2 24t-4.5 25.5t-7.5 21t-11 21t-15.5 14.5t-21 11t-27 3q-22 0 -38.5 -7t-27 -23t-16.5 -28.5t-9 -37.5t-4 -35.5t-2 -36.5zM317 185h74v-13q0 -81 -43.5 -134t-124.5 -53q-85 0 -132.5 67.5t-47.5 226.5q0 39 4 75.5t16.5 77.5 t31.5 70.5t51.5 49t74.5 19.5q48 0 82 -18.5t50.5 -39t26.5 -67t11.5 -68.5t2.5 -79q1 -19 1 -28h-270v-30.5t0.5 -35.5t2.5 -35.5t6 -36.5t11.5 -31t17.5 -26.5t26 -16.5t36 -7q48 0 70.5 33.5t22.5 82.5q0 2 -0.5 8t-0.5 9zM156 624l89 141h109l-131 -141h-67z" />
<glyph unicode="&#xea;" horiz-adv-x="444" d="M125 336h188q0 2 -1 22.5t-1.5 25.5t-2 24t-4.5 25.5t-7.5 21t-11 21t-15.5 14.5t-21 11t-27 3q-22 0 -38.5 -7t-27 -23t-16.5 -28.5t-9 -37.5t-4 -35.5t-2 -36.5zM317 185h74v-13q0 -81 -43.5 -134t-124.5 -53q-85 0 -132.5 67.5t-47.5 226.5q0 39 4 75.5t16.5 77.5 t31.5 70.5t51.5 49t74.5 19.5q48 0 82 -18.5t50.5 -39t26.5 -67t11.5 -68.5t2.5 -79q1 -19 1 -28h-270v-30.5t0.5 -35.5t2.5 -35.5t6 -36.5t11.5 -31t17.5 -26.5t26 -16.5t36 -7q48 0 70.5 33.5t22.5 82.5q0 2 -0.5 8t-0.5 9zM289 624l-66 94l-66 -94h-80l99 141h93 l100 -141h-80z" />
<glyph unicode="&#xeb;" horiz-adv-x="444" d="M125 336h188q0 2 -1 22.5t-1.5 25.5t-2 24t-4.5 25.5t-7.5 21t-11 21t-15.5 14.5t-21 11t-27 3q-22 0 -38.5 -7t-27 -23t-16.5 -28.5t-9 -37.5t-4 -35.5t-2 -36.5zM317 185h74v-13q0 -81 -43.5 -134t-124.5 -53q-85 0 -132.5 67.5t-47.5 226.5q0 39 4 75.5t16.5 77.5 t31.5 70.5t51.5 49t74.5 19.5q48 0 82 -18.5t50.5 -39t26.5 -67t11.5 -68.5t2.5 -79q1 -19 1 -28h-270v-30.5t0.5 -35.5t2.5 -35.5t6 -36.5t11.5 -31t17.5 -26.5t26 -16.5t36 -7q48 0 70.5 33.5t22.5 82.5q0 2 -0.5 8t-0.5 9zM108 750h79v-100h-79v100zM337 650h-79v100h79 v-100z" />
<glyph unicode="&#xec;" horiz-adv-x="222" d="M151 0h-79v556h79v-556zM-20 765h109l89 -141h-67z" />
<glyph unicode="&#xed;" horiz-adv-x="222" d="M151 0h-79v556h79v-556zM45 624l89 141h109l-131 -141h-67z" />
<glyph unicode="&#xee;" horiz-adv-x="222" d="M151 0h-79v556h79v-556zM178 624l-66 94l-66 -94h-80l99 141h93l100 -141h-80z" />
<glyph unicode="&#xef;" horiz-adv-x="222" d="M151 0h-79v556h79v-556zM-3 750h79v-100h-79v100zM226 650h-79v100h79v-100z" />
<glyph unicode="&#xf0;" d="M100 672l76 53q-60 60 -65 64l45 42q32 -28 73 -69l71 51l29 -31l-72 -51q192 -195 192 -434q0 -172 -50.5 -242t-148.5 -70q-97 0 -148 70.5t-51 241.5q0 130 49.5 202t149.5 72q36 0 56 -15l2 2q-24 50 -103 136l-76 -53zM133 272q0 -107 26 -163.5t91 -56.5 q66 0 91.5 56t25.5 164q0 125 -27 178.5t-90 53.5q-61 0 -89 -53.5t-28 -178.5z" />
<glyph unicode="&#xf1;" d="M150 556v-61h2q60 76 139 76q64 0 100.5 -35.5t36.5 -106.5v-429h-79v407q0 97 -83 97q-45 0 -78 -31q-36 -33 -36 -101v-372h-79v556h77zM373 749h48q-4 -46 -30.5 -77.5t-71.5 -31.5q-20 0 -71 18q-55 20 -73 20q-17 0 -30.5 -14t-15.5 -31h-48q4 46 30.5 77.5 t71.5 31.5q20 0 71 -18q55 -20 73 -20q17 0 30.5 14t15.5 31z" />
<glyph unicode="&#xf2;" d="M449 297q0 -172 -50.5 -242t-148.5 -70q-97 0 -148 70.5t-51 241.5q0 130 49.5 202t149.5 72t149.5 -72t49.5 -202zM367 272q0 125 -27 178.5t-90 53.5q-61 0 -89 -53.5t-28 -178.5q0 -107 26 -163.5t91 -56.5q66 0 91.5 56t25.5 164zM119 765h109l89 -141h-67z" />
<glyph unicode="&#xf3;" d="M449 297q0 -172 -50.5 -242t-148.5 -70q-97 0 -148 70.5t-51 241.5q0 130 49.5 202t149.5 72t149.5 -72t49.5 -202zM367 272q0 125 -27 178.5t-90 53.5q-61 0 -89 -53.5t-28 -178.5q0 -107 26 -163.5t91 -56.5q66 0 91.5 56t25.5 164zM184 624l89 141h109l-131 -141h-67z " />
<glyph unicode="&#xf4;" d="M449 297q0 -172 -50.5 -242t-148.5 -70q-97 0 -148 70.5t-51 241.5q0 130 49.5 202t149.5 72t149.5 -72t49.5 -202zM367 272q0 125 -27 178.5t-90 53.5q-61 0 -89 -53.5t-28 -178.5q0 -107 26 -163.5t91 -56.5q66 0 91.5 56t25.5 164zM317 624l-66 94l-66 -94h-80l99 141 h93l100 -141h-80z" />
<glyph unicode="&#xf5;" d="M449 297q0 -172 -50.5 -242t-148.5 -70q-97 0 -148 70.5t-51 241.5q0 130 49.5 202t149.5 72t149.5 -72t49.5 -202zM367 272q0 125 -27 178.5t-90 53.5q-61 0 -89 -53.5t-28 -178.5q0 -107 26 -163.5t91 -56.5q66 0 91.5 56t25.5 164zM373 749h48q-4 -46 -30.5 -77.5 t-71.5 -31.5q-20 0 -71 18q-55 20 -73 20q-17 0 -30.5 -14t-15.5 -31h-48q4 46 30.5 77.5t71.5 31.5q20 0 71 -18q55 -20 73 -20q17 0 30.5 14t15.5 31z" />
<glyph unicode="&#xf6;" d="M449 297q0 -172 -50.5 -242t-148.5 -70q-97 0 -148 70.5t-51 241.5q0 130 49.5 202t149.5 72t149.5 -72t49.5 -202zM367 272q0 125 -27 178.5t-90 53.5q-61 0 -89 -53.5t-28 -178.5q0 -107 26 -163.5t91 -56.5q66 0 91.5 56t25.5 164zM136 750h79v-100h-79v100zM365 650 h-79v100h79v-100z" />
<glyph unicode="&#xf7;" d="M44 219v70h413v-70h-413zM289 405h-79v100h79v-100zM289 3h-79v100h79v-100z" />
<glyph unicode="&#xf8;" d="M147 151l197 286q-25 67 -93 67q-62 0 -90 -53t-28 -178q0 -56 14 -122zM356 391l-194 -283q27 -56 89 -56q65 0 90.5 56.5t25.5 164.5q0 71 -11 118zM115 40l-59 -86l-31 19l68 99q-42 71 -42 226q0 130 49.5 201.5t149.5 71.5q92 0 143 -63l51 74l28 -23l-57 -83 q14 -25 24 -76t10 -102q0 -170 -50.5 -241.5t-140.5 -71.5q-95 0 -143 55z" />
<glyph unicode="&#xf9;" d="M345 0v73h-2q-20 -42 -55.5 -65t-76.5 -23q-134 0 -134 142v429h79v-432q0 -37 15.5 -54.5t55.5 -17.5q61 0 95 49q23 36 23 98v357h79v-556h-79zM119 765h109l89 -141h-67z" />
<glyph unicode="&#xfa;" d="M345 0v73h-2q-20 -42 -55.5 -65t-76.5 -23q-134 0 -134 142v429h79v-432q0 -37 15.5 -54.5t55.5 -17.5q61 0 95 49q23 36 23 98v357h79v-556h-79zM184 624l89 141h109l-131 -141h-67z" />
<glyph unicode="&#xfb;" d="M345 0v73h-2q-20 -42 -55.5 -65t-76.5 -23q-134 0 -134 142v429h79v-432q0 -37 15.5 -54.5t55.5 -17.5q61 0 95 49q23 36 23 98v357h79v-556h-79zM317 624l-66 94l-66 -94h-80l99 141h93l100 -141h-80z" />
<glyph unicode="&#xfc;" d="M345 0v73h-2q-20 -42 -55.5 -65t-76.5 -23q-134 0 -134 142v429h79v-432q0 -37 15.5 -54.5t55.5 -17.5q61 0 95 49q23 36 23 98v357h79v-556h-79zM136 750h79v-100h-79v100zM365 650h-79v100h79v-100z" />
<glyph unicode="&#xfd;" horiz-adv-x="444" d="M182 -13l-177 569h82l125 -482h2l129 482h82l-165 -531q-34 -112 -51 -142q-41 -73 -127 -73q-28 0 -57 9v70q27 -12 59 -12q21 0 36 5.5t24.5 18.5t14.5 22.5t12 31.5t11 32zM156 624l89 141h109l-131 -141h-67z" />
<glyph unicode="&#xfe;" d="M151 279q0 -49 3.5 -84t13.5 -70.5t32.5 -54t56.5 -18.5q59 0 83.5 59t24.5 177q0 216 -109 216q-25 0 -43.5 -10.5t-29.5 -31t-18 -40.5t-10 -50t-3.5 -48t-0.5 -45zM72 -188v938h79v-256h2q16 38 46.5 57.5t65.5 19.5q51 0 87.5 -22t56.5 -62t29 -87.5t9 -105.5 q0 -53 -7 -101t-25 -98t-55.5 -80t-90.5 -30q-71 0 -116 73h-2v-246h-79z" />
<glyph unicode="&#xff;" horiz-adv-x="444" d="M182 -13l-177 569h82l125 -482h2l129 482h82l-165 -531q-34 -112 -51 -142q-41 -73 -127 -73q-28 0 -57 9v70q27 -12 59 -12q21 0 36 5.5t24.5 18.5t14.5 22.5t12 31.5t11 32zM108 750h79v-100h-79v100zM337 650h-79v100h79v-100z" />
<glyph unicode="&#x131;" horiz-adv-x="222" d="M151 0h-79v556h79v-556z" />
<glyph unicode="&#x141;" d="M83 0v325l-96 -81v88l96 81v337h83v-267l136 116v-88l-136 -116v-320h306v-75h-389z" />
<glyph unicode="&#x142;" horiz-adv-x="222" d="M72 0v372l-80 -55v74l80 53v306h79v-255l80 53v-68l-80 -55v-425h-79z" />
<glyph unicode="&#x152;" horiz-adv-x="833" d="M512 75h273v-75h-351v59h-2q-34 -40 -63.5 -58t-72.5 -19h-9q-145 0 -201 158q-30 95 -30 219v15q1 87 9 147t34 118q27 60 76.5 93t114.5 33q86 0 142 -79h2v64h353v-75h-275v-246h257v-75h-257v-279zM426 248v292q0 74 -33.5 112t-92.5 38q-116 0 -141 -128 q-17 -88 -17 -207q0 -32 1.5 -58t5.5 -64t14.5 -66t26 -54.5t41.5 -41t60 -14.5q66 0 100.5 40t34.5 136v15z" />
<glyph unicode="&#x153;" horiz-adv-x="722" d="M674 274h-260l1 -55q0 -23 1 -36.5t3.5 -36t9 -36.5t16 -29t26 -22t38.5 -7q18 0 32 5t23 17t15 22t10 29t5.5 28.5t4.5 30.5h75q-2 -32 -10.5 -63t-25.5 -63.5t-49.5 -52.5t-75.5 -20q-95 0 -142 80q-50 -80 -141 -80q-37 0 -67 10t-49.5 26t-33.5 41t-22 49t-12 58 t-5 59.5t-1 60.5q0 282 183 282q47 0 87.5 -20t63.5 -58q46 78 128 78q44 0 77 -17t51 -41t29 -58.5t14 -62.5t3 -59q0 -17 -1 -37.5t-1 -21.5zM122 266v-12q0 -25 1 -42.5t3.5 -44t10 -44.5t18.5 -35.5t30 -26.5t44 -9q66 0 85 52.5t19 181.5q0 120 -21.5 169t-77.5 49 q-26 0 -46 -10t-31.5 -29.5t-19 -39t-10.5 -48.5t-4 -48t-1 -46v-17zM414 339h185q0 5 -1 33t-2.5 39t-7 33.5t-14 32t-24.5 18.5t-39 9q-22 0 -38.5 -7t-27 -22.5t-16.5 -28t-9 -37.5t-4 -35t-2 -35z" />
<glyph unicode="&#x160;" horiz-adv-x="556" d="M483 553h-83q0 3 0.5 7.5t0.5 6.5q0 55 -31.5 89t-88.5 34q-43 0 -71.5 -12t-41 -34t-17 -42t-4.5 -46q0 -75 71 -102l119 -45q102 -38 135 -81t33 -121q0 -106 -62 -165.5t-171 -59.5q-153 0 -205 119q-13 31 -16 137h83v-23q0 -80 30 -119t112 -39q65 0 104 33.5 t39 97.5q0 24 -2 42t-9.5 31.5t-12 21.5t-19.5 16.5t-21 11t-28 10.5t-30 11q-12 5 -44.5 16.5t-58.5 22t-44 19.5q-50 25 -69.5 67t-19.5 103q0 92 58.5 148.5t150.5 56.5q100 0 157 -49.5t57 -144.5q0 -3 -0.5 -9t-0.5 -9zM213 959l66 -94l66 94h80l-100 -141h-93l-99 141 h80z" />
<glyph unicode="&#x161;" horiz-adv-x="444" d="M380 407h-77v11q0 44 -20.5 65t-67.5 21q-88 0 -88 -84q0 -21 5.5 -36t20 -26t23 -16t33 -14t31.5 -12q9 -4 33.5 -14.5t34 -15t28.5 -15.5t27 -20.5t18.5 -23.5t14.5 -31.5t4 -39.5q0 -78 -50.5 -124.5t-134.5 -46.5h-7q-40 0 -77 14.5t-57 43.5q-31 42 -31 107v12h75 v-11q0 -49 22 -74t72 -25q106 0 106 94q0 23 -8 39.5t-24.5 27t-31 16.5t-38.5 14t-35 13q-73 27 -104.5 59t-31.5 99q0 71 45 114t118 43q172 0 172 -159v-5zM157 765l66 -94l66 94h80l-100 -141h-93l-99 141h80z" />
<glyph unicode="&#x178;" horiz-adv-x="556" d="M103 750l175 -376l176 376h92l-227 -459v-291h-83v291l-225 459h92zM164 944h79v-100h-79v100zM393 844h-79v100h79v-100z" />
<glyph unicode="&#x17d;" d="M473 0h-445v72l354 603h-345v75h431v-72l-354 -603h359v-75zM185 959l66 -94l66 94h80l-100 -141h-93l-99 141h80z" />
<glyph unicode="&#x17e;" horiz-adv-x="389" d="M366 0h-342v62l258 429h-247v65h329v-65l-258 -426h260v-65zM129 765l66 -94l66 94h80l-100 -141h-93l-99 141h80z" />
<glyph unicode="&#x192;" d="M10 -179l10 68q13 -11 43 -11q31 0 53 13q27 16 50 154l60 363h-110v67h122q21 120 38 164q44 111 142 111q40 0 70 -11l-17 -77q-20 21 -53 21q-10 0 -19 -2t-16 -7.5t-12.5 -10t-10 -14.5t-7.5 -15t-6.5 -18t-4.5 -17.5t-4 -18.5t-4 -16q-5 -23 -17 -89h121v-67h-130 l-52 -329q-12 -82 -36.5 -154.5t-58.5 -92.5q-40 -24 -88 -24q-33 0 -63 13z" />
<glyph unicode="&#x2c6;" horiz-adv-x="333" d="M233 624l-66 94l-66 -94h-80l99 141h93l100 -141h-80z" />
<glyph unicode="&#x2c7;" horiz-adv-x="333" d="M101 765l66 -94l66 94h80l-100 -141h-93l-99 141h80z" />
<glyph unicode="&#x2d8;" horiz-adv-x="333" d="M12 765h49q17 -77 106 -77q87 0 105 77h49q-3 -69 -45.5 -102.5t-112.5 -33.5q-65 0 -106.5 34t-44.5 102z" />
<glyph unicode="&#x2d9;" horiz-adv-x="250" d="M165 650h-79v100h79v-100z" />
<glyph unicode="&#x2da;" horiz-adv-x="250" d="M125 593q-41 0 -71.5 30t-30.5 72q0 41 30.5 71t71.5 30q42 0 72 -29.5t30 -71.5t-30 -72t-72 -30zM125 756q-24 0 -43 -18.5t-19 -42.5t18.5 -43t43.5 -19t43.5 18.5t18.5 43.5q0 24 -19 42.5t-43 18.5z" />
<glyph unicode="&#x2db;" horiz-adv-x="333" d="M238 -125v-59q-43 -20 -84 -20q-38 0 -67 22.5t-29 59.5q0 66 84 144l68 -12q-77 -60 -77 -106v-8q0 -38 43 -38q28 0 62 17z" />
<glyph unicode="&#x2dc;" horiz-adv-x="333" d="M289 749h48q-4 -46 -30.5 -77.5t-71.5 -31.5q-20 0 -71 18q-55 20 -73 20q-17 0 -30.5 -14t-15.5 -31h-48q4 46 30.5 77.5t71.5 31.5q20 0 71 -18q55 -20 73 -20q17 0 30.5 14t15.5 31z" />
<glyph unicode="&#x2dd;" horiz-adv-x="333" d="M61 624l89 141h109l-131 -141h-67zM242 624l89 141h109l-131 -141h-67z" />
<glyph unicode="&#x3bc;" horiz-adv-x="516" d="M483 -2q-12 -3 -38 -3q-28 0 -52.5 15.5t-30.5 43.5q-25 -66 -99 -66q-77 0 -100 47v-225h-79v746h79v-387q0 -106 95 -106q93 0 93 126v367h79v-438q0 -30 11.5 -41.5t41.5 -12.5v-66z" />
<glyph unicode="&#x2013;" d="M0 275v70h500v-70h-500z" />
<glyph unicode="&#x2014;" horiz-adv-x="1000" d="M0 275v70h1000v-70h-1000z" />
<glyph unicode="&#x2018;" horiz-adv-x="222" d="M158 767v-45q-49 -10 -49 -102h49v-99h-94l1 99q2 120 93 147z" />
<glyph unicode="&#x2019;" horiz-adv-x="222" d="M64 504v45q49 10 49 102h-49v99h94v-98q0 -120 -94 -148z" />
<glyph unicode="&#x201a;" horiz-adv-x="222" d="M64 -146v45q49 10 49 102h-49v99h94v-100q0 -118 -94 -146z" />
<glyph unicode="&#x201c;" horiz-adv-x="389" d="M156 767v-45q-49 -10 -49 -102h49v-99h-94l1 99q2 121 93 147zM327 767v-45q-49 -10 -49 -102h49v-99h-94v99q0 119 94 147z" />
<glyph unicode="&#x201d;" horiz-adv-x="389" d="M62 504v45q49 10 49 102h-49v99h94v-99q0 -119 -94 -147zM233 504v45q49 10 49 102h-49v99h94l-1 -99q-2 -120 -93 -147z" />
<glyph unicode="&#x201e;" horiz-adv-x="389" d="M233 -146v45q49 10 49 101h-49v100h94l-1 -100q-2 -119 -93 -146zM62 -146v45q49 10 49 101h-49v100h94v-100q0 -119 -94 -146z" />
<glyph unicode="&#x2020;" d="M210 -176v633h-170v70h170v223h80v-223h171v-70h-171v-633h-80z" />
<glyph unicode="&#x2021;" d="M211 51h-172v70h171v328h-169v70h170v231h80v-231h171v-70h-171v-328h171v-70h-171v-227h-80v227z" />
<glyph unicode="&#x2022;" horiz-adv-x="333" d="M318 375q0 -63 -44.5 -108t-107.5 -45q-62 0 -106.5 45.5t-44.5 107.5q0 63 44.5 108.5t106.5 45.5q63 0 107.5 -45.5t44.5 -108.5z" />
<glyph unicode="&#x2026;" horiz-adv-x="1000" d="M212 0h-91v100h91v-100zM545 0h-91v100h91v-100zM878 100v-100h-91v100h91z" />
<glyph unicode="&#x2030;" horiz-adv-x="1111" d="M718 186q0 -102 -30.5 -144t-102.5 -42h-3q-66 1 -100 45t-34 144q0 173 139 173q71 0 101 -50t30 -126zM582 306q-24 0 -38.5 -13t-20 -38t-7 -42t-1.5 -44q0 -113 68 -113t68 113q0 27 -1.5 44t-7 42t-21 38t-39.5 13zM317 560q0 -100 -31 -141t-102 -41h-6 q-66 1 -98.5 43t-32.5 142q0 173 139 173q71 0 101 -50t30 -126zM181 680q-19 0 -32.5 -10.5t-20 -23.5t-10 -35.5t-4 -35t-0.5 -34.5q0 -107 68 -107t68 107q0 22 -0.5 34.5t-4 35t-10.5 35.5t-20.5 23.5t-33.5 10.5zM1071 186q0 -101 -30 -143.5t-99 -42.5h-6 q-66 2 -100.5 45.5t-34.5 143.5q0 173 139 173q71 0 101 -50t30 -126zM935 306q-24 0 -38.5 -13t-20 -38t-7 -42t-1.5 -44q0 -113 68 -113t68 113q0 27 -1.5 44t-7 42t-21 38t-39.5 13zM579 750l-341 -766h-53l339 766h55z" />
<glyph unicode="&#x2039;" horiz-adv-x="278" d="M64 342l151 153v-83l-100 -102l100 -102v-83l-151 156v61z" />
<glyph unicode="&#x203a;" horiz-adv-x="278" d="M214 278l-151 -153v83l100 102l-100 102v83l151 -156v-61z" />
<glyph unicode="&#x2044;" horiz-adv-x="167" d="M-174 0l452 750h63l-452 -750h-63z" />
<glyph unicode="&#x20ac;" d="M496 673l-36 -95q-7 40 -57 74q-35 23 -80 23q-35 0 -60.5 -12.5t-40 -30.5t-24 -45.5t-13 -51t-5.5 -53.5h244l-23 -62h-224q-1 -12 -1 -51v-19h199l-23 -62h-175l1.5 -37.5t2.5 -37.5t6 -39t10.5 -34.5t17.5 -32.5t25.5 -24t35.5 -17.5t47 -5.5q41 0 82 24.5t55 50.5 v-98q-7 -6 -18.5 -14.5t-45.5 -23t-66 -14.5q-58 0 -101.5 19t-68.5 48t-40.5 71t-21 80.5t-6.5 84.5h-74l23 62h50q0 3 -0.5 15t-0.5 20q0 7 0.5 19.5t0.5 15.5h-74l23 62h54q4 54 17.5 98.5t39.5 84.5t71.5 62.5t106.5 22.5q114 0 167 -77z" />
<glyph unicode="&#x2122;" horiz-adv-x="750" d="M719 750v-421h-55v361h-2l-118 -361h-32l-115 361h-2v-361h-55v421h89l98 -297h2l102 297h88zM280 750v-60h-109v-361h-61v361h-110v60h280z" />
<glyph unicode="&#x2212;" d="M44 219v70h413v-70h-413z" />
<glyph unicode="&#xe000;" horiz-adv-x="555" d="M0 555h555v-555h-555v555z" />
<glyph unicode="&#xfb01;" d="M93 0v489h-81v67h80v47q0 79 20 107q29 42 107 42q12 0 40 -2v-67q-24 2 -31 2q-32 0 -44 -14.5t-12 -55.5v-59h87v-67h-87v-489h-79zM425 750v-100h-79v100h79zM427 556v-556h-79v556h79z" />
<glyph unicode="&#xfb02;" d="M93 0v489h-81v67h80v47q0 79 20 107q29 42 107 42q12 0 40 -2v-67q-24 2 -31 2q-32 0 -44 -14.5t-12 -55.5v-59h87v-67h-87v-489h-79zM425 0h-79v750h79v-750z" />
<glyph unicode="&#xfffd;" horiz-adv-x="250" />
</font>
</defs>
</svg>
